<?xml version="1.0" encoding="UTF-8"?>
<svg width="62px" height="62px" viewBox="0 0 62 62" version="1.1" xmlns="http://www.w3.org/2000/svg" xmlns:xlink="http://www.w3.org/1999/xlink">
    <title>Facebook icon</title>
    <g id="Assets" stroke="none" stroke-width="1" fill="none" fill-rule="evenodd">
        <g id="Web-Build-Assets" transform="translate(-197.000000, -758.000000)" fill="#ffffff" fill-rule="nonzero">
            <g id="Facebook-icon" transform="translate(197.000000, 758.000000)">
                <path d="M55.8,0 L6.2,0 C2.79,0 0,2.79 0,6.2 L0,55.8 C0,59.21 2.79,62 6.2,62 L55.8,62 C59.21,62 62,59.21 62,55.8 L62,6.2 C62,2.79 59.21,0 55.8,0 Z M52.7,6.2 L52.7,15.5 L46.5,15.5 C44.64,15.5 43.4,16.74 43.4,18.6 L43.4,24.8 L52.7,24.8 L52.7,34.1 L43.4,34.1 L43.4,55.8 L34.1,55.8 L34.1,34.1 L27.9,34.1 L27.9,24.8 L34.1,24.8 L34.1,17.05 C34.1,11.16 39.06,6.2 44.95,6.2 L52.7,6.2 Z" id="Shape"></path>
            </g>
        </g>
    </g>
</svg>