<?xml version="1.0" encoding="UTF-8"?>
<svg width="62px" height="62px" viewBox="0 0 62 62" version="1.1" xmlns="http://www.w3.org/2000/svg" xmlns:xlink="http://www.w3.org/1999/xlink">
    <title>Instagram icon</title>
    <g id="Assets" stroke="none" stroke-width="1" fill="none" fill-rule="evenodd">
        <g id="Web-Build-Assets" transform="translate(-114.000000, -758.000000)" fill="#ffffff" fill-rule="nonzero">
            <g id="Instagram-icon" transform="translate(114.000000, 758.000000)">
                <path d="M55.8,0 L6.2,0 C2.79,0 0,2.79 0,6.2 L0,55.8 C0,59.21 2.79,62 6.2,62 L55.8,62 C59.21,62 62,59.21 62,55.8 L62,6.2 C62,2.79 59.21,0 55.8,0 Z M31,18.6 C37.82,18.6 43.4,24.18 43.4,31 C43.4,37.82 37.82,43.4 31,43.4 C24.18,43.4 18.6,37.82 18.6,31 C18.6,24.18 24.18,18.6 31,18.6 Z M7.75,55.8 C6.82,55.8 6.2,55.18 6.2,54.25 L6.2,27.9 L12.71,27.9 C12.4,28.83 12.4,30.07 12.4,31 C12.4,41.23 20.77,49.6 31,49.6 C41.23,49.6 49.6,41.23 49.6,31 C49.6,30.07 49.6,28.83 49.29,27.9 L55.8,27.9 L55.8,54.25 C55.8,55.18 55.18,55.8 54.25,55.8 L7.75,55.8 Z M55.8,13.95 C55.8,14.88 55.18,15.5 54.25,15.5 L48.05,15.5 C47.12,15.5 46.5,14.88 46.5,13.95 L46.5,7.75 C46.5,6.82 47.12,6.2 48.05,6.2 L54.25,6.2 C55.18,6.2 55.8,6.82 55.8,7.75 L55.8,13.95 Z" id="Shape"></path>
            </g>
        </g>
    </g>
</svg>