<svg width="47" height="34" viewBox="0 0 47 34" fill="none" xmlns="http://www.w3.org/2000/svg">
<path d="M25.004 0L23.4373 10.3203C22.9778 13.4438 22.0796 16.4407 20.7427 19.311C19.4058 22.139 17.7556 24.7983 15.792 27.2886C13.8284 29.7368 11.6769 31.9739 9.33733 34L0 28.7449C1.83822 25.7902 3.50933 22.8566 5.01333 19.9441C6.51733 16.9894 7.58267 13.7815 8.20933 10.3203L9.964 0H25.004ZM47 0L45.4333 10.3203C44.9738 13.4438 44.0756 16.4407 42.7387 19.311C41.4018 22.139 39.7516 24.7983 37.788 27.2886C35.8244 29.7368 33.6729 31.9739 31.3333 34L21.996 28.7449C23.8342 25.7902 25.5053 22.8566 27.0093 19.9441C28.5133 16.9894 29.5787 13.7815 30.2053 10.3203L31.96 0H47Z" fill="#FD4B28"/>
</svg>
