<svg width="44" height="31" viewBox="0 0 44 31" fill="none" xmlns="http://www.w3.org/2000/svg">
<path d="M0 31L1.4885 21.671C1.92512 18.8125 2.77853 16.0891 4.04871 13.5009C5.35859 10.8741 6.94632 8.4405 8.81191 6.2C10.6775 3.92087 12.7217 1.85421 14.9445 0L23.7564 4.80935C22.0496 7.5134 20.4817 10.2174 19.0528 12.9215C17.6238 15.5869 16.6116 18.5034 16.0162 21.671L14.3491 31H0ZM20.2436 31L21.7321 21.671C22.1687 18.8125 23.0221 16.0891 24.2923 13.5009C25.6022 10.8741 27.1899 8.4405 29.0555 6.2C30.9211 3.92087 32.9653 1.85421 35.1881 0L44 4.80935C42.2932 7.5134 40.7253 10.2174 39.2963 12.9215C37.8674 15.5869 36.8552 18.5034 36.2598 21.671L34.5927 31H20.2436Z" fill="#FD4B28"/>
</svg>
