<?xml version="1.0" encoding="UTF-8"?>
<svg width="159px" height="45px" viewBox="0 0 159 45" version="1.1" xmlns="http://www.w3.org/2000/svg" xmlns:xlink="http://www.w3.org/1999/xlink">
    <!-- Generator: Sketch 54.1 (76490) - https://sketchapp.com -->
    <title>Full logo</title>
    <desc>Created with Sketch.</desc>
    <g id="Assets" stroke="none" stroke-width="1" fill="none" fill-rule="evenodd">
        <g id="Web-Build-Assets" transform="translate(-58.000000, -55.000000)" fill="#000000">
            <g id="Full-logo" transform="translate(58.000000, 55.000000)">
                <polygon id="Fill-17" points="3.68223399 38.4908495 2.48839673 44 0.902840636 44 2.08704863 38.4908495 0 38.4908495 0.331246991 37 6 37 5.66875301 38.4908495"></polygon>
                <polygon id="Fill-18" points="9.59812001 44 10.2565892 41.1960583 7.39226941 41.1960583 6.72305748 44 5 44 6.64596224 37 8.37997314 37 7.73266805 39.7249174 10.6077306 39.7249174 11.2552463 37 13 37 11.3430843 44"></polygon>
                <polygon id="Fill-19" points="13 44 14.5023552 37 19 37 18.679495 38.4711408 15.7645721 38.4711408 15.4740603 39.8039417 18.118467 39.8039417 17.8279553 41.1763496 15.1835486 41.1763496 14.8932291 42.5190048 17.8181498 42.5190048 17.4974525 44"></polygon>
                <polygon id="Fill-20" points="25.725309 44 23.7200369 39.4090097 22.6639623 44 21 44 22.5998772 37 24.5199754 37 26.3334016 41.2652282 27.3147442 37 29 37 27.3894761 44"></polygon>
                <polygon id="Fill-21" points="29 44 30.5023552 37 35 37 34.679495 38.4711408 31.7645721 38.4711408 31.4740603 39.8039417 34.118467 39.8039417 33.8279553 41.1763496 31.1835486 41.1763496 30.8932291 42.5190048 33.8181498 42.5190048 33.4974525 44"></polygon>
                <polygon id="Fill-22" points="36.0000477 44 34 44 37.1045432 40.4556554 35.4925872 37 37.3134863 37 38.2388331 39.1622719 40.0098837 37 42 37 38.9055793 40.5443446 40.5274668 44 38.6865137 44 37.7613579 41.8475824"></polygon>
                <polygon id="Fill-23" points="50 44 51.5306722 37 53.1430194 37 51.9286666 42.5091505 55 42.5091505 54.6734958 44"></polygon>
                <polygon id="Fill-24" points="56 44 57.5023552 37 62 37 61.6793027 38.4711408 58.7645721 38.4711408 58.4740603 39.8039417 61.118467 39.8039417 60.8279553 41.1763496 58.1835486 41.1763496 57.8932291 42.5190048 60.8179575 42.5190048 60.4974525 44"></polygon>
                <polygon id="Fill-25" points="64.350417 41.9563593 67.1442827 37 69 37 64.7936678 44 63.1132721 44 62 37 63.7009753 37"></polygon>
                <polygon id="Fill-26" points="68 44 69.5024994 37 74 37 73.679313 38.4711408 70.7646757 38.4711408 70.4741733 39.8039417 73.1184953 39.8039417 72.8279928 41.1763496 70.1836709 41.1763496 69.8931684 42.5190048 72.8179954 42.5190048 72.4975006 44"></polygon>
                <polygon id="Fill-27" points="74 44 75.5304763 37 77.1428236 37 75.9284707 42.5091505 79 42.5091505 78.6732999 44"></polygon>
                <g id="Group-32" transform="translate(83.000000, 37.000000)">
                    <path d="M3.732064,0.00394418605 C5.59929067,0.00394418605 6.81505067,1.26403721 6.81505067,3.11538605 C6.81505067,4.42385116 6.328784,5.45138605 5.609184,6.14924651 L6.270544,7.10868837 L5.09361067,7.84543256 L4.442144,6.90515349 C4.014304,7.07966512 3.55715733,7.16692093 3.090304,7.16692093 C1.25219733,7.16692093 0.0172106667,5.89715349 0.0172106667,4.04580465 C0.0172106667,1.51594419 1.816304,0.00394418605 3.732064,0.00394418605 L3.732064,0.00394418605 Z M3.82931733,3.57082791 L4.71449067,4.85026977 C5.025664,4.43352558 5.239584,3.87129302 5.239584,3.17343256 C5.239584,2.16543256 4.67547733,1.47724651 3.65441067,1.47724651 C2.65275733,1.47724651 1.59267733,2.3496186 1.59267733,3.95854884 C1.59267733,4.98608372 2.17619733,5.67426977 3.168144,5.67426977 C3.29451733,5.67426977 3.430784,5.66459535 3.566864,5.62571163 L2.662464,4.31724651 L3.82931733,3.57082791 Z" id="Fill-28"></path>
                    <path d="M13.8169733,0.149339535 L12.8252133,4.81147907 C12.4847333,6.38189767 11.3662267,7.16682791 10.02428,7.16682791 C8.52665333,7.16682791 7.53470667,6.25575814 7.53470667,4.89873488 C7.53470667,4.58859535 7.58324,4.35603721 7.65137333,4.01668837 L8.45852,0.149339535 L10.0145733,0.149339535 L9.17812,4.09426977 C9.12958667,4.32701395 9.10028,4.54989767 9.10028,4.67585116 C9.10028,5.24775814 9.40193333,5.65482791 10.16036,5.65482791 C10.76348,5.65482791 11.19132,5.28645581 11.347,4.53054884 L12.2611067,0.149339535 L13.8169733,0.149339535 Z" id="Fill-30"></path>
                </g>
                <path d="M101.175211,42.5783204 L98.5526755,42.5783204 L97.7650726,44 L96,44 L100.108359,37 L101.933147,37 L103,44 L101.364695,44 L101.175211,42.5783204 Z M99.3504224,41.1566409 L100.985727,41.1566409 L100.676811,38.7476312 L99.3504224,41.1566409 Z" id="Fill-33"></path>
                <polygon id="Fill-34" points="104 44 105.530672 37 107.143019 37 105.928667 42.5091505 109 42.5091505 108.673496 44"></polygon>
                <polygon id="Fill-35" points="110 44 111.451517 37 113 37 111.538638 44"></polygon>
                <polygon id="Fill-36" points="113 44 114.485034 37 119 37 118.68319 38.4809952 115.722815 38.4809952 115.415888 39.9619904 118.019923 39.9619904 117.712996 41.3836699 115.128726 41.3836699 114.564284 44"></polygon>
                <polygon id="Fill-37" points="118 44 119.451613 37 121 37 119.538728 44"></polygon>
                <path d="M124.936186,37 C126.985479,37 127.837599,38.4270225 128,39.486551 L126.427395,40.0053174 C126.326138,39.4431821 125.93026,38.6432444 124.824608,38.6432444 C123.77971,38.6432444 122.643485,39.6054522 122.643485,41.3999689 C122.643485,42.4918683 123.292895,43.3243846 124.368171,43.3243846 C125.402748,43.3243846 125.85938,42.5460275 126.07241,42.037844 L127.502865,42.6541385 C127.158006,43.637927 126.183988,45 124.226216,45 C122.288305,45 121,43.5080279 121,41.4972894 C121,38.6756154 122.917464,37.0107903 124.895683,37.0107903 L124.936186,37 Z" id="Fill-38"></path>
                <path d="M132.175211,42.5783204 L129.552675,42.5783204 L128.765073,44 L127,44 L131.108359,37 L132.933147,37 L134,44 L132.364695,44 L132.175211,42.5783204 Z M130.350422,41.1566409 L131.985727,41.1566409 L131.676811,38.7476312 L130.350422,41.1566409 Z" id="Fill-40"></path>
                <polygon id="Fill-41" points="138.682352 38.4908495 137.488284 44 135.90287 44 137.086923 38.4908495 135 38.4908495 135.331065 37 141 37 140.668935 38.4908495"></polygon>
                <polygon id="Fill-42" points="141 44 142.451517 37 144 37 142.538638 44"></polygon>
                <path d="M147.825521,37 C149.748277,37 151,38.4073401 151,40.4750266 C151,43.3005117 149.137216,45 147.164676,45 C145.271906,45 144,43.581855 144,41.5141685 C144,38.6886834 145.852596,37 147.825521,37 M147.745366,38.6454638 C146.713925,38.6454638 145.622319,39.6197761 145.622319,41.4167164 C145.622319,42.564323 146.223192,43.3329264 147.244638,43.3329264 C148.27608,43.3329264 149.377681,42.3370042 149.377681,40.5398561 C149.377681,39.4140672 148.796798,38.6454638 147.745366,38.6454638" id="Fill-43"></path>
                <polygon id="Fill-45" points="155.725393 44 153.719967 39.4090097 152.664124 44 151 44 152.600041 37 154.52009 37 156.33347 41.2652282 157.314787 37 159 37 157.389313 44"></polygon>
                <polygon id="Fill-46" points="28 28 32.8415816 1 38.9598206 1 35.149634 22.2495933 47 22.2495933 45.9689968 28"></polygon>
                <polygon id="Fill-47" points="48 28 52.7915437 1 70 1 68.9928356 6.67412243 57.8397737 6.67412243 56.9272187 11.8150257 67.0453925 11.8150257 66.106277 17.1086901 55.9879094 17.1086901 55.0687628 22.2879281 66.2598236 22.2879281 65.2460675 28"></polygon>
                <polygon id="Fill-48" points="91.5954103 1 98 1 83.359946 28 77.1462733 28 72 1 78.6331116 1 81.7982837 20.0027326"></polygon>
                <polygon id="Fill-49" points="96 28 100.791561 1 118 1 116.992985 6.67412243 105.840013 6.67412243 104.927806 11.8150257 115.045456 11.8150257 114.106105 17.1086901 103.988261 17.1086901 103.069268 22.2879281 114.260434 22.2879281 113.246827 28"></polygon>
                <polygon id="Fill-50" points="115 28 119.841582 1 125.959821 1 122.149634 22.2495933 134 22.2495933 132.969193 28"></polygon>
                <polygon id="Fill-51" points="17.8770452 12 17 17 25.1229548 17 26 12"></polygon>
                <path d="M150.828646,11.4428366 L147.288214,10.7605175 C145.460264,10.4195496 144.820521,9.472161 145.051648,8.18418783 C145.316712,6.70646862 147.033292,5.30445616 149.308671,5.30445616 C151.489259,5.30445616 152.517334,6.22271203 152.959693,7.20651653 L158.827581,7.20651653 L159,7.16128414 C158.985957,4.01609966 157.1229,0 150.299103,0 C145.055159,0 139.866607,3.56185913 138.955363,8.63881169 C138.241699,12.6171538 140.512397,15.6484907 144.982212,16.5197892 L148.600077,17.2019166 C150.350984,17.5426929 151.29285,18.5280307 151.048265,19.8920939 C150.749068,21.5591759 149.079299,22.6955438 146.688844,22.6955438 C143.973252,22.6955438 142.544167,21.5545759 142.0431,19.9875419 L136.000062,19.9875419 C135.985629,23.6676569 138.488819,28 145.659794,28 C152.176008,28 156.530747,23.7184475 157.285371,19.5129851 C157.971925,15.6864399 155.863893,12.3898419 150.828646,11.4428366" id="Fill-52"></path>
                <polygon id="Fill-54" points="12 1 1.24815458 1.00840168 0 7 5.88109625 6.99519904"></polygon>
                <polygon id="Fill-55" points="12 1.00840757 16 7 21.7149892 6.99579622 23 1"></polygon>
                <polygon id="Fill-56" points="8.65172426 7 4 28 10.3098184 27.9955959 15 7"></polygon>
                <polygon id="Fill-57" points="45 37 42.3121313 37.0027976 42 39 43.4701733 38.9984741"></polygon>
                <polygon id="Fill-58" points="45 37.0027997 46.0908346 39 47.649638 38.9987274 48 37"></polygon>
                <polygon id="Fill-59" points="44.2686911 38 43 43 44.7208377 42.9989567 46 38"></polygon>
            </g>
        </g>
    </g>
</svg>