<?xml version="1.0" encoding="UTF-8"?>
<svg width="1000px" height="503px" viewBox="0 0 1000 503" version="1.1" xmlns="http://www.w3.org/2000/svg" xmlns:xlink="http://www.w3.org/1999/xlink">
    <!-- Generator: Sketch 54.1 (76490) - https://sketchapp.com -->
    <title>1000px</title>
    <desc>Created with Sketch.</desc>
    <defs>
        <rect id="path-1" x="0" y="0" width="1000" height="503"></rect>
        <rect id="path-3" x="0" y="0" width="1000" height="576"></rect>
    </defs>
    <g id="Page-1" stroke="none" stroke-width="1" fill="none" fill-rule="evenodd">
        <g id="1000px">
            <g id="Divider">
                <mask id="mask-2" fill="white">
                    <use xlink:href="#path-1"></use>
                </mask>
                <use id="Mask" fill="#D8D8D8" xlink:href="#path-1"></use>
                <g mask="url(#mask-2)">
                    <g transform="translate(-12.000000, -37.000000)">
                        <rect id="Rectangle" fill="#000000" x="0" y="0" width="1000" height="576"></rect>
                        <g id="Group-3" stroke-width="1" fill="none" transform="translate(12.000000, 0.000000)">
                            <mask id="mask-4" fill="white">
                                <use xlink:href="#path-3"></use>
                            </mask>
                            <use id="Mask" fill="#000000" xlink:href="#path-3"></use>
                            <g mask="url(#mask-4)">
                                <g transform="translate(-526.133333, -29.155556)">
                                    <path d="M866.637979,147.771772 L880.403731,147.771772 L884.737393,186.942462 L902.326965,147.771772 L916.85748,147.771772 L887.796449,208.409369 L874.285619,208.409369 L869.951956,168.212372 L849.218355,208.409369 L834.857787,208.409369 L831.288889,147.771772 L844.799719,147.771772 L846.584168,186.856937 L866.637979,147.771772 Z M949.232488,208.409369 L911.079264,208.409369 L923.82533,147.771772 L961.978555,147.771772 L959.259394,160.515075 L934.532025,160.515075 L932.067786,172.061021 L954.500862,172.061021 L952.036623,183.949069 L929.603546,183.949069 L927.139307,195.580541 L951.951649,195.580541 L949.232488,208.409369 Z M999.367016,208.409369 L960.449027,208.409369 L973.195093,147.771772 L986.620949,147.771772 L976.50907,195.495015 L1002.08618,195.495015 L999.367016,208.409369 Z M1039.04977,146.574414 L1039.38966,146.488889 C1056.55437,146.488889 1063.69216,157.778258 1065.05174,166.15976 L1051.88081,170.264985 C1051.03107,165.817658 1047.71709,159.488769 1038.45495,159.488769 C1029.70265,159.488769 1020.18559,167.100541 1020.18559,181.297778 C1020.18559,189.935856 1025.62391,196.521321 1034.63113,196.521321 C1043.29846,196.521321 1047.12228,190.363483 1048.90673,186.343784 L1060.88803,191.218739 C1057.99892,199.001562 1049.84144,209.777778 1033.4415,209.777778 C1017.21151,209.777778 1006.41984,197.975255 1006.41984,182.067508 C1006.41984,159.745345 1022.47988,146.574414 1039.04977,146.574414 Z M1067.34604,182.153033 C1067.34604,159.830871 1083.06618,146.488889 1099.80602,146.488889 C1116.12098,146.488889 1126.7427,157.607207 1126.7427,173.942583 C1126.7427,196.264745 1110.93758,209.692252 1094.19775,209.692252 C1078.1377,209.692252 1067.34604,198.488408 1067.34604,182.153033 Z M1112.97695,174.455736 C1112.97695,165.561081 1108.04847,159.488769 1099.12623,159.488769 C1090.37393,159.488769 1081.11179,167.186066 1081.11179,181.383303 C1081.11179,190.449009 1086.21021,196.521321 1094.87754,196.521321 C1103.62984,196.521321 1112.97695,188.652973 1112.97695,174.455736 Z M1197.44088,208.409369 L1184.26995,208.409369 L1192.76733,168.297898 L1168.97467,208.409369 L1158.26797,208.409369 L1150.53536,168.811051 L1142.12296,208.409369 L1129.46186,208.409369 L1142.20793,147.771772 L1158.86279,147.771772 L1167.10525,188.652973 L1190.72796,147.771772 L1210.27192,147.771772 L1197.44088,208.409369 Z M1248.76504,208.409369 L1210.61182,208.409369 L1223.35789,147.771772 L1261.51111,147.771772 L1258.79195,160.515075 L1234.06458,160.515075 L1231.60034,172.061021 L1254.03342,172.061021 L1251.56918,183.949069 L1229.1361,183.949069 L1226.67186,195.580541 L1251.48421,195.580541 L1248.76504,208.409369 Z" id="WELCOME" stroke="none" fill="#FC4422" fill-rule="nonzero"></path>
                                    <path d="M908.199566,487.52 L921.870472,427.980304 L921.634076,427.677755 L891.1628,451.992553 L921.634076,427.677755 L921.870472,427.980304 L908.199566,487.52 L824.346637,487.52 L908.199566,487.52 L908.168724,487.654321 L908.199566,487.52 L908.438548,487.52 L908.199566,487.52 Z M921.870472,427.980304 L921.97037,427.545225 L921.870472,427.980304 L940.632439,451.992553 L921.870472,427.980304 Z M921.634076,427.677755 L921.800163,427.545225 L921.634076,427.677755 L921.530524,427.545225 L921.634076,427.677755 Z" id="Combined-Shape-Copy-13" stroke="#FFFFFF" stroke-width="2" fill="none" stroke-linecap="square"></path>
                                    <path d="M1287.22179,487.52 L1287.46077,487.52 L1287.22179,487.52 L1287.19095,487.654321 L1287.22179,487.52 L1203.36886,487.52 L1287.22179,487.52 L1300.89269,427.980304 L1300.6563,427.677755 L1270.18502,451.992553 L1300.6563,427.677755 L1300.89269,427.980304 L1287.22179,487.52 Z M1300.89269,427.980304 L1319.65466,451.992553 L1300.89269,427.980304 L1300.99259,427.545225 L1300.89269,427.980304 Z M1300.6563,427.677755 L1300.82239,427.545225 L1300.6563,427.677755 L1300.55275,427.545225 L1300.6563,427.677755 Z" id="Combined-Shape-Copy-22" stroke="#FFFFFF" stroke-width="2" fill="none" stroke-linecap="square"></path>
                                    <path d="M944.466232,350.275556 L860.613304,350.275556 L944.466232,350.275556 L958.137139,290.735859 L957.900743,290.433311 L927.429467,314.748108 L957.900743,290.433311 L958.137139,290.735859 L944.466232,350.275556 Z M944.466232,350.275556 L944.435391,350.409877 L944.466232,350.275556 L944.705215,350.275556 L944.466232,350.275556 Z M958.137139,290.735859 L958.237037,290.300781 L958.137139,290.735859 L976.899106,314.748108 L958.137139,290.735859 Z M957.900743,290.433311 L957.79719,290.300781 L957.900743,290.433311 L958.066829,290.300781 L957.900743,290.433311 Z" id="Combined-Shape-Copy-14" stroke="#FFFFFF" stroke-width="2" fill="none" stroke-linecap="square"></path>
                                    <path d="M1144.28845,418.542222 L1060.43553,418.542222 L1144.28845,418.542222 L1157.95936,359.002526 L1157.72296,358.699978 L1127.25169,383.014775 L1157.72296,358.699978 L1157.95936,359.002526 L1144.28845,418.542222 Z M1144.28845,418.542222 L1144.25761,418.676543 L1144.28845,418.542222 L1144.52744,418.542222 L1144.28845,418.542222 Z M1157.95936,359.002526 L1176.72133,383.014775 L1157.95936,359.002526 L1158.05926,358.567447 L1157.95936,359.002526 Z M1157.72296,358.699978 L1157.61941,358.567447 L1157.72296,358.699978 L1157.88905,358.567447 L1157.72296,358.699978 Z" id="Combined-Shape-Copy-20" stroke="#FFFFFF" stroke-width="2" fill="none" stroke-linecap="square"></path>
                                    <path d="M797.266232,418.542222 L713.413304,418.542222 L797.266232,418.542222 L797.235391,418.676543 L797.266232,418.542222 L797.505215,418.542222 L797.266232,418.542222 L810.937139,359.002526 L810.700743,358.699978 L780.229467,383.014775 L810.700743,358.699978 L810.937139,359.002526 L811.037037,358.567447 L810.937139,359.002526 L829.699106,383.014775 L810.937139,359.002526 L797.266232,418.542222 Z M810.700743,358.699978 L810.59719,358.567447 L810.700743,358.699978 L810.866829,358.567447 L810.700743,358.699978 Z" id="Combined-Shape-Copy-21" stroke="#FFFFFF" stroke-width="2" fill="none" stroke-linecap="square"></path>
                                    <path d="M1237.44401,350.275556 L1251.11492,290.735859 L1250.87852,290.433311 L1220.40724,314.748108 L1250.87852,290.433311 L1251.11492,290.735859 L1237.44401,350.275556 L1237.68299,350.275556 L1237.44401,350.275556 L1237.41317,350.409877 L1237.44401,350.275556 L1153.59108,350.275556 L1237.44401,350.275556 Z M1251.11492,290.735859 L1269.87688,314.748108 L1251.11492,290.735859 L1251.21481,290.300781 L1251.11492,290.735859 Z M1250.87852,290.433311 L1250.77497,290.300781 L1250.87852,290.433311 L1251.04461,290.300781 L1250.87852,290.433311 Z" id="Combined-Shape-Copy-15" stroke="#FFFFFF" stroke-width="2" fill="none" stroke-linecap="square"></path>
                                    <path d="M860.555121,279.164444 L874.226028,219.624748 L873.989632,219.3222 L843.518356,243.636997 L873.989632,219.3222 L874.226028,219.624748 L860.555121,279.164444 L776.702193,279.164444 L860.555121,279.164444 Z M860.555121,279.164444 L860.52428,279.298765 L860.555121,279.164444 L860.794104,279.164444 L860.555121,279.164444 Z M874.226028,219.624748 L892.987995,243.636997 L874.226028,219.624748 L874.325926,219.18967 L874.226028,219.624748 Z M873.989632,219.3222 L874.155718,219.18967 L873.989632,219.3222 L873.886079,219.18967 L873.989632,219.3222 Z" id="Combined-Shape-Copy-16" stroke="#FFFFFF" stroke-width="2" fill="none" stroke-linecap="square"></path>
                                    <path d="M1096.64401,279.164444 L1096.88299,279.164444 L1096.64401,279.164444 L1096.61317,279.298765 L1096.64401,279.164444 L1012.79108,279.164444 L1096.64401,279.164444 L1110.31492,219.624748 L1110.07852,219.3222 L1079.60724,243.636997 L1110.07852,219.3222 L1110.31492,219.624748 L1110.41481,219.18967 L1110.31492,219.624748 L1129.07688,243.636997 L1110.31492,219.624748 L1096.64401,279.164444 Z M1110.07852,219.3222 L1109.97497,219.18967 L1110.07852,219.3222 L1110.24461,219.18967 L1110.07852,219.3222 Z" id="Combined-Shape-Copy-17" stroke="#FFFFFF" stroke-width="2" fill="none" stroke-linecap="square"></path>
                                    <path d="M1345.5329,206.631111 L1359.20381,147.091415 L1358.96741,146.788867 L1328.49613,171.103664 L1358.96741,146.788867 L1359.20381,147.091415 L1359.3037,146.656336 L1359.20381,147.091415 L1377.96577,171.103664 L1359.20381,147.091415 L1345.5329,206.631111 L1261.67997,206.631111 L1345.5329,206.631111 Z M1345.5329,206.631111 L1345.77188,206.631111 L1345.5329,206.631111 L1345.50206,206.765432 L1345.5329,206.631111 Z M1358.96741,146.788867 L1358.86386,146.656336 L1358.96741,146.788867 L1359.1335,146.656336 L1358.96741,146.788867 Z" id="Combined-Shape-Copy-18" stroke="#FFFFFF" stroke-width="2" fill="none" stroke-linecap="square"></path>
                                    <path d="M790.866232,206.631111 L707.013304,206.631111 L790.866232,206.631111 L804.537139,147.091415 L804.300743,146.788867 L773.829467,171.103664 L804.300743,146.788867 L804.537139,147.091415 L790.866232,206.631111 Z M790.866232,206.631111 L790.835391,206.765432 L790.866232,206.631111 L791.105215,206.631111 L790.866232,206.631111 Z M804.537139,147.091415 L804.637037,146.656336 L804.537139,147.091415 L823.299106,171.103664 L804.537139,147.091415 Z M804.300743,146.788867 L804.466829,146.656336 L804.300743,146.788867 L804.19719,146.656336 L804.300743,146.788867 Z" id="Combined-Shape-Copy-19" stroke="#FFFFFF" stroke-width="2" fill="none" stroke-linecap="square"></path>
                                    <path d="M922.104646,72.393994 L935.870397,72.393994 L940.20406,111.564685 L957.793631,72.393994 L972.324147,72.393994 L943.263116,133.031592 L929.752286,133.031592 L925.418623,92.8345946 L904.685022,133.031592 L890.324454,133.031592 L886.755556,72.393994 L900.266386,72.393994 L902.050835,111.479159 L922.104646,72.393994 Z M1004.69916,133.031592 L966.54593,133.031592 L979.291996,72.393994 L1017.44522,72.393994 L1014.72606,85.1372973 L989.998692,85.1372973 L987.534453,96.6832432 L1009.96753,96.6832432 L1007.50329,108.571291 L985.070213,108.571291 L982.605974,120.202763 L1007.41832,120.202763 L1004.69916,133.031592 Z M1054.83368,133.031592 L1015.91569,133.031592 L1028.66176,72.393994 L1042.08762,72.393994 L1031.97574,120.117237 L1057.55284,120.117237 L1054.83368,133.031592 Z M1094.51644,71.1966366 L1094.85633,71.1111111 C1112.02103,71.1111111 1119.15883,82.4004805 1120.51841,90.781982 L1107.34748,94.8872072 C1106.49774,90.4398799 1103.18376,84.110991 1093.92162,84.110991 C1085.16932,84.110991 1075.65226,91.7227628 1075.65226,105.92 C1075.65226,114.558078 1081.09058,121.143544 1090.0978,121.143544 C1098.76512,121.143544 1102.58894,114.985706 1104.37339,110.966006 L1116.3547,115.840961 C1113.46559,123.623784 1105.3081,134.4 1088.90817,134.4 C1072.67817,134.4 1061.88651,122.597477 1061.88651,106.68973 C1061.88651,84.3675676 1077.94655,71.1966366 1094.51644,71.1966366 Z M1122.8127,106.775255 C1122.8127,84.4530931 1138.53285,71.1111111 1155.27268,71.1111111 C1171.58765,71.1111111 1182.20937,82.2294294 1182.20937,98.5648048 C1182.20937,120.886967 1166.40425,134.314474 1149.66442,134.314474 C1133.60437,134.314474 1122.8127,123.110631 1122.8127,106.775255 Z M1168.44362,99.077958 C1168.44362,90.1833033 1163.51514,84.110991 1154.59289,84.110991 C1145.8406,84.110991 1136.57845,91.8082883 1136.57845,106.005526 C1136.57845,115.071231 1141.67688,121.143544 1150.34421,121.143544 C1159.0965,121.143544 1168.44362,113.275195 1168.44362,99.077958 Z M1252.90755,133.031592 L1239.73662,133.031592 L1248.23399,92.9201201 L1224.44134,133.031592 L1213.73464,133.031592 L1206.00203,93.4332733 L1197.58962,133.031592 L1184.92853,133.031592 L1197.6746,72.393994 L1214.32946,72.393994 L1222.57191,113.275195 L1246.19462,72.393994 L1265.73859,72.393994 L1252.90755,133.031592 Z M1304.23171,133.031592 L1266.07849,133.031592 L1278.82455,72.393994 L1316.97778,72.393994 L1314.25862,85.1372973 L1289.53125,85.1372973 L1287.06701,96.6832432 L1309.50009,96.6832432 L1307.03585,108.571291 L1284.60277,108.571291 L1282.13853,120.202763 L1306.95087,120.202763 L1304.23171,133.031592 Z" id="WELCOME-Copy" stroke="#FFFFFF" stroke-width="2" fill="none" fill-rule="nonzero"></path>
                                    <path d="M912.14909,504.74955 L925.914842,504.74955 L930.248504,543.92024 L947.838076,504.74955 L962.368591,504.74955 L933.30756,565.387147 L919.79673,565.387147 L915.463068,525.19015 L894.729466,565.387147 L880.368899,565.387147 L876.8,504.74955 L890.31083,504.74955 L892.095279,543.834715 L912.14909,504.74955 Z M994.7436,565.387147 L956.590375,565.387147 L969.336441,504.74955 L1007.48967,504.74955 L1004.7705,517.492853 L980.043136,517.492853 L977.578897,529.038799 L1000.01197,529.038799 L997.547734,540.926847 L975.114658,540.926847 L972.650418,552.558318 L997.46276,552.558318 L994.7436,565.387147 Z M1044.87813,565.387147 L1005.96014,565.387147 L1018.7062,504.74955 L1032.13206,504.74955 L1022.02018,552.472793 L1047.59729,552.472793 L1044.87813,565.387147 Z M1084.56088,503.552192 L1084.90077,503.466667 C1102.06548,503.466667 1109.20327,514.756036 1110.56285,523.137538 L1097.39192,527.242763 C1096.54218,522.795435 1093.2282,516.466547 1083.96606,516.466547 C1075.21376,516.466547 1065.6967,524.078318 1065.6967,538.275556 C1065.6967,546.913634 1071.13502,553.499099 1080.14224,553.499099 C1088.80957,553.499099 1092.63339,547.341261 1094.41784,543.321562 L1106.39914,548.196517 C1103.51003,555.979339 1095.35255,566.755556 1078.95261,566.755556 C1062.72262,566.755556 1051.93095,554.953033 1051.93095,539.045285 C1051.93095,516.723123 1067.99099,503.552192 1084.56088,503.552192 Z M1112.85715,539.130811 C1112.85715,516.808649 1128.57729,503.466667 1145.31713,503.466667 C1161.63209,503.466667 1172.25382,514.584985 1172.25382,530.92036 C1172.25382,553.242523 1156.44869,566.67003 1139.70886,566.67003 C1123.64882,566.67003 1112.85715,555.466186 1112.85715,539.130811 Z M1158.48806,531.433514 C1158.48806,522.538859 1153.55958,516.466547 1144.63734,516.466547 C1135.88504,516.466547 1126.6229,524.163844 1126.6229,538.361081 C1126.6229,547.426787 1131.72132,553.499099 1140.38865,553.499099 C1149.14095,553.499099 1158.48806,545.630751 1158.48806,531.433514 Z M1242.952,565.387147 L1229.78106,565.387147 L1238.27844,525.275676 L1214.48578,565.387147 L1203.77909,565.387147 L1196.04647,525.788829 L1187.63407,565.387147 L1174.97298,565.387147 L1187.71904,504.74955 L1204.3739,504.74955 L1212.61636,545.630751 L1236.23907,504.74955 L1255.78304,504.74955 L1242.952,565.387147 Z M1294.27616,565.387147 L1256.12293,565.387147 L1268.869,504.74955 L1307.02222,504.74955 L1304.30306,517.492853 L1279.57569,517.492853 L1277.11145,529.038799 L1299.54453,529.038799 L1297.08029,540.926847 L1274.64721,540.926847 L1272.18297,552.558318 L1296.99532,552.558318 L1294.27616,565.387147 Z" id="WELCOME-Copy-6" stroke="#FFFFFF" stroke-width="2" fill="none" fill-rule="nonzero"></path>
                                    <path d="M1372.94909,428.660661 L1386.71484,428.660661 L1391.0485,467.831351 L1408.63808,428.660661 L1423.16859,428.660661 L1394.10756,489.298258 L1380.59673,489.298258 L1376.26307,449.101261 L1355.52947,489.298258 L1341.1689,489.298258 L1337.6,428.660661 L1351.11083,428.660661 L1352.89528,467.745826 L1372.94909,428.660661 Z M1455.5436,489.298258 L1417.39037,489.298258 L1430.13644,428.660661 L1468.28967,428.660661 L1465.5705,441.403964 L1440.84314,441.403964 L1438.3789,452.94991 L1460.81197,452.94991 L1458.34773,464.837958 L1435.91466,464.837958 L1433.45042,476.469429 L1458.26276,476.469429 L1455.5436,489.298258 Z M1505.67813,489.298258 L1466.76014,489.298258 L1479.5062,428.660661 L1492.93206,428.660661 L1482.82018,476.383904 L1508.39729,476.383904 L1505.67813,489.298258 Z M1545.36088,427.463303 L1545.70077,427.377778 C1562.86548,427.377778 1570.00327,438.667147 1571.36285,447.048649 L1558.19192,451.153874 C1557.34218,446.706547 1554.0282,440.377658 1544.76606,440.377658 C1536.01376,440.377658 1526.4967,447.989429 1526.4967,462.186667 C1526.4967,470.824745 1531.93502,477.41021 1540.94224,477.41021 C1549.60957,477.41021 1553.43339,471.252372 1555.21784,467.232673 L1567.19914,472.107628 C1564.31003,479.89045 1556.15255,490.666667 1539.75261,490.666667 C1523.52262,490.666667 1512.73095,478.864144 1512.73095,462.956396 C1512.73095,440.634234 1528.79099,427.463303 1545.36088,427.463303 Z M1573.65715,463.041922 C1573.65715,440.71976 1589.37729,427.377778 1606.11713,427.377778 C1622.43209,427.377778 1633.05382,438.496096 1633.05382,454.831471 C1633.05382,477.153634 1617.24869,490.581141 1600.50886,490.581141 C1584.44882,490.581141 1573.65715,479.377297 1573.65715,463.041922 Z M1619.28806,455.344625 C1619.28806,446.44997 1614.35958,440.377658 1605.43734,440.377658 C1596.68504,440.377658 1587.4229,448.074955 1587.4229,462.272192 C1587.4229,471.337898 1592.52132,477.41021 1601.18865,477.41021 C1609.94095,477.41021 1619.28806,469.541862 1619.28806,455.344625 Z M1703.752,489.298258 L1690.58106,489.298258 L1699.07844,449.186787 L1675.28578,489.298258 L1664.57909,489.298258 L1656.84647,449.69994 L1648.43407,489.298258 L1635.77298,489.298258 L1648.51904,428.660661 L1665.1739,428.660661 L1673.41636,469.541862 L1697.03907,428.660661 L1716.58304,428.660661 L1703.752,489.298258 Z M1755.07616,489.298258 L1716.92293,489.298258 L1729.669,428.660661 L1767.82222,428.660661 L1765.10306,441.403964 L1740.37569,441.403964 L1737.91145,452.94991 L1760.34453,452.94991 L1757.88029,464.837958 L1735.44721,464.837958 L1732.98297,476.469429 L1757.79532,476.469429 L1755.07616,489.298258 Z" id="WELCOME-Copy-5" stroke="#FFFFFF" stroke-width="2" fill="none" fill-rule="nonzero"></path>
                                    <path d="M1230.72687,359.682883 L1244.49262,359.682883 L1248.82628,398.853574 L1266.41585,359.682883 L1280.94637,359.682883 L1251.88534,420.32048 L1238.37451,420.32048 L1234.04085,380.123483 L1213.30724,420.32048 L1198.94668,420.32048 L1195.37778,359.682883 L1208.88861,359.682883 L1210.67306,398.768048 L1230.72687,359.682883 Z M1313.32138,420.32048 L1275.16815,420.32048 L1287.91422,359.682883 L1326.06744,359.682883 L1323.34828,372.426186 L1298.62091,372.426186 L1296.15667,383.972132 L1318.58975,383.972132 L1316.12551,395.86018 L1293.69244,395.86018 L1291.2282,407.491652 L1316.04054,407.491652 L1313.32138,420.32048 Z M1363.4559,420.32048 L1324.53792,420.32048 L1337.28398,359.682883 L1350.70984,359.682883 L1340.59796,407.406126 L1366.17507,407.406126 L1363.4559,420.32048 Z M1403.13866,358.485526 L1403.47855,358.4 C1420.64325,358.4 1427.78105,369.689369 1429.14063,378.070871 L1415.9697,382.176096 C1415.11996,377.728769 1411.80598,371.39988 1402.54384,371.39988 C1393.79154,371.39988 1384.27448,379.011652 1384.27448,393.208889 C1384.27448,401.846967 1389.7128,408.432432 1398.72002,408.432432 C1407.38735,408.432432 1411.21117,402.274595 1412.99562,398.254895 L1424.97692,403.12985 C1422.08781,410.912673 1413.93033,421.688889 1397.53039,421.688889 C1381.3004,421.688889 1370.50873,409.886366 1370.50873,393.978619 C1370.50873,371.656456 1386.56877,358.485526 1403.13866,358.485526 Z M1431.43492,394.064144 C1431.43492,371.741982 1447.15507,358.4 1463.89491,358.4 C1480.20987,358.4 1490.83159,369.518318 1490.83159,385.853694 C1490.83159,408.175856 1475.02647,421.603363 1458.28664,421.603363 C1442.22659,421.603363 1431.43492,410.39952 1431.43492,394.064144 Z M1477.06584,386.366847 C1477.06584,377.472192 1472.13736,371.39988 1463.21512,371.39988 C1454.46282,371.39988 1445.20068,379.097177 1445.20068,393.294414 C1445.20068,402.36012 1450.2991,408.432432 1458.96643,408.432432 C1467.71873,408.432432 1477.06584,400.564084 1477.06584,386.366847 Z M1561.52977,420.32048 L1548.35884,420.32048 L1556.85622,380.209009 L1533.06356,420.32048 L1522.35686,420.32048 L1514.62425,380.722162 L1506.21185,420.32048 L1493.55075,420.32048 L1506.29682,359.682883 L1522.95168,359.682883 L1531.19414,400.564084 L1554.81685,359.682883 L1574.36081,359.682883 L1561.52977,420.32048 Z M1612.85393,420.32048 L1574.70071,420.32048 L1587.44678,359.682883 L1625.6,359.682883 L1622.88084,372.426186 L1598.15347,372.426186 L1595.68923,383.972132 L1618.12231,383.972132 L1615.65807,395.86018 L1593.22499,395.86018 L1590.76075,407.491652 L1615.57309,407.491652 L1612.85393,420.32048 Z" id="WELCOME-Copy-4" stroke="#FFFFFF" stroke-width="2" fill="none" fill-rule="nonzero"></path>
                                    <path d="M337.571313,291.416216 L351.337064,291.416216 L355.670727,330.586907 L373.260298,291.416216 L387.790814,291.416216 L358.729783,352.053814 L345.218952,352.053814 L340.88529,311.856817 L320.151689,352.053814 L305.791121,352.053814 L302.222222,291.416216 L315.733052,291.416216 L317.517502,330.501381 L337.571313,291.416216 Z M420.165822,352.053814 L382.012597,352.053814 L394.758663,291.416216 L432.911888,291.416216 L430.192727,304.15952 L405.465359,304.15952 L403.001119,315.705465 L425.434196,315.705465 L422.969956,327.593514 L400.53688,327.593514 L398.07264,339.224985 L422.884983,339.224985 L420.165822,352.053814 Z M470.300349,352.053814 L431.38236,352.053814 L444.128426,291.416216 L457.554283,291.416216 L447.442403,339.139459 L473.01951,339.139459 L470.300349,352.053814 Z M509.983102,290.218859 L510.322997,290.133333 C527.487699,290.133333 534.625497,301.422703 535.985077,309.804204 L522.814142,313.909429 C521.964404,309.462102 518.650427,303.133213 509.388285,303.133213 C500.635987,303.133213 491.118924,310.744985 491.118924,324.942222 C491.118924,333.5803 496.557245,340.165766 505.564466,340.165766 C514.231791,340.165766 518.05561,334.007928 519.84006,329.988228 L531.821362,334.863183 C528.932254,342.646006 520.774771,353.422222 504.374833,353.422222 C488.144842,353.422222 477.353172,341.6197 477.353172,325.711952 C477.353172,303.38979 493.413216,290.218859 509.983102,290.218859 Z M538.279369,325.797477 C538.279369,303.475315 553.999517,290.133333 570.739351,290.133333 C587.054316,290.133333 597.676037,301.251652 597.676037,317.587027 C597.676037,339.909189 581.870915,353.336697 565.131082,353.336697 C549.071038,353.336697 538.279369,342.132853 538.279369,325.797477 Z M583.910286,318.10018 C583.910286,309.205526 578.981807,303.133213 570.059561,303.133213 C561.307262,303.133213 552.04512,310.830511 552.04512,325.027748 C552.04512,334.093453 557.143547,340.165766 565.810872,340.165766 C574.563171,340.165766 583.910286,332.297417 583.910286,318.10018 Z M668.374218,352.053814 L655.203283,352.053814 L663.700661,311.942342 L639.908004,352.053814 L629.201308,352.053814 L621.468694,312.455495 L613.056291,352.053814 L600.395198,352.053814 L613.141265,291.416216 L629.796124,291.416216 L638.038581,332.297417 L661.66129,291.416216 L681.205258,291.416216 L668.374218,352.053814 Z M719.698378,352.053814 L681.545153,352.053814 L694.29122,291.416216 L732.444444,291.416216 L729.725284,304.15952 L704.997915,304.15952 L702.533676,315.705465 L724.966752,315.705465 L722.502513,327.593514 L700.069436,327.593514 L697.605197,339.224985 L722.417539,339.224985 L719.698378,352.053814 Z" id="WELCOME-Copy-2" stroke="#FFFFFF" stroke-width="2" fill="none" fill-rule="nonzero"></path>
                                    <path d="M375.971313,218.171772 L389.737064,218.171772 L394.070727,257.342462 L411.660298,218.171772 L426.190814,218.171772 L397.129783,278.809369 L383.618952,278.809369 L379.28529,238.612372 L358.551689,278.809369 L344.191121,278.809369 L340.622222,218.171772 L354.133052,218.171772 L355.917502,257.256937 L375.971313,218.171772 Z M458.565822,278.809369 L420.412597,278.809369 L433.158663,218.171772 L471.311888,218.171772 L468.592727,230.915075 L443.865359,230.915075 L441.401119,242.461021 L463.834196,242.461021 L461.369956,254.349069 L438.93688,254.349069 L436.47264,265.980541 L461.284983,265.980541 L458.565822,278.809369 Z M508.700349,278.809369 L469.78236,278.809369 L482.528426,218.171772 L495.954283,218.171772 L485.842403,265.895015 L511.41951,265.895015 L508.700349,278.809369 Z M548.383102,216.974414 L548.722997,216.888889 C565.887699,216.888889 573.025497,228.178258 574.385077,236.55976 L561.214142,240.664985 C560.364404,236.217658 557.050427,229.888769 547.788285,229.888769 C539.035987,229.888769 529.518924,237.500541 529.518924,251.697778 C529.518924,260.335856 534.957245,266.921321 543.964466,266.921321 C552.631791,266.921321 556.45561,260.763483 558.24006,256.743784 L570.221362,261.618739 C567.332254,269.401562 559.174771,280.177778 542.774833,280.177778 C526.544842,280.177778 515.753172,268.375255 515.753172,252.467508 C515.753172,230.145345 531.813216,216.974414 548.383102,216.974414 Z M576.679369,252.553033 C576.679369,230.230871 592.399517,216.888889 609.139351,216.888889 C625.454316,216.888889 636.076037,228.007207 636.076037,244.342583 C636.076037,266.664745 620.270915,280.092252 603.531082,280.092252 C587.471038,280.092252 576.679369,268.888408 576.679369,252.553033 Z M622.310286,244.855736 C622.310286,235.961081 617.381807,229.888769 608.459561,229.888769 C599.707262,229.888769 590.44512,237.586066 590.44512,251.783303 C590.44512,260.849009 595.543547,266.921321 604.210872,266.921321 C612.963171,266.921321 622.310286,259.052973 622.310286,244.855736 Z M706.774218,278.809369 L693.603283,278.809369 L702.100661,238.697898 L678.308004,278.809369 L667.601308,278.809369 L659.868694,239.211051 L651.456291,278.809369 L638.795198,278.809369 L651.541265,218.171772 L668.196124,218.171772 L676.438581,259.052973 L700.06129,218.171772 L719.605258,218.171772 L706.774218,278.809369 Z M758.098378,278.809369 L719.945153,278.809369 L732.69122,218.171772 L770.844444,218.171772 L768.125284,230.915075 L743.397915,230.915075 L740.933676,242.461021 L763.366752,242.461021 L760.902513,254.349069 L738.469436,254.349069 L736.005197,265.980541 L760.817539,265.980541 L758.098378,278.809369 Z" id="WELCOME-Copy-3" stroke="#FFFFFF" stroke-width="2" fill="none" fill-rule="nonzero"></path>
                                    <path d="M953.93857,231.105338 L937.123284,231.105338 L927.017127,278.893159 L913.598868,278.893159 L923.620099,231.105338 L905.955556,231.105338 L908.758103,218.173508 L956.741118,218.173508 L953.93857,231.105338 Z M953.259165,252.601293 C953.259165,230.248925 968.970418,216.888889 985.700778,216.888889 C1002.00651,216.888889 1012.62222,228.022252 1012.62222,244.379732 C1012.62222,266.7321 996.826044,280.177778 980.095683,280.177778 C964.044728,280.177778 953.259165,268.958773 953.259165,252.601293 Z M998.86426,244.89358 C998.86426,235.986889 993.93857,229.90636 985.021373,229.90636 C976.274027,229.90636 967.017127,237.614073 967.017127,251.830522 C967.017127,260.908495 972.112668,266.989024 980.775088,266.989024 C989.522435,266.989024 998.86426,259.110029 998.86426,244.89358 Z" id="TO" stroke="none" fill="#FC4422" fill-rule="nonzero"></path>
                                    <path d="M794.649682,303.638671 L777.834395,303.638671 L767.728238,351.426492 L754.309979,351.426492 L764.33121,303.638671 L746.666667,303.638671 L749.469214,290.706841 L797.452229,290.706841 L794.649682,303.638671 Z M793.970276,325.134626 C793.970276,302.782258 809.681529,289.422222 826.41189,289.422222 C842.717622,289.422222 853.333333,300.555586 853.333333,316.913066 C853.333333,339.265434 837.537155,352.711111 820.806794,352.711111 C804.755839,352.711111 793.970276,341.492106 793.970276,325.134626 Z M839.575372,317.426913 C839.575372,308.520223 834.649682,302.439693 825.732484,302.439693 C816.985138,302.439693 807.728238,310.147406 807.728238,324.363855 C807.728238,333.441828 812.823779,339.522358 821.4862,339.522358 C830.233546,339.522358 839.575372,331.643362 839.575372,317.426913 Z" id="TO-Copy" stroke="#FFFFFF" stroke-width="2" fill="none" fill-rule="nonzero"></path>
                                    <path d="M1189.31635,231.105338 L1172.50106,231.105338 L1162.3949,278.893159 L1148.97665,278.893159 L1158.99788,231.105338 L1141.33333,231.105338 L1144.13588,218.173508 L1192.1189,218.173508 L1189.31635,231.105338 Z M1188.63694,252.601293 C1188.63694,230.248925 1204.3482,216.888889 1221.07856,216.888889 C1237.38429,216.888889 1248,228.022252 1248,244.379732 C1248,266.7321 1232.20382,280.177778 1215.47346,280.177778 C1199.42251,280.177778 1188.63694,268.958773 1188.63694,252.601293 Z M1234.24204,244.89358 C1234.24204,235.986889 1229.31635,229.90636 1220.39915,229.90636 C1211.6518,229.90636 1202.3949,237.614073 1202.3949,251.830522 C1202.3949,260.908495 1207.49045,266.989024 1216.15287,266.989024 C1224.90021,266.989024 1234.24204,259.110029 1234.24204,244.89358 Z" id="TO-Copy-2" stroke="#FFFFFF" stroke-width="2" fill="none" fill-rule="nonzero"></path>
                                    <path d="M1387.00524,85.3275598 L1370.18995,85.3275598 L1360.08379,133.115381 L1346.66553,133.115381 L1356.68677,85.3275598 L1339.02222,85.3275598 L1341.82477,72.39573 L1389.80778,72.39573 L1387.00524,85.3275598 Z M1386.32583,106.823515 C1386.32583,84.4711472 1402.03708,71.1111111 1418.76745,71.1111111 C1435.07318,71.1111111 1445.68889,82.2444745 1445.68889,98.6019546 C1445.68889,120.954323 1429.89271,134.4 1413.16235,134.4 C1397.11139,134.4 1386.32583,123.180995 1386.32583,106.823515 Z M1431.93093,99.1158021 C1431.93093,90.2091114 1427.00524,84.1285822 1418.08804,84.1285822 C1409.34069,84.1285822 1400.08379,91.8362953 1400.08379,106.052744 C1400.08379,115.130717 1405.17933,121.211246 1413.84176,121.211246 C1422.5891,121.211246 1431.93093,113.332251 1431.93093,99.1158021 Z" id="TO-Copy-3" stroke="#FFFFFF" stroke-width="2" fill="none" fill-rule="nonzero"></path>
                                    <path d="M1377.76079,517.683115 L1360.94551,517.683115 L1350.83935,565.470937 L1337.42109,565.470937 L1347.44232,517.683115 L1329.77778,517.683115 L1332.58033,504.751286 L1380.56334,504.751286 L1377.76079,517.683115 Z M1377.08139,539.179071 C1377.08139,516.826703 1392.79264,503.466667 1409.523,503.466667 C1425.82873,503.466667 1436.44444,514.60003 1436.44444,530.95751 C1436.44444,553.309878 1420.64827,566.755556 1403.91791,566.755556 C1387.86695,566.755556 1377.08139,555.536551 1377.08139,539.179071 Z M1422.68648,531.471358 C1422.68648,522.564667 1417.76079,516.484138 1408.8436,516.484138 C1400.09625,516.484138 1390.83935,524.191851 1390.83935,538.4083 C1390.83935,547.486273 1395.93489,553.566802 1404.59731,553.566802 C1413.34466,553.566802 1422.68648,545.687806 1422.68648,531.471358 Z" id="TO-Copy-4" stroke="#FFFFFF" stroke-width="2" fill="none" fill-rule="nonzero"></path>
                                    <path d="M1039.50222,303.006551 L1022.60622,303.006551 L1012.45156,350.577778 L998.968889,350.577778 L1009.03822,303.006551 L991.288889,303.006551 L994.104889,290.133333 L1042.31822,290.133333 L1039.50222,303.006551 Z M1087.03289,350.577778 L1073.46489,350.577778 L1078.58489,326.365899 L1056.31289,326.365899 L1051.10756,350.577778 L1037.71022,350.577778 L1050.51022,290.133333 L1063.99289,290.133333 L1058.95822,313.663188 L1081.31556,313.663188 L1086.35022,290.133333 L1099.91822,290.133333 L1087.03289,350.577778 Z M1138.48889,350.577778 L1100.17422,350.577778 L1112.97422,290.133333 L1151.28889,290.133333 L1148.55822,302.836045 L1123.72622,302.836045 L1121.25156,314.345212 L1143.77956,314.345212 L1141.30489,326.195393 L1118.77689,326.195393 L1116.30222,337.789814 L1141.21956,337.789814 L1138.48889,350.577778 Z" id="THE" stroke="none" fill="#FC4422" fill-rule="nonzero"></path>
                                    <path d="M1311.85778,231.89544 L1294.96178,231.89544 L1284.80711,279.466667 L1271.32444,279.466667 L1281.39378,231.89544 L1263.64444,231.89544 L1266.46044,219.022222 L1314.67378,219.022222 L1311.85778,231.89544 Z M1359.38844,279.466667 L1345.82044,279.466667 L1350.94044,255.254788 L1328.66844,255.254788 L1323.46311,279.466667 L1310.06578,279.466667 L1322.86578,219.022222 L1336.34844,219.022222 L1331.31378,242.552076 L1353.67111,242.552076 L1358.70578,219.022222 L1372.27378,219.022222 L1359.38844,279.466667 Z M1410.84444,279.466667 L1372.52978,279.466667 L1385.32978,219.022222 L1423.64444,219.022222 L1420.91378,231.724933 L1396.08178,231.724933 L1393.60711,243.234101 L1416.13511,243.234101 L1413.66044,255.084281 L1391.13244,255.084281 L1388.65778,266.678702 L1413.57511,266.678702 L1410.84444,279.466667 Z" id="THE-Copy-5" stroke="#FFFFFF" stroke-width="2" fill="none" fill-rule="nonzero"></path>
                                    <path d="M483.413333,440.250995 L466.517333,440.250995 L456.362667,487.822222 L442.88,487.822222 L452.949333,440.250995 L435.2,440.250995 L438.016,427.377778 L486.229333,427.377778 L483.413333,440.250995 Z M530.944,487.822222 L517.376,487.822222 L522.496,463.610343 L500.224,463.610343 L495.018667,487.822222 L481.621333,487.822222 L494.421333,427.377778 L507.904,427.377778 L502.869333,450.907632 L525.226667,450.907632 L530.261333,427.377778 L543.829333,427.377778 L530.944,487.822222 Z M582.4,487.822222 L544.085333,487.822222 L556.885333,427.377778 L595.2,427.377778 L592.469333,440.080489 L567.637333,440.080489 L565.162667,451.589657 L587.690667,451.589657 L585.216,463.439837 L562.688,463.439837 L560.213333,475.034258 L585.130667,475.034258 L582.4,487.822222 Z" id="THE-Copy-7" stroke="#FFFFFF" stroke-width="2" fill="none" fill-rule="nonzero"></path>
                                    <path d="M1514.52444,516.339884 L1497.62844,516.339884 L1487.47378,563.911111 L1473.99111,563.911111 L1484.06044,516.339884 L1466.31111,516.339884 L1469.12711,503.466667 L1517.34044,503.466667 L1514.52444,516.339884 Z M1562.05511,563.911111 L1548.48711,563.911111 L1553.60711,539.699232 L1531.33511,539.699232 L1526.12978,563.911111 L1512.73244,563.911111 L1525.53244,503.466667 L1539.01511,503.466667 L1533.98044,526.996521 L1556.33778,526.996521 L1561.37244,503.466667 L1574.94044,503.466667 L1562.05511,563.911111 Z M1613.51111,563.911111 L1575.19644,563.911111 L1587.99644,503.466667 L1626.31111,503.466667 L1623.58044,516.169378 L1598.74844,516.169378 L1596.27378,527.678546 L1618.80178,527.678546 L1616.32711,539.528726 L1593.79911,539.528726 L1591.32444,551.123147 L1616.24178,551.123147 L1613.51111,563.911111 Z" id="THE-Copy-8" stroke="#FFFFFF" stroke-width="2" fill="none" fill-rule="nonzero"></path>
                                    <path d="M1514.52444,83.9843285 L1497.62844,83.9843285 L1487.47378,131.555556 L1473.99111,131.555556 L1484.06044,83.9843285 L1466.31111,83.9843285 L1469.12711,71.1111111 L1517.34044,71.1111111 L1514.52444,83.9843285 Z M1562.05511,131.555556 L1548.48711,131.555556 L1553.60711,107.343677 L1531.33511,107.343677 L1526.12978,131.555556 L1512.73244,131.555556 L1525.53244,71.1111111 L1539.01511,71.1111111 L1533.98044,94.6409654 L1556.33778,94.6409654 L1561.37244,71.1111111 L1574.94044,71.1111111 L1562.05511,131.555556 Z M1613.51111,131.555556 L1575.19644,131.555556 L1587.99644,71.1111111 L1626.31111,71.1111111 L1623.58044,83.8138223 L1598.74844,83.8138223 L1596.27378,95.3229901 L1618.80178,95.3229901 L1616.32711,107.17317 L1593.79911,107.17317 L1591.32444,118.767591 L1616.24178,118.767591 L1613.51111,131.555556 Z" id="THE-Copy-6" stroke="#FFFFFF" stroke-width="2" fill="none" fill-rule="nonzero"></path>
                                    <path d="M894.374295,418.844444 L881.093065,418.844444 L865.087481,379.201755 L856.659008,418.844444 L843.377778,418.844444 L856.148191,358.4 L871.472687,358.4 L885.945822,395.229337 L893.778343,358.4 L907.229845,358.4 L894.374295,418.844444 Z M945.711357,418.844444 L907.485253,418.844444 L920.255666,358.4 L958.48177,358.4 L955.757415,371.102711 L930.982814,371.102711 L928.513867,382.611879 L950.989794,382.611879 L948.520848,394.462059 L926.04492,394.462059 L923.575974,406.05648 L948.435712,406.05648 L945.711357,418.844444 Z M983.0861,400.25927 L968.017012,418.844444 L950.904658,418.844444 L977.467118,388.238583 L963.675072,358.4 L979.254976,358.4 L987.172632,377.070428 L1002.32686,358.4 L1019.35407,358.4 L992.87675,389.005861 L1006.75393,418.844444 L991.003756,418.844444 L983.0861,400.25927 Z M1047.14619,358.4 L1033.28348,372.009618 L1019.96089,372.021283 L1022.78838,358.417497 L1047.14619,358.4 Z M1047.14619,358.419177 L1070.93333,358.4 L1068.15478,372.012112 L1055.7985,372.021283 L1047.14619,358.419177 Z M1037.89902,372.021283 L1051.62538,372.021283 L1041.48484,418.835828 L1027.83824,418.844444 L1037.89902,372.021283 Z" id="Combined-Shape" stroke="none" fill="#FC4422" fill-rule="nonzero"></path>
                                    <path d="M982.971567,489.244444 L943.644444,489.244444 L956.524507,428.8 L970.091505,428.8 L959.873323,476.371227 L985.719314,476.371227 L982.971567,489.244444 Z M1029.43378,489.244444 L991.255481,489.244444 L1004.00992,428.8 L1042.18822,428.8 L1039.46727,441.502711 L1014.72365,441.502711 L1012.25779,453.011879 L1034.70561,453.011879 L1032.23975,464.862059 L1009.79194,464.862059 L1007.32608,476.45648 L1032.15472,476.45648 L1029.43378,489.244444 Z M1061.29656,428.8 L1066.69004,471.597054 L1089.89057,428.8 L1105.30052,428.8 L1070.3713,489.244444 L1056.41674,489.244444 L1047.17077,428.8 L1061.29656,428.8 Z M1137.94265,489.244444 L1099.76435,489.244444 L1112.5188,428.8 L1150.69709,428.8 L1147.97614,441.502711 L1123.23253,441.502711 L1120.76667,453.011879 L1143.21449,453.011879 L1140.74863,464.862059 L1118.30081,464.862059 L1115.83495,476.45648 L1140.6636,476.45648 L1137.94265,489.244444 Z M1188.36336,489.244444 L1149.03624,489.244444 L1161.9163,428.8 L1175.4833,428.8 L1165.26512,476.371227 L1191.11111,476.371227 L1188.36336,489.244444 Z" id="LEVEL" stroke="none" fill="#FC4422" fill-rule="nonzero"></path>
                                    <path d="M545.21874,418.844444 L531.93751,418.844444 L515.931925,379.201755 L507.503452,418.844444 L494.222222,418.844444 L506.992636,358.4 L522.317132,358.4 L536.790267,395.229337 L544.622787,358.4 L558.074289,358.4 L545.21874,418.844444 Z M596.555801,418.844444 L558.329697,418.844444 L571.100111,358.4 L609.326215,358.4 L606.60186,371.102711 L581.827258,371.102711 L579.358311,382.611879 L601.834239,382.611879 L599.365292,394.462059 L576.889365,394.462059 L574.420418,406.05648 L599.280156,406.05648 L596.555801,418.844444 Z M633.930545,400.25927 L618.861457,418.844444 L601.749103,418.844444 L628.311563,388.238583 L614.519516,358.4 L630.099421,358.4 L638.017077,377.070428 L653.171301,358.4 L670.198519,358.4 L643.721195,389.005861 L657.598377,418.844444 L641.848201,418.844444 L633.930545,400.25927 Z M697.990637,358.4 L684.127922,372.009618 L670.805333,372.021283 L673.632823,358.417497 L697.990637,358.4 Z M697.990637,358.419177 L721.777778,358.4 L718.999221,372.012112 L706.64294,372.021283 L697.990637,358.419177 Z M687.662442,372.021283 L701.3888,372.021283 L691.248263,418.835828 L677.601659,418.844444 L687.662442,372.021283 Z" id="Combined-Shape-Copy-4" stroke="#FFFFFF" stroke-width="2" fill="none" fill-rule="nonzero"></path>
                                    <path d="M430.729851,131.555556 L417.448621,131.555556 L401.443036,91.9128663 L393.014563,131.555556 L379.733333,131.555556 L392.503747,71.1111111 L407.828243,71.1111111 L422.301378,107.940448 L430.133898,71.1111111 L443.5854,71.1111111 L430.729851,131.555556 Z M482.066913,131.555556 L443.840808,131.555556 L456.611222,71.1111111 L494.837326,71.1111111 L492.112971,83.8138223 L467.338369,83.8138223 L464.869422,95.3229901 L487.34535,95.3229901 L484.876403,107.17317 L462.400476,107.17317 L459.931529,118.767591 L484.791267,118.767591 L482.066913,131.555556 Z M519.441656,112.970381 L504.372568,131.555556 L487.260214,131.555556 L513.822674,100.949694 L500.030627,71.1111111 L515.610532,71.1111111 L523.528188,89.7815389 L538.682412,71.1111111 L555.70963,71.1111111 L529.232306,101.716972 L543.109488,131.555556 L527.359312,131.555556 L519.441656,112.970381 Z M583.501748,71.1111111 L569.639033,84.7207295 L556.316444,84.7323944 L559.143934,71.1286085 L583.501748,71.1111111 Z M583.501748,71.1302878 L607.288889,71.1111111 L604.510332,84.7232229 L592.154051,84.7323944 L583.501748,71.1302878 Z M573.891394,84.7323944 L587.617752,84.7323944 L577.477215,131.546939 L563.830611,131.555556 L573.891394,84.7323944 Z" id="Combined-Shape-Copy-5" stroke="#FFFFFF" stroke-width="2" fill="none" fill-rule="nonzero"></path>
                                    <path d="M422.907629,565.333333 L409.626399,565.333333 L393.620814,525.690644 L385.192341,565.333333 L371.911111,565.333333 L384.681524,504.888889 L400.006021,504.888889 L414.479156,541.718226 L422.311676,504.888889 L435.763178,504.888889 L422.907629,565.333333 Z M474.24469,565.333333 L436.018586,565.333333 L448.789,504.888889 L487.015104,504.888889 L484.290749,517.5916 L459.516147,517.5916 L457.0472,529.100768 L479.523128,529.100768 L477.054181,540.950948 L454.578254,540.950948 L452.109307,552.545369 L476.969045,552.545369 L474.24469,565.333333 Z M511.619433,546.748159 L496.550346,565.333333 L479.437992,565.333333 L506.000452,534.727472 L492.208405,504.888889 L507.788309,504.888889 L515.705966,523.559317 L530.86019,504.888889 L547.887407,504.888889 L521.410084,535.49475 L535.287266,565.333333 L519.53709,565.333333 L511.619433,546.748159 Z M575.679526,504.888889 L561.816811,518.498507 L548.494222,518.510172 L551.321712,504.906386 L575.679526,504.888889 Z M575.679526,504.908066 L599.466667,504.888889 L596.68811,518.501001 L584.331829,518.510172 L575.679526,504.908066 Z M566.069172,518.510172 L579.79553,518.510172 L569.654992,565.324717 L556.008389,565.333333 L566.069172,518.510172 Z" id="Combined-Shape-Copy-6" stroke="#FFFFFF" stroke-width="2" fill="none" fill-rule="nonzero"></path>
                                    <path d="M1334.55207,350.577778 L1321.27084,350.577778 L1305.26526,310.935089 L1296.83679,350.577778 L1283.55556,350.577778 L1296.32597,290.133333 L1311.65046,290.133333 L1326.1236,326.96267 L1333.95612,290.133333 L1347.40762,290.133333 L1334.55207,350.577778 Z M1385.88913,350.577778 L1347.66303,350.577778 L1360.43344,290.133333 L1398.65955,290.133333 L1395.93519,302.836045 L1371.16059,302.836045 L1368.69164,314.345212 L1391.16757,314.345212 L1388.69863,326.195393 L1366.2227,326.195393 L1363.75375,337.789814 L1388.61349,337.789814 L1385.88913,350.577778 Z M1423.26388,331.992603 L1408.19479,350.577778 L1391.08244,350.577778 L1417.6449,319.971917 L1403.85285,290.133333 L1419.43275,290.133333 L1427.35041,308.803761 L1442.50463,290.133333 L1459.53185,290.133333 L1433.05453,320.739194 L1446.93171,350.577778 L1431.18153,350.577778 L1423.26388,331.992603 Z M1487.32397,290.133333 L1473.46126,303.742952 L1460.13867,303.754617 L1462.96616,290.150831 L1487.32397,290.133333 Z M1487.32397,290.15251 L1511.11111,290.133333 L1508.33255,303.745445 L1495.97627,303.754617 L1487.32397,290.15251 Z M1476.99578,303.754617 L1490.72213,303.754617 L1480.5816,350.569161 L1466.93499,350.577778 L1476.99578,303.754617 Z" id="Combined-Shape-Copy-7" stroke="#FFFFFF" stroke-width="2" fill="none" fill-rule="nonzero"></path>
                                    <path d="M659.707629,487.822222 L646.426399,487.822222 L630.420814,448.179533 L621.992341,487.822222 L608.711111,487.822222 L621.481524,427.377778 L636.806021,427.377778 L651.279156,464.207115 L659.111676,427.377778 L672.563178,427.377778 L659.707629,487.822222 Z M711.04469,487.822222 L672.818586,487.822222 L685.589,427.377778 L723.815104,427.377778 L721.090749,440.080489 L696.316147,440.080489 L693.8472,451.589657 L716.323128,451.589657 L713.854181,463.439837 L691.378254,463.439837 L688.909307,475.034258 L713.769045,475.034258 L711.04469,487.822222 Z M748.419433,469.237047 L733.350346,487.822222 L716.237992,487.822222 L742.800452,457.216361 L729.008405,427.377778 L744.588309,427.377778 L752.505966,446.048206 L767.66019,427.377778 L784.687407,427.377778 L758.210084,457.983639 L772.087266,487.822222 L756.33709,487.822222 L748.419433,469.237047 Z M812.479526,427.377778 L798.616811,440.987396 L785.294222,440.999061 L788.121712,427.395275 L812.479526,427.377778 Z M812.479526,427.396954 L836.266667,427.377778 L833.48811,440.98989 L821.131829,440.999061 L812.479526,427.396954 Z M802.151331,440.999061 L815.877689,440.999061 L805.737152,487.813606 L792.090548,487.822222 L802.151331,440.999061 Z" id="Combined-Shape-Copy-9" stroke="#FFFFFF" stroke-width="2" fill="none" fill-rule="nonzero"></path>
                                    <path d="M1489.5743,278.044444 L1476.29307,278.044444 L1460.28748,238.401755 L1451.85901,278.044444 L1438.57778,278.044444 L1451.34819,217.6 L1466.67269,217.6 L1481.14582,254.429337 L1488.97834,217.6 L1502.42984,217.6 L1489.5743,278.044444 Z M1540.91136,278.044444 L1502.68525,278.044444 L1515.45567,217.6 L1553.68177,217.6 L1550.95742,230.302711 L1526.18281,230.302711 L1523.71387,241.811879 L1546.18979,241.811879 L1543.72085,253.662059 L1521.24492,253.662059 L1518.77597,265.25648 L1543.63571,265.25648 L1540.91136,278.044444 Z M1578.2861,259.45927 L1563.21701,278.044444 L1546.10466,278.044444 L1572.66712,247.438583 L1558.87507,217.6 L1574.45498,217.6 L1582.37263,236.270428 L1597.52686,217.6 L1614.55407,217.6 L1588.07675,248.205861 L1601.95393,278.044444 L1586.20376,278.044444 L1578.2861,259.45927 Z M1642.34619,217.6 L1628.48348,231.209618 L1615.16089,231.221283 L1617.98838,217.617497 L1642.34619,217.6 Z M1642.34619,217.619177 L1666.13333,217.6 L1663.35478,231.212112 L1650.9985,231.221283 L1642.34619,217.619177 Z M1632.018,231.221283 L1645.74436,231.221283 L1635.60382,278.035828 L1621.95721,278.044444 L1632.018,231.221283 Z" id="Combined-Shape-Copy-8" stroke="#FFFFFF" stroke-width="2" fill="none" fill-rule="nonzero"></path>
                                    <path d="M657.762815,131.555556 L618.666667,131.555556 L631.471082,71.1111111 L644.958399,71.1111111 L634.80023,118.682338 L660.494423,118.682338 L657.762815,131.555556 Z M704.712338,131.555556 L666.384454,131.555556 L679.18887,71.1111111 L717.516753,71.1111111 L714.785144,83.8138223 L689.944579,83.8138223 L687.469058,95.3229901 L710.004829,95.3229901 L707.529309,107.17317 L684.993538,107.17317 L682.518018,118.767591 L707.443946,118.767591 L704.712338,131.555556 Z M736.296562,71.1111111 L741.674416,113.908165 L764.807727,71.1111111 L780.173025,71.1111111 L745.345016,131.555556 L731.430884,131.555556 L722.211705,71.1111111 L736.296562,71.1111111 Z M813.037691,131.555556 L774.709808,131.555556 L787.514223,71.1111111 L825.842106,71.1111111 L823.110498,83.8138223 L798.269932,83.8138223 L795.794412,95.3229901 L818.330183,95.3229901 L815.854663,107.17317 L793.318892,107.17317 L790.843371,118.767591 L815.7693,118.767591 L813.037691,131.555556 Z M863.401725,131.555556 L824.305577,131.555556 L837.109992,71.1111111 L850.597309,71.1111111 L840.43914,118.682338 L866.133333,118.682338 L863.401725,131.555556 Z" id="LEVEL" stroke="#FFFFFF" stroke-width="2" fill="none" fill-rule="nonzero"></path>
                                    <path d="M648.51837,564.622222 L609.422222,564.622222 L622.226638,504.177778 L635.713955,504.177778 L625.555786,551.749005 L651.249979,551.749005 L648.51837,564.622222 Z M695.467893,564.622222 L657.14001,564.622222 L669.944425,504.177778 L708.272308,504.177778 L705.5407,516.880489 L680.700134,516.880489 L678.224614,528.389657 L700.760385,528.389657 L698.284865,540.239837 L675.749094,540.239837 L673.273573,551.834258 L698.199502,551.834258 L695.467893,564.622222 Z M727.052118,504.177778 L732.429972,546.974832 L755.563282,504.177778 L770.928581,504.177778 L736.100571,564.622222 L722.18644,564.622222 L712.967261,504.177778 L727.052118,504.177778 Z M803.793247,564.622222 L765.465364,564.622222 L778.269779,504.177778 L816.597662,504.177778 L813.866053,516.880489 L789.025488,516.880489 L786.549967,528.389657 L809.085738,528.389657 L806.610218,540.239837 L784.074447,540.239837 L781.598927,551.834258 L806.524855,551.834258 L803.793247,564.622222 Z M854.15728,564.622222 L815.061132,564.622222 L827.865548,504.177778 L841.352865,504.177778 L831.194695,551.749005 L856.888889,551.749005 L854.15728,564.622222 Z" id="LEVEL-Copy" stroke="#FFFFFF" stroke-width="2" fill="none" fill-rule="nonzero"></path>
                                    <path d="M490.651704,207.644444 L451.555556,207.644444 L464.359971,147.2 L477.847288,147.2 L467.689119,194.771227 L493.383312,194.771227 L490.651704,207.644444 Z M537.601226,207.644444 L499.273343,207.644444 L512.077759,147.2 L550.405642,147.2 L547.674033,159.902711 L522.833467,159.902711 L520.357947,171.411879 L542.893718,171.411879 L540.418198,183.262059 L517.882427,183.262059 L515.406907,194.85648 L540.332835,194.85648 L537.601226,207.644444 Z M569.185451,147.2 L574.563305,189.997054 L597.696616,147.2 L613.061914,147.2 L578.233904,207.644444 L564.319773,207.644444 L555.100594,147.2 L569.185451,147.2 Z M645.92658,207.644444 L607.598697,207.644444 L620.403112,147.2 L658.730995,147.2 L655.999387,159.902711 L631.158821,159.902711 L628.683301,171.411879 L651.219072,171.411879 L648.743551,183.262059 L626.20778,183.262059 L623.73226,194.85648 L648.658189,194.85648 L645.92658,207.644444 Z M696.290614,207.644444 L657.194466,207.644444 L669.998881,147.2 L683.486198,147.2 L673.328029,194.771227 L699.022222,194.771227 L696.290614,207.644444 Z" id="LEVEL-Copy-4" stroke="#FFFFFF" stroke-width="2" fill="none" fill-rule="nonzero"></path>
                                    <path d="M1436.42948,207.644444 L1397.33333,207.644444 L1410.13775,147.2 L1423.62507,147.2 L1413.4669,194.771227 L1439.16109,194.771227 L1436.42948,207.644444 Z M1483.379,207.644444 L1445.05112,207.644444 L1457.85554,147.2 L1496.18342,147.2 L1493.45181,159.902711 L1468.61125,159.902711 L1466.13572,171.411879 L1488.6715,171.411879 L1486.19598,183.262059 L1463.6602,183.262059 L1461.18468,194.85648 L1486.11061,194.85648 L1483.379,207.644444 Z M1514.96323,147.2 L1520.34108,189.997054 L1543.47439,147.2 L1558.83969,147.2 L1524.01168,207.644444 L1510.09755,207.644444 L1500.87837,147.2 L1514.96323,147.2 Z M1591.70436,207.644444 L1553.37647,207.644444 L1566.18089,147.2 L1604.50877,147.2 L1601.77716,159.902711 L1576.9366,159.902711 L1574.46108,171.411879 L1596.99685,171.411879 L1594.52133,183.262059 L1571.98556,183.262059 L1569.51004,194.85648 L1594.43597,194.85648 L1591.70436,207.644444 Z M1642.06839,207.644444 L1602.97224,207.644444 L1615.77666,147.2 L1629.26398,147.2 L1619.10581,194.771227 L1644.8,194.771227 L1642.06839,207.644444 Z" id="LEVEL-Copy-5" stroke="#FFFFFF" stroke-width="2" fill="none" fill-rule="nonzero"></path>
                                </g>
                            </g>
                        </g>
                    </g>
                </g>
            </g>
        </g>
    </g>
</svg>