<svg id="Layer_2" data-name="Layer 2" xmlns="http://www.w3.org/2000/svg" viewBox="0 0 337.52 50.63"><defs><style>.cls-1{fill:#fff;}</style></defs><title>HM Gov logo for header in white</title><rect class="cls-1" width="3.99" height="50"/><path class="cls-1" d="M167.48,59.65h3.36V70.5h13.28V59.65h3.36V84.88h-3.36V73.33H170.84V84.88h-3.36Z" transform="translate(-77.43 -47.43)"/><path class="cls-1" d="M192.13,59.65h4.59l7.95,21.2,8-21.2h4.59V84.88h-3.18v-21H214l-7.88,21h-2.86l-7.88-21h-.07v21h-3.18Z" transform="translate(-77.43 -47.43)"/><path class="cls-1" d="M250.82,81.74a9.86,9.86,0,0,1-8.09,3.74c-7.52,0-12-6.15-12-12.72,0-7.35,4-13.71,12-13.71,5.51,0,9.9,2.47,10.85,8.37h-3.36c-.67-3.81-3.74-5.54-7.49-5.54-6.11,0-8.66,5.3-8.66,10.7s3,10.08,8.66,10.08c5.2,0,8.31-3.64,8.09-8.24h-8V71.59h11.06V84.88h-2.12Z" transform="translate(-77.43 -47.43)"/><path class="cls-1" d="M265.57,66.19c5.79,0,8.87,4.2,8.87,9.57s-3.08,9.54-8.87,9.54-8.87-4.2-8.87-9.54S259.77,66.19,265.57,66.19Zm0,16.47c3.14,0,5.69-2.48,5.69-6.9s-2.55-6.92-5.69-6.92-5.69,2.47-5.69,6.92S262.42,82.66,265.57,82.66Z" transform="translate(-77.43 -47.43)"/><path class="cls-1" d="M284.66,84.88h-3.21l-6.79-18.27H278l5.12,15.23h.07l5-15.23h3.14Z" transform="translate(-77.43 -47.43)"/><path class="cls-1" d="M308.12,79.09c-.81,4-3.71,6.21-7.81,6.21-5.83,0-8.59-4-8.76-9.61,0-5.47,3.6-9.5,8.58-9.5,6.47,0,8.45,6,8.27,10.46H294.73c-.11,3.18,1.69,6,5.69,6a4.41,4.41,0,0,0,4.73-3.57ZM305.22,74A5.26,5.26,0,0,0,300,68.84c-3.15,0-5,2.37-5.23,5.16Z" transform="translate(-77.43 -47.43)"/><path class="cls-1" d="M310.82,66.61h2.83v3.85h.07c1.45-2.93,3.46-4.38,6.71-4.27v3.18c-4.84,0-6.6,2.75-6.6,7.38v8.13h-3Z" transform="translate(-77.43 -47.43)"/><path class="cls-1" d="M322.09,66.61h2.83v2.9H325a6.36,6.36,0,0,1,5.94-3.32c4.8,0,6.29,2.75,6.29,6.68v12h-3V72.51a3.44,3.44,0,0,0-3.71-3.67c-3.64,0-5.4,2.44-5.4,5.72V84.88h-3Z" transform="translate(-77.43 -47.43)"/><path class="cls-1" d="M340.85,66.61h2.82V69.3h.08a6.73,6.73,0,0,1,5.9-3.11c2.22,0,4.27.88,5,3.11a6.76,6.76,0,0,1,5.73-3.11c3.64,0,6.08,1.52,6.08,5.3V84.88h-3v-12c0-2.26-.6-4.06-3.53-4.06a4.42,4.42,0,0,0-4.77,4.66V84.88h-3v-12c0-2.37-.75-4.06-3.43-4.06a4.93,4.93,0,0,0-4.88,4.66V84.88h-3Z" transform="translate(-77.43 -47.43)"/><path class="cls-1" d="M385.72,79.09c-.81,4-3.71,6.21-7.81,6.21-5.83,0-8.59-4-8.77-9.61,0-5.47,3.61-9.5,8.59-9.5,6.47,0,8.45,6,8.27,10.46H372.33c-.11,3.18,1.69,6,5.68,6,2.48,0,4.21-1.21,4.74-3.57ZM382.82,74a5.26,5.26,0,0,0-5.26-5.16c-3.15,0-5,2.37-5.23,5.16Z" transform="translate(-77.43 -47.43)"/><path class="cls-1" d="M388.47,66.61h2.83v2.9h.07a6.35,6.35,0,0,1,5.93-3.32c4.81,0,6.29,2.75,6.29,6.68v12h-3V72.51a3.44,3.44,0,0,0-3.71-3.67c-3.64,0-5.41,2.44-5.41,5.72V84.88h-3Z" transform="translate(-77.43 -47.43)"/><path class="cls-1" d="M411.31,66.61H415v2.65h-3.64V80.61c0,1.37.39,1.62,2.26,1.62H415v2.65h-2.3c-3.11,0-4.34-.63-4.34-4V69.26H405.2V66.61h3.11V61.13h3Z" transform="translate(-77.43 -47.43)"/><path class="cls-1" d="M120,56c-.29.54-.53.86-.5,1.28s.48.72.69,1.14c.19-.49.51-.86.47-1.25s-.57-.89-.66-1.17" transform="translate(-77.43 -47.43)"/><path class="cls-1" d="M127.34,56c.28.54.53.86.49,1.28s-.48.72-.69,1.14c-.19-.49-.51-.86-.47-1.25s.57-.89.67-1.17" transform="translate(-77.43 -47.43)"/><path class="cls-1" d="M115.81,55.7a.5.5,0,1,0-.5-.49.49.49,0,0,0,.5.49" transform="translate(-77.43 -47.43)"/><path class="cls-1" d="M116.14,56.41a.5.5,0,0,0-.5-.5.5.5,0,0,0,0,1,.5.5,0,0,0,.5-.49" transform="translate(-77.43 -47.43)"/><path class="cls-1" d="M116.38,57.61a.5.5,0,0,0-.5-.5.5.5,0,0,0,0,1,.5.5,0,0,0,.5-.49" transform="translate(-77.43 -47.43)"/><path class="cls-1" d="M118.54,53.34a.49.49,0,0,0,.5-.49.5.5,0,1,0-1,0,.49.49,0,0,0,.49.49" transform="translate(-77.43 -47.43)"/><path class="cls-1" d="M117.31,53.72a.5.5,0,1,0-.49-.49.49.49,0,0,0,.49.49" transform="translate(-77.43 -47.43)"/><path class="cls-1" d="M116.35,54.57a.5.5,0,1,0-.5-.49.49.49,0,0,0,.5.49" transform="translate(-77.43 -47.43)"/><path class="cls-1" d="M119.83,53.46a.49.49,0,0,0,.5-.49.5.5,0,1,0-1,0,.49.49,0,0,0,.49.49" transform="translate(-77.43 -47.43)"/><path class="cls-1" d="M121.06,53.82a.5.5,0,0,0,.49-.5.5.5,0,0,0-1,0,.5.5,0,0,0,.5.5" transform="translate(-77.43 -47.43)"/><path class="cls-1" d="M122.21,54.36a.5.5,0,1,0-.49-.5.5.5,0,0,0,.49.5" transform="translate(-77.43 -47.43)"/><path class="cls-1" d="M131,55.21a.49.49,0,0,0,.49.49.5.5,0,1,0,0-1,.49.49,0,0,0-.49.5" transform="translate(-77.43 -47.43)"/><path class="cls-1" d="M131.7,55.91a.5.5,0,1,0,.49.5.5.5,0,0,0-.49-.5" transform="translate(-77.43 -47.43)"/><path class="cls-1" d="M131.45,57.11a.5.5,0,1,0,.5.5.49.49,0,0,0-.5-.5" transform="translate(-77.43 -47.43)"/><path class="cls-1" d="M128.79,53.34a.49.49,0,0,0,.5-.49.5.5,0,1,0-1,0,.49.49,0,0,0,.49.49" transform="translate(-77.43 -47.43)"/><path class="cls-1" d="M130,53.72a.5.5,0,1,0-.49-.49.49.49,0,0,0,.49.49" transform="translate(-77.43 -47.43)"/><path class="cls-1" d="M131,54.57a.5.5,0,1,0,0-1,.5.5,0,0,0,0,1" transform="translate(-77.43 -47.43)"/><path class="cls-1" d="M127.5,53.46A.49.49,0,0,0,128,53a.5.5,0,1,0-1,0,.49.49,0,0,0,.49.49" transform="translate(-77.43 -47.43)"/><path class="cls-1" d="M126.28,53.82a.5.5,0,0,0,.49-.5.49.49,0,0,0-.49-.49.5.5,0,0,0-.5.49.51.51,0,0,0,.5.5" transform="translate(-77.43 -47.43)"/><path class="cls-1" d="M124.63,53.86a.5.5,0,1,0,.49-.49.49.49,0,0,0-.49.49" transform="translate(-77.43 -47.43)"/><path class="cls-1" d="M122.82,56.54h.56V54.42a2.14,2.14,0,0,1-.56-.17Z" transform="translate(-77.43 -47.43)"/><path class="cls-1" d="M124.51,54.25a2,2,0,0,1-.55.17v2.12h.55Z" transform="translate(-77.43 -47.43)"/><path class="cls-1" d="M123.35,51.91V50.66a1.52,1.52,0,0,0-1.21,1.25Z" transform="translate(-77.43 -47.43)"/><path class="cls-1" d="M124,51.91h1.21A1.56,1.56,0,0,0,124,50.66Z" transform="translate(-77.43 -47.43)"/><path class="cls-1" d="M122.15,52.52a1.56,1.56,0,0,0,3,0Z" transform="translate(-77.43 -47.43)"/><path class="cls-1" d="M124.52,50.46a1.74,1.74,0,0,1-.67-1.1,2,2,0,0,1,1.12.72V48.37a2,2,0,0,1-1.12.72,2.46,2.46,0,0,1,.64-1.22h-1.64a2.46,2.46,0,0,1,.64,1.22,2,2,0,0,1-1.12-.72v1.71a2,2,0,0,1,1.12-.72,1.74,1.74,0,0,1-.67,1.1Z" transform="translate(-77.43 -47.43)"/><path class="cls-1" d="M124.56,86a.61.61,0,1,1,.61-.61.6.6,0,0,1-.61.61m-2.91-.9a.67.67,0,0,1-.67-.67.67.67,0,1,1,.67.67m-1-3-.16-.13a.59.59,0,0,0-.83,0,3.24,3.24,0,0,0-.36.38l-.17.19.12.09c.31.26.36.54.27.7a.26.26,0,0,1-.16.13.9.9,0,0,1-.61-.15l-.13-.07-.07.12-.06.08-.08.13a1.18,1.18,0,0,0-.2.57.49.49,0,0,0,0,.12.56.56,0,0,0,.32.32l.07,0,.5.29a.89.89,0,0,1-.85,0,1.3,1.3,0,0,1-.7-.94,2.55,2.55,0,0,1,.47-1.31l0-.08,0-.07a3.51,3.51,0,0,1-.22-.43l.48.09.08,0,.06-.06a2.46,2.46,0,0,1,1.45-.86,1,1,0,0,1,.76.38,1.17,1.17,0,0,1,.29.59l-.28-.2m5.7,2.34a31.21,31.21,0,0,1-5.14-1.85v0A1.42,1.42,0,0,0,119.87,81a1.63,1.63,0,0,0-.48.09,8.19,8.19,0,0,1-.71-.73,8.45,8.45,0,0,1-1.53-2.66A10.09,10.09,0,0,1,116.7,76a1.6,1.6,0,0,1-1.62,1.19c0-.11,0-.36-.09-.39-.25.29-.64.59-1.52.28a13.73,13.73,0,0,0,.57,2,11.91,11.91,0,0,0,2.24,3.75,10.49,10.49,0,0,0,1,1,1.41,1.41,0,0,0,0,.2,1.56,1.56,0,0,0,.85,1.19,1.2,1.2,0,0,0,1.27-.14,14.33,14.33,0,0,0,2.76,1.07,12.65,12.65,0,0,0,3.17.5,5.64,5.64,0,0,0,2.75-1,6.56,6.56,0,0,0,1-.79l.11-.1a8.89,8.89,0,0,1-2.88-.34" transform="translate(-77.43 -47.43)"/><path class="cls-1" d="M125.9,90.74a.53.53,0,0,0-.41-.33c-.64,0-.39,1.68-1.15,1.68a.46.46,0,0,1-.51-.45c0-.24.17-.31.17-.5s-.15-.25-.31-.25-.32.07-.32.25.17.26.17.5a.46.46,0,0,1-.51.45c-.76,0-.51-1.68-1.14-1.68a.54.54,0,0,0-.42.33,1.49,1.49,0,0,1-.2-.66.74.74,0,0,1,.73-.73c.85,0,.65,1.16,1.06,1.16a.28.28,0,0,0,.31-.29c0-.33-.59-.64-.59-1.11s.43-.87.91-1.25c.47.38.9.78.9,1.25s-.59.78-.59,1.11a.28.28,0,0,0,.31.29c.41,0,.21-1.16,1.06-1.16a.74.74,0,0,1,.73.73,1.49,1.49,0,0,1-.2.66m-2.21,2.35a.42.42,0,0,1-.42-.42.42.42,0,0,1,.83,0,.42.42,0,0,1-.41.42M125.37,89a1,1,0,0,0-.31,0V87.2a12.87,12.87,0,0,1-2.73-.4v2.27a1.14,1.14,0,0,0-.33,0,1.07,1.07,0,0,0-1.06,1.06,2,2,0,0,0,.53,1.2c.12-.29.23-.52.4-.52s.17,1.61,1.12,1.66a.7.7,0,0,0,0,.25.75.75,0,1,0,1.49,0,.7.7,0,0,0-.05-.25c1,0,.79-1.66,1.11-1.66s.27.22.41.52a1.91,1.91,0,0,0,.53-1.2A1.07,1.07,0,0,0,125.37,89" transform="translate(-77.43 -47.43)"/><path class="cls-1" d="M147.24,91.26a.22.22,0,0,0-.25-.12c-2.18.64-4.88-1.17-7.5-2.91-2.2-1.47-4.28-2.85-6.06-2.85a3.72,3.72,0,0,0-1.76.41,3.15,3.15,0,0,0-1.38,1.61,10.08,10.08,0,0,1-.87,1.63,2.4,2.4,0,0,0-.52,1.25,1.35,1.35,0,0,0,.45,1,4.62,4.62,0,0,0,1.14.79l.34.16c.43.21.7.36.75.6a14.28,14.28,0,0,1-3.25.92,29.47,29.47,0,0,1-9.31,0,14.43,14.43,0,0,1-3.25-.92c0-.37.3-.51.78-.74l.34-.16a6.59,6.59,0,0,0,1.12-.7,1.22,1.22,0,0,0,.45-.92,2.4,2.4,0,0,0-.52-1.25,9.35,9.35,0,0,1-.87-1.63,3.16,3.16,0,0,0-1.39-1.61,3.65,3.65,0,0,0-1.75-.41c-1.78,0-3.86,1.38-6.06,2.85-2.62,1.75-5.33,3.55-7.51,2.91a.21.21,0,0,0-.24.13.19.19,0,0,0,.11.25A8.71,8.71,0,0,1,102,92.71a4.23,4.23,0,0,0,2.35,1.19,5.72,5.72,0,0,0,2.62-.78,25.51,25.51,0,0,0,2.67-1.68c1.72-1.17,3.5-2.39,5.19-2.52-.18.18-.35.33-.51.48a2,2,0,0,0-.93,1.61,3.62,3.62,0,0,0,.5,1.66c.09.18.19.38.29.61a7.43,7.43,0,0,1,.38,1.21c.05.2.1.42.17.69A2.58,2.58,0,0,0,116.32,97c1.43.73,3.91,1.1,7.36,1.1s5.92-.37,7.36-1.1a2.53,2.53,0,0,0,1.54-1.78l.18-.69a5.89,5.89,0,0,1,.38-1.21c.14-.31.27-.56.39-.78a2.91,2.91,0,0,0,.46-1.42,2.13,2.13,0,0,0-1-1.67c-.17-.14-.34-.31-.53-.5,1.7.14,3.47,1.35,5.2,2.53a28,28,0,0,0,2.67,1.68,5.69,5.69,0,0,0,2.62.78,4.19,4.19,0,0,0,2.35-1.2,9.59,9.59,0,0,1,1.81-1.19.21.21,0,0,0,.11-.25" transform="translate(-77.43 -47.43)"/><path class="cls-1" d="M124,74.33V66.15a6.1,6.1,0,0,1,2.46.63,7.13,7.13,0,0,1,2.26,1.78,8.64,8.64,0,0,1,1.53,2.66,9.25,9.25,0,0,1,.55,3.11Zm-.29-11.6A8.67,8.67,0,0,0,118.83,64c-.54-.32-.77-.63-.77-1,0-1.32,3.73-1.44,5.62-1.44h0c1.9,0,5.62.12,5.62,1.44,0,.37-.23.68-.77,1a8.67,8.67,0,0,0-4.85-1.31m-.12,11.6h-7a9.83,9.83,0,0,1,.56-3.11,8.64,8.64,0,0,1,1.53-2.66,7.21,7.21,0,0,1,2.25-1.78,6.25,6.25,0,0,1,2.63-.64Zm10.57-.52a2.87,2.87,0,0,1-.83-1c-.26-.53-1.34-2.66-1.51-3a1.26,1.26,0,0,1-.22-.63,1,1,0,0,1,.23-.57c.09-.11.32-.33.41-.47a1.47,1.47,0,0,1,.2-.26,10.45,10.45,0,0,0-1.32-1.77A10.66,10.66,0,0,0,129,64.35a1.56,1.56,0,0,0,.83-1.31,1.22,1.22,0,0,0-.43-.93,11.93,11.93,0,0,1,1.88-3.82l-1.4-.59a2.22,2.22,0,0,1,.31,1.58,1.75,1.75,0,0,1-.78-1.06,6.43,6.43,0,0,1-.52,1.53,1.29,1.29,0,0,1,1.14-.11,1.66,1.66,0,0,1-1.76.59c-.5-.12-1-.39-1-.77a.47.47,0,0,1,.49-.48c.31,0,.32.5.23.71.4-.23.82-1.4.19-1.58s-.94.54-1.11,1.06c-.09-.63-.35-1.23-.85-1.19s-.43,1.23-.21,1.54c0-.42.27-.65.46-.63s.4.13.36.51-.58.62-1.2.62a1.54,1.54,0,0,1-1.73-1.33,2.14,2.14,0,0,1,1.25.75,7.55,7.55,0,0,1,0-1.9,2,2,0,0,1-1.23.74A2.28,2.28,0,0,1,125,57H122.4a2.24,2.24,0,0,1,1,1.31,2,2,0,0,1-1.2-.74,7.55,7.55,0,0,1,0,1.9,2.14,2.14,0,0,1,1.22-.75A1.54,1.54,0,0,1,121.71,60c-.62,0-1.16-.24-1.2-.62s.19-.5.36-.51.42.21.46.63c.22-.31.43-1.5-.21-1.54s-.76.56-.85,1.19c-.16-.52-.61-1.19-1.11-1.06s-.21,1.35.19,1.58c-.09-.21-.07-.68.23-.71a.47.47,0,0,1,.49.48c0,.38-.47.65-1,.77a1.66,1.66,0,0,1-1.76-.59,1.29,1.29,0,0,1,1.16.11,6.91,6.91,0,0,1-.52-1.53,1.76,1.76,0,0,1-.79,1.07,2.19,2.19,0,0,1,.3-1.59l-1.4.59A12.21,12.21,0,0,1,118,62.12a1.21,1.21,0,0,0-.42.92,1.56,1.56,0,0,0,.83,1.31,10.39,10.39,0,0,0-2.11,1.83A11.88,11.88,0,0,0,114,69.9c.2.2,1,1.12,1.23,1.37a2.29,2.29,0,0,1,.57,1.22,1.81,1.81,0,0,0,.49,1.31,2.19,2.19,0,0,1,.27.94h7v7.57a1.06,1.06,0,0,0-.8.38c.81.32,1.57.61,2.34.85a2,2,0,0,1,.42-1.1s-1-.1-1.55-.13V74.74h6.8a9.77,9.77,0,0,1-.55,3,8.71,8.71,0,0,1-1.53,2.65,7.13,7.13,0,0,1-2.26,1.78c-.13.07-.13.17-.27.22a2.08,2.08,0,0,0-.33.62,2.42,2.42,0,0,0-.16.69c.32.09.49.15.8.22,2.39.6,3,.42,3.11.32h0a10.46,10.46,0,0,0,1.5-1.41,11.91,11.91,0,0,0,2.24-3.75,13.13,13.13,0,0,0,.81-4.59c0-.29,0-.38,0-.67" transform="translate(-77.43 -47.43)"/><path class="cls-1" d="M127.77,69.47a.22.22,0,0,0-.07.19.23.23,0,0,0,.21.14.41.41,0,0,0-.16.28.46.46,0,0,0,.32-.07.19.19,0,0,0,.07.23.19.19,0,0,0,.18,0,7.43,7.43,0,0,1,1,2.76.46.46,0,0,0-.25-.07.46.46,0,0,0,.14.32h-1.7a.21.21,0,0,0-.12-.23.2.2,0,0,0-.22.08.54.54,0,0,0-.14-.3.46.46,0,0,0-.13.3.21.21,0,0,0-.23-.08.22.22,0,0,0-.11.23h-1.46a.45.45,0,0,0,.11-.29.43.43,0,0,0-.29.11V70.71a.2.2,0,0,0,.23-.11.21.21,0,0,0-.08-.23.18.18,0,1,0,0-.26.23.23,0,0,0,.08-.24.21.21,0,0,0-.23-.11v-2a.39.39,0,0,0,.25.11.52.52,0,0,0-.07-.29,5.47,5.47,0,0,1,1.31.64,6.52,6.52,0,0,1,1.34,1.24M129.7,73c.11.08.08.27-.08.25a7.64,7.64,0,0,0-1.3-3.45s0,0,0,0a.43.43,0,0,0,.28-.36.44.44,0,0,0-.43.2l-.15-.2A6.43,6.43,0,0,0,126.56,68a5.39,5.39,0,0,0-1.64-.75.13.13,0,0,1,.25,0c0-.22-.16-.33-.27-.29a.2.2,0,0,0-.12.17.49.49,0,0,0-.31-.16.44.44,0,0,0,.1.33.17.17,0,0,0-.18.09.23.23,0,0,0,.23.31.13.13,0,0,1,.08-.24v2.66a.45.45,0,0,0-.45.12.44.44,0,0,0,.45.11v2.89a.13.13,0,0,1-.07-.25.24.24,0,0,0-.26.3.2.2,0,0,0,.22.11.46.46,0,0,0-.12.3.44.44,0,0,0,.31-.12.19.19,0,0,0,.11.22c.09,0,.29,0,.29-.25a.13.13,0,0,1-.25-.06h2a.45.45,0,0,0,.11.44.44.44,0,0,0,.12-.44h2.23a.13.13,0,0,1-.24.07.23.23,0,0,0,.3.25.18.18,0,0,0,.1-.22.5.5,0,0,0,.31.1.46.46,0,0,0-.13-.3.19.19,0,0,0,.22-.11c0-.1-.05-.29-.26-.29" transform="translate(-77.43 -47.43)"/><path class="cls-1" d="M128.51,72.26a.37.37,0,0,0,.18-.17.2.2,0,0,1-.19,0c.07,0,.15,0,.07-.12s-.14-.13-.22,0a.49.49,0,0,1-.62-.43.38.38,0,0,0,.19.16l.06,0h.07l.16,0h0v0a.23.23,0,0,0,.21-.21c0-.22-.19-.32-.43-.52l-.22-.2c-.08-.16,0-.3-.23-.6a1.16,1.16,0,0,0-.06-.26.74.74,0,0,0,.12.86c.23.25.71.49.69.7,0,0,0,.09-.12.11h-.11l-.1-.05a.64.64,0,0,1-.17-.13,4.85,4.85,0,0,1-.5-.62c-.23-.28-.12-.56-.09-.8s-.09-.66-.24-.77a.43.43,0,0,0,0-.23s-.11,0-.14,0-.06-.1-.11-.11-.1-.07-.11-.11-.08.1-.13.11a.28.28,0,0,0-.15,0,.16.16,0,0,1-.16.06c-.1,0-.09,0-.09.12s0,.11.07.13h0l.07.09,0-.09s.16,0,.18,0,0,.07,0,.08h-.2s0,.07,0,.11.06.08.17.06.29,0,.29,0-.27.23-.33.52a.53.53,0,0,1-.17-.16,1.06,1.06,0,0,0-.21-.25,1.12,1.12,0,0,0-.2-.17c-.1-.06-.1-.1-.1-.2s0-.17,0-.24a.31.31,0,0,0,0-.08.14.14,0,0,0-.13-.08s0,0,0,.08l0,0s0,0,0,.08v.06s0,0,0,0,0-.15-.1-.15h0v0c0-.06-.07-.11-.14,0l.06,0a.25.25,0,0,0,0,.07q0,.09.12.09h0a0,0,0,0,1,0,0s0,0,0,0-.16,0-.16,0v.05s0,.09,0,.13,0-.06,0-.07h0s0,0,0,0,0,0,.06,0h0l0,0s0,0,0,0-.06.13,0,.15a.09.09,0,0,1-.17-.06c-.09.15.07.25.2.2s0,.16,0,.16,0,0,0,0,0,0,0,0a.08.08,0,0,0,.06.09.06.06,0,0,1,0,0,.53.53,0,0,1,.06.1,1.05,1.05,0,0,0,.48.53,1.3,1.3,0,0,0-.34.32c-.08.08-.2.16-.27.12s0,0-.09-.08a.11.11,0,0,0-.09,0l0,0a.13.13,0,0,0-.15.05.09.09,0,0,1,.1,0v.05s0,.08.18.07,0,0,0,0a.08.08,0,0,1-.08,0c-.07,0-.1-.07-.15,0l0,0h0c-.06,0-.12.13-.05.18a.12.12,0,0,1,0-.09l0,0c0,.07.1.1.19,0s0,0,0,0-.08.17,0,.18h0c0,.08.12.1.17.08a.14.14,0,0,1-.1-.1h0c0-.06,0-.12,0-.16s0,0,0,0a.1.1,0,0,0,.15,0,.1.1,0,0,0,.05-.09c.11,0,.2-.08.27,0s0-.13.15-.16a.17.17,0,0,1,.19,0,.65.65,0,0,1,.11-.19c0,.43.56.42.7.67a1,1,0,0,0-.48-.09c-.14,0-.38.16-.41.32a.58.58,0,0,0,.25.45c-.17,0-.23,0-.38,0h0c-.13,0-.15-.22-.31-.16l0,0h0c-.06,0-.14.08-.13.14a.19.19,0,0,1,.1-.06v0s0,0,0,0H126s0,0,0,0-.19,0-.15.13a.08.08,0,0,0,0,0c0,.05,0,.1.12.07s-.05,0-.05-.06h0s0,0,0,0h0s0,0,0,0v0a.1.1,0,0,0,.16.06.1.1,0,0,1-.08,0h0a.11.11,0,0,0,0-.06s0,0,0,0h0s0,0,0,0a.1.1,0,0,0,.12,0s0,0,0,0l.07,0c0-.06,0-.11.16,0l.1-.07s.13,0,.17,0,0-.07,0-.14-.09-.11-.11-.24.25-.33.42-.29a1,1,0,0,0,.54.59c.19.07.27-.15.33-.12a.09.09,0,0,1,0,.06,1.21,1.21,0,0,1,0,.23s-.13,0-.2,0a.12.12,0,0,0-.08,0c-.06,0-.13.06-.12.13a.23.23,0,0,1,.11-.06v0a.1.1,0,0,0,.16.06s0,0,0,0-.13.11-.06.14l0,0c0,.06,0,.11.08.11s0,0,0-.1h0c.05,0,0-.1.09-.13h0c0,.06,0,.14,0,.16h.05c0,.05.07.08.15.05a.18.18,0,0,1-.07-.05l0-.06c0-.12-.08-.13-.08-.18s.13,0,.13-.15v0c.06,0,.12-.07.12-.12a.24.24,0,0,1-.15,0Z" transform="translate(-77.43 -47.43)"/><path class="cls-1" d="M122.17,76.05h-.09c-.11,0-.25,0-.26.19a.22.22,0,0,0,.23.24h.06s0,.07,0,.1c0,.21-.08.55-.15,1l-1-1.48a4.68,4.68,0,0,1,1.08-.41c.17,0,.21.08.17.42m-.4,2.59-1.63-2.35c.18-.05.36-.1.52-.16l1.23,1.76c0,.25-.08.5-.12.75m-.16,1-2.32-3.33h.21a2.17,2.17,0,0,0,.36,0L121.72,79c0,.26-.08.49-.11.68M119,76.38,121.53,80A3.62,3.62,0,0,1,119,76.38m3.79-.28h-.12V76a.64.64,0,0,0-.67-.71,11.1,11.1,0,0,1-2.2.5,3,3,0,0,1-1.32-.41l-.14.31a0,0,0,0,0,0,0,.27.27,0,0,0-.53,0,.26.26,0,0,0,.27.26.29.29,0,0,0,.2-.09l-.13.31.13.06a4.35,4.35,0,0,0,3.13,4.27c.31-.09.63,0,.63.3a.26.26,0,0,1-.29.3c-.13,0-.21-.07-.21-.16s.24,0,.27-.15,0-.19-.19-.19a.35.35,0,0,0-.37.34.46.46,0,0,0,.48.46.61.61,0,0,0,.65-.7c.11,0,.24,0,.27-.12l0-.33h-.11l.08-3.68h.09a.21.21,0,1,0,0-.42" transform="translate(-77.43 -47.43)"/><path class="cls-1" d="M120.91,68.34s0,0,0,0a.06.06,0,0,0,.06,0s0-.05-.05-.07.05,0,0,0,0,0-.06,0,0,0,0,0a0,0,0,0,1,0,0l.13.06s0,0,0,0,0,0,0,.05,0,0,0-.05,0,0,0,.05-.06,0-.08,0a0,0,0,0,0,0,.06s0,0,0,.07a.07.07,0,0,1-.09,0,.09.09,0,0,1,0-.11m.16-.34a.08.08,0,0,1-.11,0s0-.05,0-.11a.61.61,0,0,0,.14.07m.1.06.16.06c-.07,0-.06,0-.1,0s-.07-.06-.06-.1m-.36.09h0m1.52.55c.49,0,.74-.16.74-.31,0-.55-1.36-.21-1.36-.55a.22.22,0,0,1,.1-.15h0c.68-.06.69-.53,1.18-.63-.59-.08-.67.38-.92.4a.31.31,0,0,0,.17-.28c-.12.16-.39.17-.54.36a.12.12,0,0,0,0,.1.23.23,0,0,0-.14.2c0,.52,1.38.16,1.38.54,0,.13-.24.22-.62.22s-.49-.2-1-.07c0-.08.18-.25.11-.34a.12.12,0,0,0,.09-.1.24.24,0,0,0-.1,0s0-.05,0-.07,0-.06,0-.07a.46.46,0,0,0-.12-.09.25.25,0,0,0-.12,0H121s-.07,0-.07,0a.15.15,0,0,0-.1,0,.19.19,0,0,0,0,.15s-.1.13-.15.12,0,0,0,0-.06.16-.11.16l0,0a1.63,1.63,0,0,0-.07.31h0l-.12-.09c-.08,0-.07-.08-.06-.16s.06-.13.06-.19a.2.2,0,0,0,0-.07s-.07-.08-.1-.07a.08.08,0,0,1,0,.07l0,0a0,0,0,0,0,0,.07,0,0,0,0,1,0,0s0,0,0,0,0,0,0,0,0-.12-.07-.12h0c0-.06,0-.1-.12,0s0,0,0,0,0,0,0,0,0,.07.09.07h0v0s0,0,0,0-.14,0-.15,0v0s-.06.06,0,.1,0,0,0-.06h0l0,0s0,0,.06,0h0l0,0s0,0,0,0-.07.12,0,.13,0,0,0,0a.08.08,0,1,1-.16,0c-.11.12,0,.22.17.16s0,0,0,0,0,0,0,0a0,0,0,0,1,0,0,0,0,0,0,1,0,0,.06.06,0,0,0,0,.08s0,0,0,0,.06.09.13.17a1.44,1.44,0,0,1-.31.09.7.7,0,0,0-.24,0c-.08,0-.27.11-.33,0a.54.54,0,0,0,0-.1l-.06,0h0a.11.11,0,0,0-.13,0,.09.09,0,0,1,.07,0,.17.17,0,0,0,0,0s0,.06.12.1,0,0,0,0a0,0,0,0,1-.06,0s-.06-.09-.12,0h0s-.13.06-.1.12a.14.14,0,0,1,.07,0,.06.06,0,0,1,0,0c0,.06,0,.11.17,0s0,0,0,0-.12.11,0,.15l0,0a0,0,0,0,1,0,0,.11.11,0,0,0,.11.12.1.1,0,0,1,0-.1h0c.06,0,0-.1.06-.12s0,0,0,0a.1.1,0,0,0,.09.1.11.11,0,0,0,.1-.11h0a.07.07,0,0,1,0,.08.08.08,0,0,0,0,0,.1.1,0,0,1,0,.13.19.19,0,0,0,.12-.13l0,0h0a.27.27,0,0,0,.15,0h0a.08.08,0,0,0,0,.08l0,0s0,.07,0,.12c0-.19.11-.12.23-.19s0,0,0,0a.22.22,0,0,1,0,.06s.14,0,.14-.11,0,0,.08-.07a.13.13,0,0,0,.13-.06s0,.08,0,.09.24-.13.29-.14c.26,0-.16-.24.37-.21a.27.27,0,0,0,.16-.06c0,.08-.05.24,0,.26a.25.25,0,0,1,.13.06s0,0,0,0a.3.3,0,0,0-.12,0c-.12.08-.12-.19-.26-.14l0,0c-.06,0-.13.06-.12.12a.13.13,0,0,1,.09,0v0s0,0,0,0h.05s0,0,0,0-.16,0-.13.11l0,0s0,.09.1.06,0,0,0,0h0a0,0,0,0,0,0,0h0s0,0,0,0,0,0,0,0,0,0,0,0,.07.1.14,0-.07,0-.07,0l0,0a.06.06,0,0,0,0,0s0,0,0,0h0s0,0,0,0a.07.07,0,0,0,.1,0c.09,0,0-.11.09-.12a0,0,0,0,1,0,0c.07,0,.17,0,.19,0a.21.21,0,0,0-.06-.21c-.05,0,0-.07,0-.13a.62.62,0,0,0,.26.06c.19,0,0,0,.09-.08a.28.28,0,0,1,.23,0s0,0,0,0,0,.11,0,.16-.1,0-.16,0-.06,0-.06,0a.12.12,0,0,0-.1.11.19.19,0,0,1,.09,0v0a.07.07,0,0,0,.12,0s0,0,0,0-.11.09,0,.12h0a.1.1,0,0,0,.06.09s0,0,0-.08h0s0-.08.07-.11h0s0,.11,0,.13h0a.08.08,0,0,0,.12,0s0,0-.05,0,0,0,0,0-.06-.1-.06-.14.1,0,.1-.12a.09.09,0,0,0,0-.07h0s0,0,.07,0,0,0-.07-.09v0a.11.11,0,0,0,0-.11s-.1.07-.11,0,0,0-.08,0-.19-.05-.43-.07c0,0,0,0,0,0" transform="translate(-77.43 -47.43)"/><path class="cls-1" d="M120.09,71.32h0m-.4-.85s0-.06,0-.06.05,0,.06,0,0-.06-.06-.08.06,0,0,0-.06,0-.07,0,0,0,0,0h.05l.16.07s0,0,0,0,0,.05,0,.06,0,0,0-.06,0,0,0,.06-.08,0-.09,0,0,.05,0,.08,0,0,0,.08-.06.09-.11,0a.08.08,0,0,1,0-.12m.18-.39s-.08.08-.12,0,0-.06,0-.13a.71.71,0,0,0,.17.09m.11.06a1.21,1.21,0,0,0,.19.08c-.08,0-.06,0-.12,0s-.07-.08-.07-.13m-.77.7h0m3.8-.28c0-.15-.16-.25-.65-.25s-1.58.18-1.58-.09.21-.13.47-.11a.27.27,0,0,0,.11.06c.62.18,1.36-.15,1.74,0-.45-.34-.82,0-1.3-.1.28,0,.38-.07.39-.15-.21.14-.62-.07-.88.09l0,0c-.35,0-.63,0-.63.22,0,.48,1.31.2,1.72.2s.49,0,.49.12-.4.14-.63.14a10.35,10.35,0,0,0-2.07-.05c0-.11.17-.24.1-.32a.14.14,0,0,0,.1-.12.17.17,0,0,0-.11-.06s0-.06,0-.08,0-.08,0-.09a.48.48,0,0,0-.14-.09.27.27,0,0,0-.15,0s-.08,0-.08,0-.08,0-.09,0a.15.15,0,0,0-.11,0,.24.24,0,0,0,0,.17c-.06,0-.12.15-.18.13a.14.14,0,0,0,.06.07c0,.08-.07.19-.13.19s.06.07.08.07,0,.13,0,.19l-.1,0h0l0,0h0l-.06,0a1.37,1.37,0,0,0-.21-.18.17.17,0,0,1-.09-.2c0-.09,0-.17,0-.24s0-.06,0-.08a.12.12,0,0,0-.13-.08.08.08,0,0,1,.05.08s0,0,0,.05a.05.05,0,0,0,0,.08v0a.08.08,0,0,1,0,0s0,0,0,0,0-.15-.09-.15h0c0-.06-.06-.11-.14,0s0,0,.06,0a.25.25,0,0,0,0,.07c0,.06,0,.08.1.08s0,0,0,0v0h0c-.11,0-.16,0-.16,0v0s-.06.08,0,.13,0-.06,0-.07h0l0,0s0,0,.06,0a0,0,0,0,1,0,0l0,0s0,0,0,0-.07.14,0,.16,0,0,0,0-.19.11-.18,0c-.11.15.07.27.2.19h0a.07.07,0,0,0,0,0,0,0,0,0,1,0,0s0,0,0,0,0,.08.06.09a0,0,0,0,1,0,0s.09.1.19.16.16.14.22.08c0,.1.08.2.06.2a1.45,1.45,0,0,0-.35,0c-.09,0-.31.13-.38,0s0-.07,0-.12a.1.1,0,0,0-.08,0h0a.12.12,0,0,0-.15,0,.08.08,0,0,1,.08,0l0,0s0,.08.14.13a0,0,0,0,1,0,0,.06.06,0,0,1-.07,0c-.06,0-.07-.11-.14-.07l0,0h0c-.07,0-.16.07-.12.14a.11.11,0,0,1,.08-.06.1.1,0,0,0,0,0c0,.08,0,.13.19,0s0,0,0,0-.14.13-.06.17,0,0,0,0h0a.14.14,0,0,0,.13.15.17.17,0,0,1-.05-.13h0c.08,0,0-.11.08-.14s0,0,0,0,0,.12.11.11a.12.12,0,0,0,.11-.12s0,0,0,0a.08.08,0,0,1,0,.09.12.12,0,0,0,.06-.06.13.13,0,0,1,0,.15.23.23,0,0,0,.14-.15l0,0h0a.31.31,0,0,0,.17,0h0a.11.11,0,0,0,0,.08l0,0s0,.08,0,.13c0-.21.13-.13.27-.21s0,0,0,0a.13.13,0,0,1-.06.07c.15,0,.39-.2.42-.29a.37.37,0,0,1,.14,0c.43,0,.13-.39.82-.27,0,0,.13,0,.17-.07s-.06.27,0,.29a.33.33,0,0,1,.16.07s0,0,0,0l-.13,0c-.14.1-.15-.21-.3-.15l0,0c-.06,0-.14.07-.13.13a.16.16,0,0,1,.1,0v0s0,0,.06,0H121s0,0,0,0-.19,0-.16.13l0,0c0,.05,0,.1.12.07s-.05,0,0-.06h0s0,0,0,0,0,0,0,0,0,0,0,0,0,0,0,0,0,.05,0,.05.07.12.16.06-.08,0-.09,0l0,0a.08.08,0,0,0,0-.06s0,0,0,0h0s0,0,0,0a.1.1,0,0,0,.12,0c.1,0,0-.13.1-.15h.06c.08,0,.2,0,.22,0a.19.19,0,0,0-.07-.23s0-.09,0-.17a.71.71,0,0,0,.31.08.53.53,0,0,0,.38-.1.35.35,0,0,1,.26,0s.06,0,0,0,0,.13,0,.18-.11,0-.18,0a.06.06,0,0,0-.07,0s-.12.06-.11.12a.22.22,0,0,1,.1,0v0a.08.08,0,0,0,.14.06s0,0,0,0-.13.11-.06.13l0,0a.1.1,0,0,0,.07.1s0,0,0-.1h0s0-.1.08-.13,0,0,0,0,0,.13,0,.15h0a.1.1,0,0,0,.14,0,.15.15,0,0,1-.06,0l0-.06c0-.11-.07-.12-.07-.17s.12,0,.12-.13a.08.08,0,0,0,0-.08h0s.07,0,.08,0-.06-.06-.07-.11,0,0,0,0a.12.12,0,0,0,0-.13s-.13.09-.14,0,0-.07-.1,0a3.08,3.08,0,0,1-.53,0c.32,0,.79-.08.79-.26" transform="translate(-77.43 -47.43)"/><path class="cls-1" d="M119.13,72.63s0-.06.05-.06,0,0,.06,0,0,0-.06-.07,0,0,0,0-.06,0-.07,0,0,0,0,0,0,0,0,0l.15.07s0,0,0,0,0,0,0,0,0,0-.05,0,0,0,0,.06-.07,0-.09,0a.06.06,0,0,0,0,.07.08.08,0,0,1,0,.08s-.05.08-.1,0a.07.07,0,0,1,0-.11m.17-.38s-.07.08-.11,0,0-.05,0-.13a.54.54,0,0,0,.16.09m.11.06a.61.61,0,0,0,.18.07c-.08,0-.06.05-.11.05s-.08-.07-.07-.12m3.39.38c0-.14-.16-.23-.62-.23s-1.89.17-1.89-.09.48-.1.84-.09c0,0,.05,0,.1.06.6.17,1.22-.23,1.65-.08-.34-.31-.78,0-1.23-.06.27,0,.54-.06.56-.13-.21.13-.79-.09-1,.06a.08.08,0,0,0,0,0c-.44,0-1-.07-1,.2,0,.46,1.62.19,2,.19s.48,0,.48.11-.39.14-.61.14a11.25,11.25,0,0,0-2.48,0c0-.1.18-.25.11-.33s.1-.07.1-.12a.24.24,0,0,0-.11-.06s0,0,0-.07,0-.07,0-.08a1.36,1.36,0,0,0-.14-.1.31.31,0,0,0-.14,0s-.07,0-.08,0-.07,0-.08,0a.15.15,0,0,0-.1,0,.18.18,0,0,0,0,.16c-.06,0-.11.14-.16.13a.08.08,0,0,0,.05.06c-.05.08-.07.18-.12.18l0,.06a.59.59,0,0,0,0,.14l0,0h-.14c-.08,0-.13-.12-.25-.19s-.1-.1-.1-.2a1.81,1.81,0,0,0,0-.23.41.41,0,0,0,0-.07.12.12,0,0,0-.12-.08.15.15,0,0,1,0,.09s0,0,0,0a.06.06,0,0,0,0,.08s0,0,0,0a0,0,0,0,1,0,0s0,0,0,0,0-.14-.1-.14h0c0-.06-.07-.1-.14,0l.06,0,0,.06c0,.06.05.09.11.09h0v0h0c-.11,0-.15,0-.15,0s0,0,0,0,0,.09,0,.13,0-.06,0-.07h0l0,0s0,0,0,0h0l0,0s0,0,0,0-.06.14,0,.15,0,0,0,0-.18.11-.17,0c-.09.15.07.26.2.19s0,0,0,0,0,0,0,0,0,0,0,0h0s0,.08.06.09,0,0,0,0a1.38,1.38,0,0,0,.3.28s.09,0,.11-.06,0,0,0,0,.06.19,0,.19a1.7,1.7,0,0,0-.38,0c-.09,0-.3.12-.36,0s0,0-.05-.1a.13.13,0,0,0-.07-.06h0a.11.11,0,0,0-.14,0s0,0,.08,0l0,0s0,.08.13.12,0,0,0,0a.06.06,0,0,1-.07,0c0-.05-.06-.1-.12-.07l0,0h0c-.06,0-.15.07-.11.14a.12.12,0,0,1,.07-.07.11.11,0,0,1,0,0c0,.07,0,.12.19,0a0,0,0,0,1,0,0c0,.06-.13.12-.06.17l0,0v0a.12.12,0,0,0,.12.13.13.13,0,0,1,0-.12h0c.07,0,0-.11.08-.13s0,0,0,0,0,.11.1.1a.12.12,0,0,0,.11-.12h0s0,0,0,.08.05,0,.06,0a.12.12,0,0,1,0,.14.2.2,0,0,0,.13-.14l0,0h0a.34.34,0,0,0,.17,0s0,0,0,0a.17.17,0,0,0,0,.08s0,0,0,0,0,.08,0,.13c0-.2.26-.1.39-.19s0,0,0,0a.19.19,0,0,1-.06.07.38.38,0,0,0,.17-.07l0,0,.21-.09s0,0,0-.07h.06c.14,0,.12-.1.18-.09.75.1.32-.32,1.21-.24,0,0,.06,0,.1,0s0,.23,0,.25a.28.28,0,0,1,.15.06s0,0,0,0a.35.35,0,0,0-.13,0c-.13.09-.14-.21-.29-.15l0,0s-.13.07-.12.13a.2.2,0,0,1,.09-.06v0s0,0,.06,0h.06s0,0,0,0-.18,0-.15.13l0,0s0,.09.12.07-.05,0-.05-.06h0s0,0,0,0h0s0,0,0,0,0,0,0,0a.11.11,0,0,0,0,0c0,.06.07.11.16.06s-.08,0-.08,0l0,0s0,0,0,0,0,0,0,0h0s0,0,0,0a.08.08,0,0,0,.11,0c.1,0,0-.12.1-.14s0,0,.06,0,.19,0,.21,0a.22.22,0,0,0-.07-.23s0-.08,0-.15a.88.88,0,0,0,.29.07.52.52,0,0,0,.36-.09.35.35,0,0,1,.26,0s0,0,0,0,0,.12,0,.17-.12,0-.18,0a.1.1,0,0,0-.06,0,.14.14,0,0,0-.12.12l.1-.05v0a.08.08,0,0,0,.14.06s0,0,0,0-.12.11-.06.14l0,0a.11.11,0,0,0,.07.1.09.09,0,0,1,0-.09h0s0-.1.08-.12,0,0,0,0,0,.12,0,.13h0a.08.08,0,0,0,.12,0s0,0,0,0l0,0c0-.12-.06-.12-.06-.16s.11,0,.11-.14a.07.07,0,0,0,0-.07h0s.06,0,.08,0-.06-.06-.07-.11,0,0,0,0a.13.13,0,0,0,0-.12s-.12.08-.13,0,0-.06-.09,0a4,4,0,0,1-.5,0c.26,0,.75-.08.75-.25" transform="translate(-77.43 -47.43)"/><path class="cls-1" d="M126.37,76.42h0m-.69-1.08h0m0,.16h0Zm.12.21s0-.06,0-.06,0,0,.06,0,0-.06-.05-.08.05,0,0,0,0,0,0,0,0,0,0,0h.05l.15.07a.05.05,0,0,1,0,0s0,0,0,.05,0-.05,0-.05,0,0,0,.05-.07,0-.09,0a.06.06,0,0,0,0,.07s0,0,0,.08a.08.08,0,0,1-.1,0,.08.08,0,0,1,0-.12m.17-.37a.08.08,0,0,1-.12,0s0-.05,0-.12l.16.09m.11,0a1.05,1.05,0,0,0,.18.08c-.08,0-.06,0-.11,0s-.08-.07-.07-.12m3.34.87s0,0,0,0a.14.14,0,0,0,0-.13s-.12.09-.13,0,0-.06-.08,0a4.51,4.51,0,0,1-.54,0s0,0,0,0c.26,0,.75-.06.75-.23s-.16-.23-.62-.23-1.89.17-1.89-.09.48-.1.84-.09c0,0,0,.05.1.06.6.17,1.28-.27,1.64-.17-.47-.16-.77.12-1.22,0,.26,0,.55-.06.56-.13-.21.13-.79-.09-1,.06a.08.08,0,0,0,0,0c-.44,0-1-.06-1,.2,0,.46,1.62.19,2,.19s.48,0,.48.11-.39.14-.61.14a10.71,10.71,0,0,0-2.48,0c0-.11.18-.26.11-.34s.1-.07.1-.12a.16.16,0,0,0-.11,0s0-.06,0-.08a.26.26,0,0,0,0-.08.73.73,0,0,0-.14-.1.29.29,0,0,0-.14,0s-.07,0-.08,0-.07,0-.08,0a.21.21,0,0,0-.11,0,.21.21,0,0,0,0,.16c-.06,0-.11.14-.17.13a.11.11,0,0,0,.06.06c0,.08-.07.18-.12.18s.06.07.08.07,0,.1,0,.14l-.07,0h-.08l-.07,0c-.08,0-.13-.12-.26-.19s-.09-.1-.09-.2,0-.15,0-.22a.19.19,0,0,0,0-.07.13.13,0,0,0-.12-.09.15.15,0,0,1,0,.09l0,0a.06.06,0,0,0,0,.08h0a.06.06,0,0,1,0,0s0,0,0,0,0-.14-.09-.14h0v0c0-.05-.07-.1-.14,0a.07.07,0,0,1,.06,0s0,0,0,0,0,.09.11.09h0a0,0,0,0,0,0,0s0,0,0,0-.15,0-.15,0,0,0,0,0,0,.09,0,.13,0-.06,0-.07h0l0,0s0,0,.06,0h0l0,0s0,0,0,0-.06.14,0,.16,0,0,0,0-.18.1-.17,0c-.1.15.07.26.2.19s0,0,0,0,0,0,0,0a0,0,0,0,1,0,0h0s0,.08.06.09,0,0,0,0,.11.19.3.29l.12-.07a.1.1,0,0,0,.06.09l0,0c0,.09.09.18.08.18a.84.84,0,0,0-.27,0c-.08.05-.3.13-.36,0a1,1,0,0,0,0-.11.12.12,0,0,0-.06-.06h-.06a.12.12,0,0,0-.14,0,.08.08,0,0,1,.08.05l0,0s0,.08.13.12,0,0,0,0a.06.06,0,0,1-.08,0s-.06-.09-.12-.06l-.05,0h0c-.06,0-.15.07-.11.14a.12.12,0,0,1,.07-.07s0,0,0,0,0,.13.18,0h0c0,.06-.13.12-.05.17l0,0v0a.12.12,0,0,0,.12.13.17.17,0,0,1,0-.12h0c.06,0,0-.11.07-.13s0,0,0,0,0,.1.1.1.12-.07.11-.12h0a.08.08,0,0,1,0,.08s0,0,.06,0,0,.08,0,.14a.2.2,0,0,0,.13-.14.05.05,0,0,1,0,0h0a.31.31,0,0,0,.16,0,0,0,0,0,1,0,0s0,.07,0,.08,0,0,0,0,0,.08.05.13c0-.21.13-.12.25-.21s0,0,0,0a.19.19,0,0,1-.06.07s.23-.08.23-.16.08,0,.14,0,.11-.1.17-.09c.75.1.32-.32,1.21-.24,0,0,.06,0,.1-.08s0,.26,0,.28a.28.28,0,0,1,.15.06s0,0,0,0a.35.35,0,0,0-.13,0c-.13.09-.14-.21-.28-.15l0,0a.13.13,0,0,0-.12.13.2.2,0,0,1,.09-.06v0s0,0,.06,0h0s0,0,0,0-.18,0-.15.13l0,0s0,.09.11.07,0,0,0-.06h0s0,0,0,0h0s0,0,0,0,0,0,0,0,0,0,0,0,.07.12.15.06-.07,0-.08,0l0,0a.08.08,0,0,0,0,0s0,0,0,0h.07a.09.09,0,0,0,.11,0c.1,0,0-.12.1-.14s0,0,.06,0,.19,0,.21,0a.2.2,0,0,0-.07-.22s0-.09,0-.16a.88.88,0,0,0,.29.07.6.6,0,0,0,.38-.09.35.35,0,0,1,.26,0s0,0,0,.05,0,.12,0,.17-.11,0-.18,0a.1.1,0,0,0-.06,0,.14.14,0,0,0-.12.12.3.3,0,0,1,.1,0v0a.07.07,0,0,0,.13,0s0,0,0,0-.13.1-.06.13l0,0a.09.09,0,0,0,.06.1s0,0,0-.09h0s0-.1.09-.12h0s0,.12,0,.13,0,0,0,0a.09.09,0,0,0,.13,0s0,0,0,0,0,0,0,0-.06-.12-.05-.16.11,0,.12-.14a.07.07,0,0,0,0-.07h0s.06,0,.08,0,0-.07-.06-.11" transform="translate(-77.43 -47.43)"/><path class="cls-1" d="M126,77.56c-.05,0-.07-.07-.06-.12a.91.91,0,0,0,.17.08c-.08,0-.06,0-.11,0m-.08.1s0,0,0,0,0,0,0,0-.07,0-.08,0,0,0,0,.07,0,0,0,.07-.06.07-.1,0a.08.08,0,0,1,0-.11s0-.06,0-.06a0,0,0,0,0,.06,0s0,0,0-.07,0,0,0,0-.05,0-.06,0,0,0,0,0a0,0,0,0,1,0,0l.15.07s0,0,0,0,0,0,0,0m-.09-.27a.08.08,0,0,1-.11,0s0-.05,0-.12a.76.76,0,0,0,.15.08m1.44,0a.14.14,0,0,0,.1.08c.57.16,1.22-.27,1.56-.17-.44-.16-.72.11-1.16,0,.26,0,.52-.06.54-.13-.2.13-.75-.08-1,.07a.05.05,0,0,0,0,0c-.31,0-.57,0-.57.2,0,.44,1.18.18,1.56.18s.32,0,.32.11-.42.13-.63.13a9.89,9.89,0,0,0-1.87,0c0-.09.15-.22.09-.29a.11.11,0,0,0,.09-.11.24.24,0,0,0-.1,0s0,0,0-.08,0-.06,0-.07a.56.56,0,0,0-.13-.09l-.13,0s-.07,0-.08,0-.07,0-.08,0a.16.16,0,0,0-.1,0,.21.21,0,0,0,0,.16s-.11.14-.16.12,0,.06,0,.06-.06.17-.11.18l0,0a.45.45,0,0,0,0,.16l-.05,0h0a.41.41,0,0,1-.23-.06c-.09,0-.09-.1-.09-.19s0-.14,0-.21a.25.25,0,0,0,0-.07.12.12,0,0,0-.12-.08s0,0,0,.08l0,0a.05.05,0,0,0,0,.08,0,0,0,0,1,0,0s0,0,0,0h0c0-.06,0-.14-.09-.14h0c0-.06-.06-.1-.12,0s0,0,0,0l0,.06s0,.08.1.08,0,0,0,0v0s0,0,0,0-.14,0-.15,0a.11.11,0,0,0,0,.05s0,.07,0,.11,0,0,0-.06h0s0,0,0,0,0,0,.06,0,0,0,0,0l0,0v0c-.07.06-.06.13,0,.14s0,0,0,0-.17.1-.17,0c-.08.14.08.25.2.18s0,0,0,0,0,0,0,0a0,0,0,0,1,0,0,0,0,0,0,1,0,0s0,.08.06.08,0,0,0,0,0,0,.17,0a.09.09,0,0,0,.06.06l.11,0c0,.09,0,.22,0,.22a.78.78,0,0,0-.26,0c-.08,0-.28.12-.34,0a1,1,0,0,1,0-.1.1.1,0,0,0-.07,0h0a.12.12,0,0,0-.14,0s.06,0,.08,0l0,0s0,.07.12.12,0,0,0,0a.06.06,0,0,1-.07,0c-.05,0-.06-.09-.12-.06l0,0h0s-.14.07-.1.14,0-.06.07-.06a.06.06,0,0,1,0,0c0,.06,0,.12.18,0h0c0,.06-.12.12,0,.16l0,0v0a.11.11,0,0,0,.11.12.11.11,0,0,1,0-.11h0c.07,0,0-.1.07-.13s0,0,0,0a.1.1,0,0,0,.1.1.11.11,0,0,0,.1-.11s0,0,0,0a.09.09,0,0,1,0,.09l.06-.06a.13.13,0,0,1,0,.14.22.22,0,0,0,.12-.14l0,0h0a.23.23,0,0,0,.15,0s0,0,0,0,0,.07,0,.08,0,0,0,0,0,.08,0,.12c0-.19.18-.14.3-.22h0a.12.12,0,0,1,0,.07c.13.08.27-.1.3-.2s0,0,0,0,0,0,0,.06c.13,0,.11-.09.16-.09.39,0,.09-.32.71-.21a.3.3,0,0,0,.15-.07c0,.08,0,.25,0,.26l.15.06s0,0,0,0a.3.3,0,0,0-.12,0c-.13.08-.13-.2-.27-.14l0,0a.13.13,0,0,0-.12.13.2.2,0,0,1,.09-.06v0s0,0,0,0h.06s0,0,0,0-.17,0-.14.12l0,0c0,.05,0,.09.11.07s0,0,0-.06h0a0,0,0,0,0,0,0h0s0,0,0,0a.17.17,0,0,0,0,0c0,.05.07.11.15.05s-.08,0-.08,0h0a.07.07,0,0,0,0,0s0,0,0,0h0s0,0,0,0a.09.09,0,0,0,.11,0c.09,0,0-.12.09-.13a0,0,0,0,1,0,0c.08,0,.19,0,.21,0a.2.2,0,0,0-.08-.22s0-.08,0-.15a.54.54,0,0,0,.27.07.8.8,0,0,0,.4-.08.34.34,0,0,1,.25,0s0,0,0,0,0,.12,0,.16-.11,0-.17,0l-.06,0a.17.17,0,0,0-.14.12.46.46,0,0,1,.1,0v0c0,.07.06.09.12,0s0,0,0,0-.14.1-.09.13l0,0s0,.09,0,.09a.11.11,0,0,1,0-.08h0s0-.09.1-.12h0c0,.06-.06.12,0,.13h0s.05.07.12,0-.05,0-.05,0l.05,0c.06-.11,0-.11,0-.16s.11,0,.15-.12,0-.06,0-.07a0,0,0,0,1,0,0h0s.06,0,.09,0,0-.07,0-.11v0a.12.12,0,0,0,.06-.11s-.13.08-.12,0,0,0-.07,0a3.42,3.42,0,0,1-.58,0s0,0,0,0c.25,0,.77-.06.77-.22s0-.23-.47-.23-1.44.17-1.44-.08.2-.11.43-.1" transform="translate(-77.43 -47.43)"/><path class="cls-1" d="M125.52,79.8s0,0,0,0,0,0,.05,0,0,0-.05-.07.05,0,0,0,0,0,0,0,0,0,0,0,0,0,0,0l.14.06a.05.05,0,0,1,0,0s0,0,0,0,0,0,0,0,0,0,0,0-.06,0-.08,0,0,0,0,.06a.23.23,0,0,1,0,.07s-.05.07-.1,0a.09.09,0,0,1,0-.11m.16-.33s-.07.06-.1,0,0,0,0-.11l.14.08m.1,0,.16.06c-.07,0-.06,0-.1,0s-.07-.06-.06-.1m1.06,0a.19.19,0,0,0,.11.07c.57.16,1.21-.26,1.56-.17-.45-.15-.73.12-1.16,0,.25,0,.52-.05.53-.12-.2.13-.75-.09-1,.06a.08.08,0,0,0,0,0c-.18,0-.33.13-.33.26,0,.37,1.46.08,1.46.21s-.29.19-.67.19a3.93,3.93,0,0,0-1.42,0h0c0-.11.18-.27.12-.34s.09-.06.09-.1a.24.24,0,0,0-.1,0s0-.05,0-.08,0-.06,0-.07l-.12-.08a.58.58,0,0,0-.13,0l-.07,0s-.07,0-.07,0a.19.19,0,0,0-.1-.05.21.21,0,0,0,0,.16s-.1.13-.15.11,0,0,0,0-.06.17-.11.17,0,0,.05,0a.89.89,0,0,0,0,.36,3.84,3.84,0,0,0-.31-.36c-.09,0-.09-.09-.09-.17s0-.14,0-.2a.25.25,0,0,0,0-.07.1.1,0,0,0-.11-.07.1.1,0,0,1,0,.07l0,0s0,.05,0,.07,0,0,0,0a0,0,0,0,1,0,0s0,0,0,0,0-.13-.08-.13h0c0-.06-.05-.1-.12,0l0,0s0,.05,0,.06,0,.07.09.07h0a0,0,0,0,0,0,0s0,0,0,0-.14,0-.14,0v0a.07.07,0,0,0,0,.12s0-.06,0-.06h0l0,0a.08.08,0,0,0,.06,0h0l0,0v0c-.06.06,0,.12,0,.14s0,0,0,0-.16.09-.15,0c-.09.14.07.24.18.17s0,0,0,0,0,0,0,0a0,0,0,0,1,0,0,0,0,0,0,1,0,0s0,.07,0,.07,0,0,0,0,0,.18.16.28a.2.2,0,0,0,.21.14c0,.07.07.14,0,.14a1.3,1.3,0,0,0-.28,0,.42.42,0,0,1-.18.07h0a0,0,0,0,1,0,0,.16.16,0,0,1-.14,0,1,1,0,0,1,0-.1s0,0-.06,0h-.05a.13.13,0,0,0-.13,0s0,0,.07.05a.1.1,0,0,1,0,0s0,.07.11.11,0,0,0,0a.06.06,0,0,1-.07,0s0-.09-.11-.06l0,0h0s-.13.06-.09.12a.06.06,0,0,1,.06,0s0,0,0,0,0,.12.16,0,0,0,0,0-.12.1,0,.15l0,0h0a.1.1,0,0,0,.1.12.11.11,0,0,1,0-.11l0,0c.06,0,0-.11.07-.13s0,0,0,0,0,.1.09.09a.09.09,0,0,0,.1-.1h0a.06.06,0,0,1,0,.07s0,0,.05,0a.09.09,0,0,1,0,.12.16.16,0,0,0,.12-.12.05.05,0,0,1,0,0h0a.27.27,0,0,0,.15,0h0a.08.08,0,0,0,0,.08s0,0,0,0,0,.07,0,.11c0-.18.11-.11.23-.19s0,0,0,0,0,0,0,.06.18,0,.18-.12a1,1,0,0,0,.11-.32h0c.16,0,.23-.12.38-.13a.48.48,0,0,0,0,.22.4.4,0,0,0,.14.2s0,0,0,0a.21.21,0,0,0-.11,0c-.13.08-.13-.19-.26-.14l0,0a.1.1,0,0,0-.11.12.1.1,0,0,1,.08,0v0s0,0,0,0h0a0,0,0,0,1,0,0s-.17,0-.14.11l0,0s0,.08.1.06a.07.07,0,0,1,0,0h0l0,0h0l0,0a0,0,0,0,0,0,0s0,0,0,0,.06.1.14,0-.07,0-.07,0l0,0a.08.08,0,0,0,0-.05h0s0,0,0,0a.08.08,0,0,0,.1,0c.09,0,0-.11.09-.12h0c.07,0,.13,0,.15,0s0-.16-.07-.2.06-.3-.15-.43c.1,0,.42.07.48,0a.63.63,0,0,1,.22.11s0,0,0,0-.07.09-.12.1h0l-.08-.09s-.07,0-.07,0a.13.13,0,0,0-.14,0h.1a0,0,0,0,1,0,0s0,0,0,0h0s0,0,0,0-.14,0-.12,0v0a.09.09,0,0,0,0,.11s0,0,.06,0l0,0s.07,0,.12,0h0c-.05,0-.1,0-.08.09s0,0,0,0,0,.09.06.11a.06.06,0,0,1,0-.06h0c.1,0,0-.11.07-.14s.08.06.16,0a.09.09,0,0,0,0-.08h0s0,0,.08,0,0-.07,0-.11,0,0,0,0a.14.14,0,0,0,.11-.06s-.16,0-.09-.08.12-.09.07-.14-.23-.11-.24-.22h.15c.49,0,.8-.14.79-.29,0-.33-1.48,0-1.48-.22,0-.07.09-.12.2-.16" transform="translate(-77.43 -47.43)"/><path class="cls-1" d="M103.08,53.9a.36.36,0,1,0-.71,0,.36.36,0,0,0,.71,0" transform="translate(-77.43 -47.43)"/><path class="cls-1" d="M103,53a.35.35,0,0,0-.35-.36.36.36,0,1,0,0,.72A.35.35,0,0,0,103,53" transform="translate(-77.43 -47.43)"/><path class="cls-1" d="M103.16,52.53a.36.36,0,1,0-.36-.36.36.36,0,0,0,.36.36" transform="translate(-77.43 -47.43)"/><path class="cls-1" d="M104.1,52.47a.36.36,0,0,0,.36-.36.36.36,0,1,0-.71,0,.36.36,0,0,0,.35.36" transform="translate(-77.43 -47.43)"/><path class="cls-1" d="M108.14,51.81a.36.36,0,0,0,.51,0,.36.36,0,0,0-.51-.51.36.36,0,0,0,0,.51" transform="translate(-77.43 -47.43)"/><path class="cls-1" d="M108.06,51.05a.35.35,0,1,0-.5,0,.35.35,0,0,0,.5,0" transform="translate(-77.43 -47.43)"/><path class="cls-1" d="M107.12,50.9a.36.36,0,0,0,0-.51.35.35,0,0,0-.5,0,.36.36,0,0,0,0,.51.35.35,0,0,0,.5,0" transform="translate(-77.43 -47.43)"/><path class="cls-1" d="M106.32,51.49a.37.37,0,0,0,0-.5.38.38,0,0,0-.51,0,.36.36,0,0,0,0,.51.37.37,0,0,0,.51,0" transform="translate(-77.43 -47.43)"/><path class="cls-1" d="M104.05,51l.28.62.36-.44,0,0a6.74,6.74,0,0,1,0,.77.46.46,0,0,0,.45.46.46.46,0,0,0,.22-.86,2.79,2.79,0,0,1-.5-.46s0,0,0-.06l.6,0-.24-.64-.45.39,0,0,0-.66-.63.24.42.49,0,.05Z" transform="translate(-77.43 -47.43)"/><path class="cls-1" d="M108.17,52.11a1,1,0,0,1,.2.49,1,1,0,0,1-.38-.33l.08.82a.75.75,0,0,1,.3-.29c0,.53-.25.76-.43.79a.35.35,0,0,1-.43-.27c0-.24.16-.39.38-.18,0-.49-.37-.49-.54-.28a.72.72,0,0,0-.3-1,.76.76,0,0,0,.18,1.08c-.33-.16-.62.12-.33.48.06-.32.34-.24.4,0s-.15.5-.5.61c-.51.15-.68-.18-.8-.45a.7.7,0,0,1,.66.14l-.24-.81a.84.84,0,0,1-.49.49,2.41,2.41,0,0,1,.15-.71l-1,.4a2.2,2.2,0,0,1,.6.4.83.83,0,0,1-.69,0l.39.76c.08-.34.25-.54.38-.57.1.29.21.64-.26.88a.6.6,0,0,1-.79-.08c-.13-.22,0-.47.29-.28,0-.47-.46-.47-.57-.12,0-.48-.12-.77-.63-.9-.13.48,0,.76.52,1-.27,0-.56.24-.19.57,0-.3.25-.34.39-.14a.36.36,0,0,1-.11.5c-.16.1-.47.09-.87-.28a.76.76,0,0,1,.42,0l-.52-.64a1.07,1.07,0,0,1,0,.5.93.93,0,0,1-.2-.49l-.4.35a4.41,4.41,0,0,1,1.34,1.33,18.47,18.47,0,0,1,2.18-1.09,17.11,17.11,0,0,1,2.3-.74,4.61,4.61,0,0,1,0-1.88Z" transform="translate(-77.43 -47.43)"/><path class="cls-1" d="M109.29,56.82a1,1,0,0,1-1.45-.48,13.79,13.79,0,0,0,2-.93c-.49.76-.15,1.1-.55,1.41M109.18,62a1,1,0,0,1-1.26-.67c-.12-.39-.23-.7-.08-.85s.37-.49.2-.83-.61-.2-1.06-.09c.21-.38.23-.65-.06-.61s-.34.59-.53.52-.08-.38-.08-.55.15-.32.38-.42l1.86-.7c.24-.09.4-.14.57,0s.41.27.32.45-.48-.21-.75,0,0,.35.38.48c-.4.23-.82.38-.69.8s.33.45.72.46c.21,0,.36.3.53.66a.93.93,0,0,1-.45,1.32m-3.53-3.74c-.5,0-.48-.43-1.36-.65a13.59,13.59,0,0,0,2.1-.7c.13.58-.11,1.29-.74,1.35M116,74.74c.14-.37-.56-.81-.64-1.35a2.69,2.69,0,0,0-.64-1.8c-.61-.71-2.74-3-3.38-3.72a1,1,0,0,1,.93.27c.23.22.69.65,1.11,1.07a11.51,11.51,0,0,1,2.26-3.63l.39-.42a5,5,0,0,0-1.26.42c0-.63,0-1.13-.41-1.53.17-.87,0-1.93-1.93-3.23,1,.24,1.59,1.15,2.36.45-.69,0-.71-1.52-3.19-2.77,1,0,1.69,1.52,2.79.65-1-.13-1.38-2-3.25-2.54.65.08,1.32.39,1.87-.36-.64.15-1-.44-1.72-.5a2.29,2.29,0,0,0-.08-1.9,2.3,2.3,0,0,0-1.34.48c-.06-.45-.52-.47-.94-.44,0,.19.12.47-.09.51a16.64,16.64,0,0,0-2.3.69,13.13,13.13,0,0,0-2.12,1.14c-.18.12-.33-.16-.43-.29-.3.26-.6.59-.38.92a2.72,2.72,0,0,0-1.45.53,1.69,1.69,0,0,0,1.15,1.39c-1.16,1.14-.11,2.2-1.13,3.2,1.43.05,1.18-1.93,1.9-2.21-.07,1.4-.85,1.64-.85,3.15,0,.81.48,1.68,0,2.21,1.19-.33.88-3,1.62-3.76a2.21,2.21,0,0,1-.1,1.34c-.42,1.23,0,2.91-.6,3.46,1.21-.12,1.36-2.07,2.36-2.79-.86,1.76-1.74,5.51-3,7.38-2.07,2.8-3.29,6.22-5.2,6.22a1.41,1.41,0,0,1-1.47-1.58c0-3.18,5.46-5.37,5.46-8.76a2,2,0,0,0-2-2.09,2.85,2.85,0,0,0-1.68.69A1.77,1.77,0,0,0,98,65.1c-1.93,0-1.42,3.47-3.1,3.43.67.38,1.82-.35,2.5-1.32-.29,2.25-3.53,1.65-3.28,4.35.46-2.11,5.62-1.8,5.62-5a1.24,1.24,0,0,0-.45-.91,2,2,0,0,1,1.1-.34,1.22,1.22,0,0,1,1.18,1.37c0,2.84-5.43,5.24-5.43,8.73a2.47,2.47,0,0,0,.45,1.47.91.91,0,0,1-1.1-.3c0,.9,1.25,1.47,2.06,1a1.81,1.81,0,0,0,.56.12,1.54,1.54,0,0,1-1.51.84c1.33,1,3.65-.33,3.53-1.52,1.05-.85,1.72-2.31,2.49-3.27,0,.23-.09.45-.12.67A11.3,11.3,0,0,0,100.76,79c-.18,1.57-1,3-2.06,3-.24,0-.64-.31-.82-.16-.34.3,0,.6,0,.9s-.86.88-.86,2.25c0,.62.36,1.36.23,1.77a2.49,2.49,0,0,0,1-1.52c.38,1.8-.77,1.73.06,3.33a.66.66,0,0,1,1-.53c.32.22.17.38-.07.62S98.72,90,99.81,90c-.2-.14-.22-.46.33-.57.75-.15,1,.2,1.78.2.5,0,.63-.65,1-.65s.39.3.25.53c.64-.17.75-.52.75-.88s-.29-.58-.06-.71,1,0,.66.61a.71.71,0,0,0,.59-.8c0-.47-.53-.74-1-.65-.08-.3-.51-.45-.91-.45-.89,0-.75.7-1.36.7-1,0-1.93-1.27-1.93-3.41,0-1.15,1.24-1.44,2.11-1.81a7.54,7.54,0,0,0,3.32-2.86,6.82,6.82,0,0,0,.65-4.09,2.59,2.59,0,0,1,1.38,2.46,1.49,1.49,0,0,1-.89,1.52c-.33.16-.44.09-.48.29a.42.42,0,0,0,.27.46c.44.23.35.65.47,1.11A3.56,3.56,0,0,0,108,82.68a5.11,5.11,0,0,0,0-1.33c1,.46.19,2.36,2,2.36a.47.47,0,0,1,0-.76c.2-.07.44.12.8.62s.26.45,1.13.45.47-.3.93-.3.43.53.18.92a1,1,0,0,0,.75-1.43.75.75,0,0,1,1.15.53.91.91,0,0,0-.53-1.54.55.55,0,0,0-.5-.53,6.21,6.21,0,0,0-.87,0c-.32,0-.49.48-.87.48-1.15,0-3.43-2.09-3.43-3s2.18-1.45,2.18-2.85c0-1.83-1.8-2.45-3.31-3.63a3,3,0,0,1,3-.31c.1-.51.43-.39.55-1.26.32.77,0,1.43.31,1.76.26-.37.91-.32.87-1.27.2.6-.25,1.51.2,1.91.08-.49.37-.58.56-.58s.34.13.34.42c0,.73-.9.39-.9,1.22,0,.34.44.46.44.69a.49.49,0,0,1-.8.28,1,1,0,0,0,.81.6,1.17,1.17,0,0,0,1-.74c.2.53,0,1.11-.33,1.19.4.2,1.34,0,1.23-1.2.54.09.82.45.5,1.09.44-.1.84-.32.84-.78s-.39-.47-.22-.94" transform="translate(-77.43 -47.43)"/><path class="cls-1" d="M151.16,83.52a1.14,1.14,0,1,1,1.14,1.14,1.15,1.15,0,0,1-1.14-1.14m-.4,0A1.54,1.54,0,1,0,152.3,82a1.54,1.54,0,0,0-1.54,1.54" transform="translate(-77.43 -47.43)"/><path class="cls-1" d="M145.73,86.3c-.44-.08-.74-.41-.69-.73a.53.53,0,0,1,.22-.32.92.92,0,0,1,.68-.12.78.78,0,0,1,.7.65s0,0,0,.08c-.06.32-.46.51-.9.44M145,84.93a.85.85,0,0,0-.38.57.9.9,0,0,0,.23.77,1.35,1.35,0,0,0,.77.41,1.41,1.41,0,0,0,.87-.12.9.9,0,0,0,.49-.64,1.12,1.12,0,0,0-1-1.18,1.29,1.29,0,0,0-1,.19" transform="translate(-77.43 -47.43)"/><path class="cls-1" d="M136.5,64.29a.78.78,0,0,1,.33-.58.76.76,0,0,1,.58-.18.43.43,0,0,1,.28.15.42.42,0,0,1,.08.32.79.79,0,0,1-.32.52.66.66,0,0,1-.87,0,.45.45,0,0,1-.08-.26m.08-.89a1,1,0,0,0-.31,1.39h0a1,1,0,0,0,1.42,0,1.22,1.22,0,0,0,.47-.78.79.79,0,0,0-.7-.91,1.23,1.23,0,0,0-.88.26" transform="translate(-77.43 -47.43)"/><path class="cls-1" d="M143.82,84.52Zm0-.4h0a.48.48,0,0,1-.34-.16,1,1,0,0,1-.24-.65.94.94,0,0,1,.26-.65.5.5,0,0,1,.35-.15c.33,0,.59.38.58.82a.93.93,0,0,1-.26.64.46.46,0,0,1-.35.15m-.59-1.74a1.33,1.33,0,0,0-.38.92v0a1.27,1.27,0,0,0,.34.9.92.92,0,0,0,.62.29.93.93,0,0,0,.64-.26,1.4,1.4,0,0,0,.11-1.76.91.91,0,0,0-.7-.38.89.89,0,0,0-.63.26" transform="translate(-77.43 -47.43)"/><path class="cls-1" d="M136,71.48a.72.72,0,0,1-.47-.88.47.47,0,0,1,.3-.25.94.94,0,0,1,.69.06,1,1,0,0,1,.48.5.53.53,0,0,1,0,.39.5.5,0,0,1-.29.24,1,1,0,0,1-.7-.06m-.3-1.5a.87.87,0,0,0-.52.45,1.11,1.11,0,0,0,.65,1.4,1.28,1.28,0,0,0,1,.08.88.88,0,0,0,.52-.44.91.91,0,0,0,0-.69,1.34,1.34,0,0,0-.69-.72,1.25,1.25,0,0,0-1-.08" transform="translate(-77.43 -47.43)"/><path class="cls-1" d="M146.85,77a.64.64,0,1,1,0-1,.72.72,0,0,1,0,1M145,79.82a.64.64,0,1,1-1-.71.73.73,0,0,1,1-.29.72.72,0,0,1,0,1m-6.2-15.63c.21-.66.62-2,.62-2l.69.27a2.19,2.19,0,0,0-.66.47.71.71,0,0,0,.63-.05l-.28.7a.88.88,0,0,0-.46-.4.72.72,0,0,0,.47.9c.42.22.7.25.82.06s-.15-.58-.5-.43c0-.37.16-.56.4-.56s.35.17.4.41a1.13,1.13,0,0,1,.79-1.22,1.18,1.18,0,0,1-.39,1.38.5.5,0,0,1,.59.08.45.45,0,0,1-.24.65.35.35,0,0,0-.64-.17c-.13.25.06.48.45.7a.73.73,0,0,0,1.07-.29.86.86,0,0,0-.66.13l.47-.87a.9.9,0,0,0,.29.51,1.13,1.13,0,0,0,0-.84l1,.58a1.13,1.13,0,0,0-.72.44.89.89,0,0,0,.59,0l-.52.84a.82.82,0,0,0-.21-.63.72.72,0,0,0,.28,1.06c.38.23.68.28.83,0s-.1-.6-.47-.48c0-.36.2-.54.45-.53s.33.24.37.48a1.17,1.17,0,0,1,1-1,1.14,1.14,0,0,1-.66,1.3.44.44,0,0,1,.55.14c.12.21.06.48-.28.63a.35.35,0,0,0-.62-.22c-.11.2.06.42.46.68a.72.72,0,0,0,1,0,.93.93,0,0,0-.58-.19l.46-.59a.73.73,0,0,0,.28.57,2.15,2.15,0,0,0,.07-.81l.59.46s-.94,1-1.41,1.53Zm7.51,8.53a.46.46,0,0,1,.15-.35.49.49,0,0,1,.36-.13,1,1,0,0,1,.89,1,.51.51,0,0,1-.15.35h0a.5.5,0,0,1-.36.13.93.93,0,0,1-.62-.31.91.91,0,0,1-.27-.64m2.75,12.64a.92.92,0,0,1,.41-.57.94.94,0,0,1,.68-.15.54.54,0,0,1,.32.21h0a.47.47,0,0,1,.06.37.89.89,0,0,1-.41.56.72.72,0,0,1-1,0,.47.47,0,0,1-.06-.37M136,66.31a.76.76,0,0,1-.24.54.41.41,0,0,1-.29.12.62.62,0,0,1-.46-.66v0a.8.8,0,0,1,.24-.54.42.42,0,0,1,.3-.12.45.45,0,0,1,.28.15.81.81,0,0,1,.17.56m4-8.31c.21-.41,0-1,.75-1,.36,0,.69.36,1.14.51a4.55,4.55,0,0,0-1.89.52m11.78,10.4c.5,1.37,1.49,1.87,2.25,1.51-1.69-.19-.32-3.09-2.5-3.09a1.34,1.34,0,0,0-.35,0,1.78,1.78,0,0,0-1.42-.56A2.71,2.71,0,0,0,147.32,69c0,4,4.6,4.31,4.6,7.81a1.6,1.6,0,0,1-1.64,1.66c-.77,0-1.39-.87-2-2.23a17.14,17.14,0,0,0-1.69-2.45,1.27,1.27,0,0,0,.68.24.87.87,0,0,0,.91-.86v0a1.37,1.37,0,0,0-1.27-1.32.88.88,0,0,0-.64.23.85.85,0,0,0-.27.62v0a1.12,1.12,0,0,0,.07.4c-1-1.29-1.91-2.56-1.91-3.25a3.12,3.12,0,0,1,.95-1.8l.18.1.14-.16,1.36-1.47.05,0h0l.19-.2-.49-.4a6.49,6.49,0,0,0,.33-1c.15.63.48,1,.93.91-.3-.66.31-1.54-.09-3.15.38.63.92.95,1.31.84-1-.91.3-2.16-1-4.12a.8.8,0,0,0,.92-.15c-1.21-.17-.66-1.72-2.79-2.27.53-.09.84-.4.76-.68-.56.41-1.05-.75-2.89-.72a2.72,2.72,0,0,0-1.47-1.77,2.45,2.45,0,0,1-.13,1.42l-6-5.89c-.18-.16-.27-.2-.32-.14s-.05.17.07.29L141.24,56c-.39.13-.77.29-1.17.44a.69.69,0,0,0-.45.66,11.06,11.06,0,0,0-2.21,1.45c-.32.29-.57.36-.29,1,.11.25-.22.86.52.41.49-.29,1.6-.9,1.76-.52.09.21-.46.47-.83.61s-.79.43-.73.58.36,0,.38.14a.34.34,0,0,0,.29.33c.15,0,.34-.32.46-.21s-.06.8-.18,1a1.17,1.17,0,0,0,1-1.06c0-.43.13-.54.22-.6s.2.47.08.78c.3-.07.62-.47.58-1.22a.88.88,0,0,1,.43-.22c.2,0,.59.54,1.14.54a1.7,1.7,0,0,0,1.65-1.21,1.16,1.16,0,0,0-.15-.85,1.39,1.39,0,0,1,.48,1.1c0,1.44-2.55,2.12-3.6,3.12l-.11.11-1.2-.46-.08.26-.07.23c-.13.41-.39,1.26-.55,1.75l-.06.2.11.06a6.64,6.64,0,0,0-1.42,3.09,9.26,9.26,0,0,0-.87-.79,1.28,1.28,0,0,0,.06-.34,1.17,1.17,0,0,0-.27-.84.78.78,0,0,0-.55-.28.76.76,0,0,0-.58.22.57.57,0,0,0-.11.11l-.13-.1a12.07,12.07,0,0,1-1.18-1,.6.6,0,0,0-.52-.22h-.53c-.18,0-.28.14-.48.32l-.69.53.44.46.23.27.21-.16a.69.69,0,0,1,.44-.13.71.71,0,0,1,.52.35c.11.16,1.08,1.43,1.88,2.32l-.25.09a4.06,4.06,0,0,1-1.47.09c-.34,0-.41-.11-.64.25a4.16,4.16,0,0,1-.32.45c-.11.14-.21.3,0,.71A32.63,32.63,0,0,1,134,72.66a1.67,1.67,0,0,0,1.2,1,9.07,9.07,0,0,1,1.62.9l0-.54a3.13,3.13,0,0,0-.9-.44c-.2-.08-.26-.16,0-.16a6.06,6.06,0,0,1,1.38.43,4.16,4.16,0,0,0-1-1.45,1.37,1.37,0,0,0-1,0,.22.22,0,0,1-.23.26.21.21,0,0,1-.21-.28c0-.16.29-.22.24-.52s-.43-.36-.68-.38c-.34-.5-.73-1.22-.91-1.52s-.07-.45,0-.55c.29-.24.9.12,2.12.2l1.51.08A3.36,3.36,0,0,0,140,73a3.38,3.38,0,0,1,2.3,1.87c-3.94-.07-4.56,1.46-4.56,2.91,0,1.65,1.39,1.56,1.39,2.79s-3.31,1.52-4.31,1.67A2.76,2.76,0,0,0,133,83c-.4.41-.82.8-1.56,1.54a2.61,2.61,0,0,0,.63,0l.56-.72c.17-.24.28-.44.39-.43s0,.21-.09.47l-.46.77c1.94.13,2.07-.59,2.07-.88s-.48-.5-.2-.69.51,0,.73.2.3.49.84.28c0,0,4.23-1.75,4.76-2s.35-.42.06-.66a1.36,1.36,0,0,1-.37-1.13c0-1.28.77-1.68,2.15-1.65a4.59,4.59,0,0,0,0,.62c0,2,3,4,3.84,4,.36,0,.85-.27.89.93a11.84,11.84,0,0,1,0,2.54,1.88,1.88,0,0,1-1.07,1.61c-.62.44-1.2,1.79-1.46,2.08.28.17.57.2.8-.46a2,2,0,0,1,.64-1.07c-.24.6-.41,1.49-.53,1.75.77.14,2-.57,2-1.11s-.44-.5-.44-.87a.42.42,0,0,1,.44-.34.62.62,0,0,1,.56.36c.35-.18.56-.52.55-1.31,0-.31,0-.64,0-1a.83.83,0,0,0,.07.13.87.87,0,0,0,.69.39,1.39,1.39,0,0,0,.85-.23,1.28,1.28,0,0,0,.57-.81.69.69,0,0,0,0-.2.86.86,0,0,0-.14-.47.9.9,0,0,0-.57-.37,1.27,1.27,0,0,0-1,.21,1.29,1.29,0,0,0-.57.74c-.06-1.09-.14-2.12-.11-2.53,0-.61.07-.88-.14-1s-.42.25-.72.25a2,2,0,0,1-1.18-1.68c0-.87.93-2,.88-3.17,0-.37.22-.56.37-.22a5.46,5.46,0,0,0,.84,1.4c-.24,1.48,1.39,2.93,2.74,1.86-.67.09-1.13-.5-1.42-1.09a2,2,0,0,0,.36,0h.2a1.45,1.45,0,0,0,2.36-.91,1.54,1.54,0,0,1-1.19.48,2.4,2.4,0,0,0,.86-1.92c0-3.78-4.58-4.22-4.58-7.65A2.11,2.11,0,0,1,149.89,67a1.12,1.12,0,0,1,.71.23,1.75,1.75,0,0,0-.43,1.31c.12,2.71,4.55,2.57,4.61,3.88.5-2-2.81-1.36-2.93-4" transform="translate(-77.43 -47.43)"/></svg>