<?xml version="1.0" encoding="UTF-8"?><svg width="512" height="512" version="1.1" viewBox="0 0 512 512" xmlns="http://www.w3.org/2000/svg" xmlns:xlink="http://www.w3.org/1999/xlink"><!--Generated by IJSVG (https://github.com/iconjar/IJSVG)--><g transform="scale(8)"><path fill="#000" d="M48,27c-0.553,0 -1,0.448 -1,1v27h-38v-38h27c0.553,0 1,-0.448 1,-1c0,-0.552 -0.447,-1 -1,-1h-28c-0.552,0 -1,0.448 -1,1v40c0,0.553 0.448,1 1,1h40c0.553,0 1,-0.447 1,-1v-28c0,-0.552 -0.447,-1 -1,-1Z"></path><path fill="#000" d="M56,7h-12c-0.553,0 -1,0.448 -1,1c0,0.552 0.447,1 1,1h10h1v1v10c0,0.552 0.447,1 1,1c0.553,0 1,-0.448 1,-1v-12c0,-0.552 -0.447,-1 -1,-1Z"></path><path fill="#000" d="M54,9c-0.256,0 -0.512,0.098 -0.707,0.293l-22,22c-0.391,0.391 -0.391,1.023 0,1.414c0.195,0.195 0.451,0.293 0.707,0.293c0.256,0 0.512,-0.098 0.707,-0.293l22,-22c0.195,-0.195 0.293,-0.451 0.293,-0.707c0,-0.256 -0.098,-0.512 -0.293,-0.707c-0.195,-0.195 -0.451,-0.293 -0.707,-0.293Z"></path></g></svg>