<?xml version="1.0" encoding="utf-8"?>
<!-- Generator: Adobe Illustrator 23.0.1, SVG Export Plug-In . SVG Version: 6.00 Build 0)  -->
<svg version="1.1" id="Layer_1" xmlns="http://www.w3.org/2000/svg" xmlns:xlink="http://www.w3.org/1999/xlink" x="0px" y="0px"
	 viewBox="0 0 167 29" style="enable-background:new 0 0 167 29;" xml:space="preserve">
<style type="text/css">
	.st0{filter:url(#Adobe_OpacityMaskFilter);}
	.st1{fill-rule:evenodd;clip-rule:evenodd;fill:#FFFFFF;}
	.st2{mask:url(#mask-2_1_);fill-rule:evenodd;clip-rule:evenodd;}
	.st3{filter:url(#Adobe_OpacityMaskFilter_1_);}
	.st4{mask:url(#mask-4_1_);fill-rule:evenodd;clip-rule:evenodd;}
	.st5{filter:url(#Adobe_OpacityMaskFilter_2_);}
	.st6{mask:url(#mask-6_1_);fill-rule:evenodd;clip-rule:evenodd;}
	.st7{filter:url(#Adobe_OpacityMaskFilter_3_);}
	.st8{mask:url(#mask-8_1_);fill-rule:evenodd;clip-rule:evenodd;}
	.st9{filter:url(#Adobe_OpacityMaskFilter_4_);}
	.st10{mask:url(#mask-10_1_);fill-rule:evenodd;clip-rule:evenodd;}
	.st11{filter:url(#Adobe_OpacityMaskFilter_5_);}
	.st12{mask:url(#mask-12_1_);fill-rule:evenodd;clip-rule:evenodd;}
	.st13{filter:url(#Adobe_OpacityMaskFilter_6_);}
	.st14{mask:url(#mask-14_1_);fill-rule:evenodd;clip-rule:evenodd;}
	.st15{filter:url(#Adobe_OpacityMaskFilter_7_);}
	.st16{mask:url(#mask-16_1_);fill-rule:evenodd;clip-rule:evenodd;}
	.st17{filter:url(#Adobe_OpacityMaskFilter_8_);}
	.st18{mask:url(#mask-18_1_);fill-rule:evenodd;clip-rule:evenodd;}
	.st19{filter:url(#Adobe_OpacityMaskFilter_9_);}
	.st20{mask:url(#mask-20_1_);fill-rule:evenodd;clip-rule:evenodd;}
</style>
<title>Web Logo</title>
<desc>Created with Sketch.</desc>
<g id="Assets">
	<g id="Web-Build-Assets" transform="translate(-58.000000, -146.000000)">
		<g id="Web-Logo" transform="translate(58.000000, 146.000000)">
			<g id="Group-48" transform="translate(27.000000, 1.000000)">
				<g id="Clip-47">
				</g>
				<defs>
					<filter id="Adobe_OpacityMaskFilter" filterUnits="userSpaceOnUse" x="-7.1" y="-7" width="35.1" height="42.2">
						<feColorMatrix  type="matrix" values="1 0 0 0 0  0 1 0 0 0  0 0 1 0 0  0 0 0 1 0"/>
					</filter>
				</defs>
				<mask maskUnits="userSpaceOnUse" x="-7.1" y="-7" width="35.1" height="42.2" id="mask-2_1_">
					<g class="st0">
						<polygon id="path-1_1_" class="st1" points="0.2,28 5.4,0.3 12,0.3 7.9,22.1 20.6,22.1 19.5,28 						"/>
					</g>
				</mask>
				<polygon id="Fill-46" class="st2" points="-7.1,-7 27.9,-7 27.9,35.2 -7.1,35.2 				"/>
			</g>
			<g id="Group-51" transform="translate(49.000000, 1.000000)">
				<g id="Clip-50">
				</g>
				<defs>
					<filter id="Adobe_OpacityMaskFilter_1_" filterUnits="userSpaceOnUse" x="-7" y="-7" width="37.7" height="42.2">
						<feColorMatrix  type="matrix" values="1 0 0 0 0  0 1 0 0 0  0 0 1 0 0  0 0 0 1 0"/>
					</filter>
				</defs>
				<mask maskUnits="userSpaceOnUse" x="-7" y="-7" width="37.7" height="42.2" id="mask-4_1_">
					<g class="st3">
						<polygon id="path-3_1_" class="st1" points="0.3,28 5.4,0.3 23.4,0.3 22.3,6.1 10.6,6.1 9.7,11.4 20.3,11.4 19.3,16.8 
							8.7,16.8 7.7,22.1 19.4,22.1 18.4,28 						"/>
					</g>
				</mask>
				<polygon id="Fill-49" class="st4" points="-7,-7 30.7,-7 30.7,35.2 -7,35.2 				"/>
			</g>
			<g id="Group-54" transform="translate(77.000000, 1.000000)">
				<g id="Clip-53">
				</g>
				<defs>
					<filter id="Adobe_OpacityMaskFilter_2_" filterUnits="userSpaceOnUse" x="-9.3" y="-7" width="41.6" height="42.2">
						<feColorMatrix  type="matrix" values="1 0 0 0 0  0 1 0 0 0  0 0 1 0 0  0 0 0 1 0"/>
					</filter>
				</defs>
				<mask maskUnits="userSpaceOnUse" x="-9.3" y="-7" width="41.6" height="42.2" id="mask-6_1_">
					<g class="st5">
						<polygon id="path-5_1_" class="st1" points="18.3,0.3 25,0.3 9.8,28 3.4,28 -1.9,0.3 4.9,0.3 8.2,19.8 						"/>
					</g>
				</mask>
				<polygon id="Fill-52" class="st6" points="-9.3,-7 32.3,-7 32.3,35.2 -9.3,35.2 				"/>
			</g>
			<g id="Group-57" transform="translate(100.000000, 1.000000)">
				<g id="Clip-56">
				</g>
				<defs>
					<filter id="Adobe_OpacityMaskFilter_3_" filterUnits="userSpaceOnUse" x="-7.5" y="-7" width="37.7" height="42.2">
						<feColorMatrix  type="matrix" values="1 0 0 0 0  0 1 0 0 0  0 0 1 0 0  0 0 0 1 0"/>
					</filter>
				</defs>
				<mask maskUnits="userSpaceOnUse" x="-7.5" y="-7" width="37.7" height="42.2" id="mask-8_1_">
					<g class="st7">
						<polygon id="path-7_1_" class="st1" points="-0.2,28 4.8,0.3 22.8,0.3 21.8,6.1 10.1,6.1 9.2,11.4 19.8,11.4 18.8,16.8 
							8.2,16.8 7.2,22.1 18.9,22.1 17.9,28 						"/>
					</g>
				</mask>
				<polygon id="Fill-55" class="st8" points="-7.5,-7 30.2,-7 30.2,35.2 -7.5,35.2 				"/>
			</g>
			<g id="Group-60" transform="translate(120.000000, 1.000000)">
				<g id="Clip-59">
				</g>
				<defs>
					<filter id="Adobe_OpacityMaskFilter_4_" filterUnits="userSpaceOnUse" x="-6.6" y="-7" width="35.1" height="42.2">
						<feColorMatrix  type="matrix" values="1 0 0 0 0  0 1 0 0 0  0 0 1 0 0  0 0 0 1 0"/>
					</filter>
				</defs>
				<mask maskUnits="userSpaceOnUse" x="-6.6" y="-7" width="35.1" height="42.2" id="mask-10_1_">
					<g class="st9">
						<polygon id="path-9_1_" class="st1" points="0.7,28 5.9,0.3 12.5,0.3 8.4,22.1 21.1,22.1 20,28 						"/>
					</g>
				</mask>
				<polygon id="Fill-58" class="st10" points="-6.6,-7 28.4,-7 28.4,35.2 -6.6,35.2 				"/>
			</g>
			<g id="Group-63" transform="translate(16.000000, 12.000000)">
				<g id="Clip-62">
				</g>
				<defs>
					<filter id="Adobe_OpacityMaskFilter_5_" filterUnits="userSpaceOnUse" x="-7" y="-6" width="25.4" height="18.9">
						<feColorMatrix  type="matrix" values="1 0 0 0 0  0 1 0 0 0  0 0 1 0 0  0 0 0 1 0"/>
					</filter>
				</defs>
				<mask maskUnits="userSpaceOnUse" x="-7" y="-6" width="25.4" height="18.9" id="mask-12_1_">
					<g class="st11">
						<polygon id="path-11_1_" class="st1" points="1.5,1 10.9,1 9.9,5.8 0.5,5.8 						"/>
					</g>
				</mask>
				<polygon id="Fill-61" class="st12" points="-7,-6 18.4,-6 18.4,12.8 -7,12.8 				"/>
			</g>
			<g id="Group-66" transform="translate(142.000000, 0.000000)">
				<g id="Clip-65">
				</g>
				<defs>
					<filter id="Adobe_OpacityMaskFilter_6_" filterUnits="userSpaceOnUse" x="-6.5" y="-6.4" width="38.1" height="42.5">
						<feColorMatrix  type="matrix" values="1 0 0 0 0  0 1 0 0 0  0 0 1 0 0  0 0 0 1 0"/>
					</filter>
				</defs>
				<mask maskUnits="userSpaceOnUse" x="-6.5" y="-6.4" width="38.1" height="42.5" id="mask-14_1_">
					<g class="st13">
						<path id="path-13_1_" class="st1" d="M16,12.2c5.2,1,7.4,4.3,6.7,8.2c-0.8,4.3-5.3,8.6-12,8.6c-7.4,0-10-4.4-10-8.1h6.2
							c0.5,1.6,2,2.7,4.8,2.7c2.5,0,4.2-1.1,4.5-2.8c0.3-1.4-0.7-2.4-2.5-2.7l-3.7-0.7c-4.6-0.9-7-3.9-6.2-8
							C4.7,4.2,10,0.6,15.4,0.6c7,0,9,4.1,9,7.2l-0.2,0h-6.1c-0.5-1-1.5-1.9-3.8-1.9c-2.3,0-4.1,1.4-4.4,2.9
							c-0.2,1.3,0.4,2.3,2.3,2.6L16,12.2z"/>
					</g>
				</mask>
				<polygon id="Fill-64" class="st14" points="-6.5,-6.4 31.6,-6.4 31.6,36 -6.5,36 				"/>
			</g>
			<g id="Group-69">
				<g id="Clip-68">
				</g>
				<defs>
					<filter id="Adobe_OpacityMaskFilter_7_" filterUnits="userSpaceOnUse" x="-7.2" y="-5.8" width="27" height="20.1">
						<feColorMatrix  type="matrix" values="1 0 0 0 0  0 1 0 0 0  0 0 1 0 0  0 0 0 1 0"/>
					</filter>
				</defs>
				<mask maskUnits="userSpaceOnUse" x="-7.2" y="-5.8" width="27" height="20.1" id="mask-16_1_">
					<g class="st15">
						<polygon id="path-15_1_" class="st1" points="12.6,1.2 6.2,7.3 0,7.3 1.3,1.2 						"/>
					</g>
				</mask>
				<polygon id="Fill-67" class="st16" points="-7.2,-5.8 19.8,-5.8 19.8,14.3 -7.2,14.3 				"/>
			</g>
			<g id="Group-72" transform="translate(13.000000, 0.000000)">
				<g id="Clip-71">
				</g>
				<defs>
					<filter id="Adobe_OpacityMaskFilter_8_" filterUnits="userSpaceOnUse" x="-7.2" y="-5.8" width="25.7" height="20.1">
						<feColorMatrix  type="matrix" values="1 0 0 0 0  0 1 0 0 0  0 0 1 0 0  0 0 0 1 0"/>
					</filter>
				</defs>
				<mask maskUnits="userSpaceOnUse" x="-7.2" y="-5.8" width="25.7" height="20.1" id="mask-18_1_">
					<g class="st17">
						<polygon id="path-17_1_" class="st1" points="0,1.2 11.3,1.2 10,7.3 4.1,7.3 						"/>
					</g>
				</mask>
				<polygon id="Fill-70" class="st18" points="-7.2,-5.8 18.5,-5.8 18.5,14.3 -7.2,14.3 				"/>
			</g>
			<g id="Group-75" transform="translate(3.000000, 6.000000)">
				<g id="Clip-74">
				</g>
				<defs>
					<filter id="Adobe_OpacityMaskFilter_9_" filterUnits="userSpaceOnUse" x="-6.3" y="-5.5" width="25.7" height="35.6">
						<feColorMatrix  type="matrix" values="1 0 0 0 0  0 1 0 0 0  0 0 1 0 0  0 0 0 1 0"/>
					</filter>
				</defs>
				<mask maskUnits="userSpaceOnUse" x="-6.3" y="-5.5" width="25.7" height="35.6" id="mask-20_1_">
					<g class="st19">
						<polygon id="path-19_1_" class="st1" points="5.7,1.7 12.2,1.7 7.4,23 0.9,23 						"/>
					</g>
				</mask>
				<polygon id="Fill-73" class="st20" points="-6.3,-5.5 19.4,-5.5 19.4,30.2 -6.3,30.2 				"/>
			</g>
		</g>
	</g>
</g>
</svg>
