<svg id="Layer_1" data-name="Layer 1" xmlns="http://www.w3.org/2000/svg" viewBox="0 0 747.29 210.9"><title>Logo-desktop</title><polygon points="17.33 180.53 11.71 206.88 4.25 206.88 9.82 180.53 0 180.53 1.56 173.4 28.24 173.4 26.68 180.53 17.33 180.53"/><polygon points="45.48 206.88 48.31 193.47 35.98 193.47 33.1 206.88 25.69 206.88 32.77 173.4 40.23 173.4 37.45 186.44 49.82 186.44 52.61 173.4 60.11 173.4 52.98 206.88 45.48 206.88"/><polygon points="60.26 206.88 67.34 173.4 88.54 173.4 87.03 180.44 73.29 180.44 71.92 186.81 84.39 186.81 83.02 193.38 70.55 193.38 69.18 199.8 82.97 199.8 81.46 206.88 60.26 206.88"/><polygon points="120.94 206.88 112.06 184.93 107.38 206.88 100.02 206.88 107.1 173.4 115.6 173.4 123.63 193.8 127.97 173.4 135.43 173.4 128.3 206.88 120.94 206.88"/><polygon points="135.57 206.88 142.66 173.4 163.86 173.4 162.35 180.44 148.61 180.44 147.24 186.81 159.71 186.81 158.34 193.38 145.87 193.38 144.5 199.8 158.29 199.8 156.78 206.88 135.57 206.88"/><polygon points="169.15 206.88 159.66 206.88 174.39 189.93 166.74 173.4 175.38 173.4 179.77 183.75 188.18 173.4 197.62 173.4 182.94 190.35 190.64 206.88 181.9 206.88 177.51 196.59 169.15 206.88"/><polygon points="235.59 206.88 242.67 173.4 250.13 173.4 244.51 199.75 258.73 199.75 257.22 206.88 235.59 206.88"/><polygon points="261.99 206.88 269.07 173.4 290.27 173.4 288.76 180.44 275.02 180.44 273.65 186.81 286.12 186.81 284.75 193.38 272.28 193.38 270.91 199.8 284.7 199.8 283.19 206.88 261.99 206.88"/><polygon points="303.64 197.11 316.43 173.4 324.93 173.4 305.67 206.88 297.97 206.88 292.87 173.4 300.66 173.4 303.64 197.11"/><polygon points="321.91 206.88 329 173.4 350.2 173.4 348.69 180.44 334.95 180.44 333.58 186.81 346.04 186.81 344.67 193.38 332.21 193.38 330.84 199.8 344.63 199.8 343.12 206.88 321.91 206.88"/><polygon points="349.35 206.88 356.43 173.4 363.89 173.4 358.27 199.75 372.49 199.75 370.98 206.88 349.35 206.88"/><path d="M455.25,382.26l4.3,6.23a13.48,13.48,0,0,0,2.55-8.17c0-4.91-2.74-8.26-7.7-8.26s-10,4.25-10,12.09c0,5,2.83,8.36,7.65,8.36a7,7,0,0,0,1.94-.24l-4.4-6.37Zm-.47-17.38c9.07,0,15,6.14,15,15.16a20.09,20.09,0,0,1-5.86,14.78l3.21,4.68-5.71,3.59-3.16-4.58a17.31,17.31,0,0,1-6.57,1.27c-8.92,0-14.92-6.19-14.92-15.2,0-12.33,8.74-19.7,18-19.7" transform="translate(-47.3 -192.19)"/><path d="M503.75,365.59l-4.82,22.72c-1.65,7.65-7.08,11.47-13.6,11.47-7.27,0-12.09-4.44-12.09-11a20.44,20.44,0,0,1,.57-4.3l3.92-18.84h7.55l-4.06,19.22a16.71,16.71,0,0,0-.37,2.83c0,2.79,1.46,4.77,5.14,4.77,2.93,0,5-1.79,5.76-5.47l4.44-21.35Z" transform="translate(-47.3 -192.19)"/><path d="M514,385.47h7.74L520.28,374Zm8.64,6.8H510.22l-3.73,6.8h-8.36l19.46-33.48h8.64l5,33.48h-7.74Z" transform="translate(-47.3 -192.19)"/><polygon points="487.14 206.88 494.23 173.4 501.69 173.4 496.07 199.75 510.28 199.75 508.77 206.88 487.14 206.88"/><polygon points="513.54 206.88 520.62 173.4 528.18 173.4 521.05 206.88 513.54 206.88"/><polygon points="528.32 206.88 535.4 173.4 556.93 173.4 555.42 180.49 541.3 180.49 539.84 187.57 552.26 187.57 550.8 194.37 538.47 194.37 535.78 206.88 528.32 206.88"/><polygon points="555 206.88 562.08 173.4 569.64 173.4 562.51 206.88 555 206.88"/><path d="M636.77,364.88c9.54,0,13.51,6.24,14.26,10.86L643.71,378c-.47-2.45-2.31-5.95-7.46-5.95-4.86,0-10.15,4.2-10.15,12,0,4.77,3,8.41,8,8.41,4.81,0,6.94-3.4,7.93-5.62l6.66,2.69a15.68,15.68,0,0,1-15.25,10.25c-9,0-15-6.52-15-15.3,0-12.33,8.93-19.6,18.13-19.6Z" transform="translate(-47.3 -192.19)"/><path d="M663.12,385.47h7.75L669.4,374Zm8.64,6.8H659.34l-3.73,6.8h-8.36l19.46-33.48h8.64l5,33.48h-7.74Z" transform="translate(-47.3 -192.19)"/><polygon points="652.84 180.53 647.22 206.88 639.76 206.88 645.33 180.53 635.51 180.53 637.07 173.4 663.75 173.4 662.19 180.53 652.84 180.53"/><polygon points="661.2 206.88 668.28 173.4 675.84 173.4 668.71 206.88 661.2 206.88"/><path d="M742.31,372.06c-4.86,0-10,4.25-10,12.09,0,5,2.83,8.36,7.65,8.36S750,388.16,750,380.32c0-4.91-2.74-8.26-7.7-8.26m.38-7.18c9.07,0,15,6.14,15,15.16,0,12.33-8.78,19.74-18.09,19.74-8.92,0-14.92-6.19-14.92-15.2,0-12.33,8.74-19.7,18-19.7" transform="translate(-47.3 -192.19)"/><polygon points="732.79 206.88 723.91 184.93 719.24 206.88 711.87 206.88 718.95 173.4 727.45 173.4 735.48 193.8 739.83 173.4 747.29 173.4 740.16 206.88 732.79 206.88"/><polygon points="129.16 129.73 151.56 2.69 179.87 2.69 162.24 102.67 217.07 102.67 212.3 129.73 129.16 129.73"/><polygon points="225.67 129.73 248.07 2.69 328.53 2.69 323.82 29.39 271.67 29.39 267.41 53.58 314.71 53.58 310.32 78.48 263.01 78.48 258.72 102.85 311.04 102.85 306.3 129.73 225.67 129.73"/><polygon points="431.04 2.69 461.14 2.69 392.33 129.73 363.13 129.73 338.94 2.69 370.11 2.69 384.99 92.1 431.04 2.69"/><polygon points="449.79 129.73 472.19 2.69 552.64 2.69 547.93 29.39 495.79 29.39 491.53 53.58 538.83 53.58 534.44 78.48 487.13 78.48 482.84 102.85 535.16 102.85 530.42 129.73 449.79 129.73"/><polygon points="541.27 129.73 563.67 2.69 591.98 2.69 574.35 102.67 629.18 102.67 624.41 129.73 541.27 129.73"/><polygon points="82.33 56.07 78.16 79.74 116.81 79.74 120.98 56.07 82.33 56.07"/><path d="M755,246.3l-16.46-3.22c-8.49-1.61-11.47-6.1-10.39-12.19,1.23-7,9.21-13.62,19.78-13.62,10.14,0,14.91,4.35,17,9h27.27l.8-.21c-.07-14.88-8.72-33.87-40.44-33.87-24.37,0-48.48,16.84-52.71,40.85-3.32,18.82,7.23,33.15,28,37.27l16.81,3.23c8.14,1.61,12.51,6.27,11.38,12.72-1.39,7.89-9.15,13.26-20.26,13.26-12.62,0-19.26-5.4-21.59-12.81H686.12c-.06,17.41,11.57,37.9,44.89,37.9,30.29,0,50.52-20.25,54-40.14,3.19-18.1-6.6-33.69-30-38.17" transform="translate(-47.3 -192.19)"/><polygon points="57.48 2.48 6.54 2.52 0.62 29.67 28.49 29.65 57.48 2.48"/><polygon points="57.49 2.48 75.89 29.61 102.19 29.59 108.11 2.44 57.49 2.48"/><polygon points="37.82 30.57 16.88 129.98 45.28 129.96 66.39 30.57 37.82 30.57"/><polygon points="212.47 173.43 199.12 173.44 197.57 180.56 204.87 180.56 212.47 173.43"/><polygon points="212.48 173.43 217.3 180.55 224.2 180.54 225.75 173.42 212.48 173.43"/><polygon points="207.32 180.8 201.83 206.86 209.28 206.86 214.81 180.8 207.32 180.8"/></svg>