<?xml version="1.0" encoding="UTF-8"?>
<svg width="600px" height="557px" viewBox="0 0 600 557" version="1.1" xmlns="http://www.w3.org/2000/svg" xmlns:xlink="http://www.w3.org/1999/xlink">
    <!-- Generator: Sketch 54.1 (76490) - https://sketchapp.com -->
    <title>600px</title>
    <desc>Created with Sketch.</desc>
    <defs>
        <polygon id="path-1" points="0 0 600 0 600 556.8 0 556.8"></polygon>
        <polygon id="path-3" points="0 0 600 0 600 556.8 0 556.8"></polygon>
        <path d="M39.610624,1.8656 L54.90352,1.8656 L59.717952,45.28 L79.25888,1.8656 L95.40128,1.8656 L63.116368,69.0736 L48.106672,69.0736 L43.292256,24.5216 L20.258512,69.0736 L4.304816,69.0736 L0.34,1.8656 L15.34968,1.8656 L17.332096,45.1856 L39.610624,1.8656 Z M131.368,69.0736 L88.98208,69.0736 L103.14224,1.8656 L145.528,1.8656 L142.5072,15.9904 L115.03664,15.9904 L112.29904,28.7872 L137.2208,28.7872 L134.4832,41.9632 L109.56144,41.9632 L106.82384,54.8544 L134.3888,54.8544 L131.368,69.0736 Z M187.06432,69.0736 L143.8288,69.0736 L157.98896,1.8656 L172.90416,1.8656 L161.67056,54.76 L190.08512,54.76 L187.06432,69.0736 Z M231.14928,0.5392 L231.52688,0.4448 C250.59584,0.4448 258.52544,12.9568 260.036,22.2464 L245.40384,26.7968 C244.45984,21.8672 240.77824,14.8528 230.48848,14.8528 C220.76528,14.8528 210.19248,23.2896 210.19248,39.024 C210.19248,48.5984 216.23408,55.8976 226.24048,55.8976 C235.86944,55.8976 240.11744,49.072 242.09984,44.6176 L255.41024,50.0208 C252.20064,58.6464 243.13824,70.5904 224.91888,70.5904 C206.88848,70.5904 194.89952,57.5088 194.89952,39.8768 C194.89952,15.1376 212.74128,0.5392 231.14928,0.5392 Z M262.5848,39.9728 C262.5848,15.232 280.0488,0.4448 298.64576,0.4448 C316.77072,0.4448 328.57072,12.768 328.57072,30.872 C328.57072,55.6128 311.01216,70.4944 292.41536,70.4944 C274.5736,70.4944 262.5848,58.0768 262.5848,39.9728 Z M313.27776,31.4416 C313.27776,21.5824 307.80256,14.8528 297.89056,14.8528 C288.16736,14.8528 277.8776,23.384 277.8776,39.1184 C277.8776,49.1664 283.5416,55.8976 293.17056,55.8976 C302.89376,55.8976 313.27776,47.176 313.27776,31.4416 Z M407.112,69.0736 L392.47984,69.0736 L401.92,24.616 L375.48784,69.0736 L363.59328,69.0736 L355.00288,25.1856 L345.65728,69.0736 L331.59152,69.0736 L345.75168,1.8656 L364.25408,1.8656 L373.41104,47.176 L399.6544,1.8656 L421.3664,1.8656 L407.112,69.0736 Z M464.12992,69.0736 L421.744,69.0736 L435.90416,1.8656 L478.28992,1.8656 L475.26912,15.9904 L447.79856,15.9904 L445.06096,28.7872 L469.98272,28.7872 L467.24512,41.9632 L442.32336,41.9632 L439.58576,54.8544 L467.15072,54.8544 L464.12992,69.0736 Z" id="path-5"></path>
        <polygon id="path-7" points="0.89767216 1.54878752 102.4 1.54878752 102.4 68.169696 0.89767216 68.169696"></polygon>
        <polygon id="path-9" points="0 0.29758752 83.373856 0.29758752 83.373856 66.918496 0 66.918496"></polygon>
        <polygon id="path-11" points="0.07767216 0.63038752 36.8 0.63038752 36.8 67.251296 0.07767216 67.251296"></polygon>
        <polygon id="path-13" points="0 0.63038752 76.263856 0.63038752 76.263856 67.251296 0 67.251296"></polygon>
        <polygon id="path-15" points="1.16 0.1008 454.4 0.1008 454.4 70.245984 1.16 70.245984"></polygon>
        <polygon id="path-17" points="1.3 0.8944 465.6 0.8944 465.6 71.039584 1.3 71.039584"></polygon>
        <polygon id="path-19" points="0.02 0.112 110.4 0.112 110.4 70.257184 0.02 70.257184"></polygon>
        <polygon id="path-21" points="0 0.0704 17.98992 0.0704 17.98992 70.215584 0 70.215584"></polygon>
        <path d="M53.39616,15.8272 L34.71536,15.8272 L23.48816,68.792 L8.58128,68.792 L19.71424,15.8272 L0.09008,15.8272 L3.20352,1.4944 L56.5096,1.4944 L53.39616,15.8272 Z M52.64128,39.6528 C52.64128,14.8784 70.09552,0.0704 88.68192,0.0704 C106.79664,0.0704 118.59008,12.4112 118.59008,30.5408 C118.59008,55.3136 101.04144,70.216 82.45504,70.216 C64.62336,70.216 52.64128,57.7824 52.64128,39.6528 Z M103.30576,31.1104 C103.30576,21.2384 97.8336,14.4992 87.9272,14.4992 C78.20944,14.4992 67.9256,23.0416 67.9256,38.7984 C67.9256,48.8592 73.5864,55.5984 83.20976,55.5984 C92.92752,55.5984 103.30576,46.8656 103.30576,31.1104 Z" id="path-23"></path>
        <polygon id="path-25" points="0 0.4624 109.63 0.4624 109.63 70.607584 0 70.607584"></polygon>
        <path d="M54.052,15.5184 L35.2816,15.5184 L24.00048,68.2432 L9.02208,68.2432 L20.20848,15.5184 L0.49008,15.5184 L3.6184,1.2496 L57.18048,1.2496 L54.052,15.5184 Z M106.85552,68.2432 L91.7824,68.2432 L97.4704,41.408 L72.72752,41.408 L66.9448,68.2432 L52.06128,68.2432 L66.28128,1.2496 L81.25952,1.2496 L75.6664,27.3296 L100.504,27.3296 L106.09712,1.2496 L121.1704,1.2496 L106.85552,68.2432 Z M164.02,68.2432 L121.45488,68.2432 L135.67488,1.2496 L178.24,1.2496 L175.2064,15.3296 L147.61968,15.3296 L144.8704,28.0848 L169.8976,28.0848 L167.14848,41.2192 L142.12128,41.2192 L139.372,54.0704 L167.0536,54.0704 L164.02,68.2432 Z" id="path-27"></path>
        <polygon id="path-29" points="0.66 0.8352 35.2 0.8352 35.2 67.827792 0.66 67.827792"></polygon>
        <path d="M57.623936,67.1056 L42.869328,67.1056 L25.088128,23.168 L15.724624,67.1056 L0.97,67.1056 L15.157136,0.112 L32.181696,0.112 L48.260432,40.9312 L56.961872,0.112 L71.9056,0.112 L57.623936,67.1056 Z M114.65616,67.1056 L72.18944,67.1056 L86.37648,0.112 L128.84336,0.112 L125.8168,14.192 L98.29376,14.192 L95.55088,26.9472 L120.52016,26.9472 L117.77744,40.0816 L92.808,40.0816 L90.06512,52.9312 L117.68272,52.9312 L114.65616,67.1056 Z M156.17728,46.5072 L139.43632,67.1056 L120.4256,67.1056 L149.93488,33.184 L134.6128,0.112 L151.92112,0.112 L160.71712,20.8064 L177.55248,0.112 L196.46864,0.112 L167.05408,34.0336 L182.47072,67.1056 L164.97328,67.1056 L156.17728,46.5072 Z M227.344,0.112 L211.94336,15.1968 L197.14272,15.2096 L200.284,0.1312 L227.344,0.112 Z M227.344,0.1344 L253.77008,0.112 L250.6832,15.2 L236.95616,15.2096 L227.344,0.1344 Z M217.07088,15.2096 L232.32,15.2096 L221.05456,67.096 L205.89408,67.1056 L217.07088,15.2096 Z" id="path-31"></path>
        <path d="M44.04992,68.3312 L0.36,68.3312 L14.66896,1.3392 L29.74096,1.3392 L18.38928,54.064 L47.10256,54.064 L44.04992,68.3312 Z M95.66656,68.3312 L53.25296,68.3312 L67.42224,1.3392 L109.836,1.3392 L106.81312,15.4176 L79.32448,15.4176 L76.58512,28.1744 L101.5232,28.1744 L98.78384,41.3088 L73.84576,41.3088 L71.10624,54.1584 L98.68944,54.1584 L95.66656,68.3312 Z M131.06416,1.3392 L137.056,48.7728 L162.83024,1.3392 L179.94976,1.3392 L141.1456,68.3312 L125.64304,68.3312 L115.3712,1.3392 L131.06416,1.3392 Z M216.21312,68.3312 L173.79952,68.3312 L187.9688,1.3392 L230.38256,1.3392 L227.35968,15.4176 L199.8712,15.4176 L197.13168,28.1744 L222.06992,28.1744 L219.3304,41.3088 L194.39232,41.3088 L191.65296,54.1584 L219.236,54.1584 L216.21312,68.3312 Z M272.22736,68.3312 L228.53744,68.3312 L242.8464,1.3392 L257.91856,1.3392 L246.56672,54.064 L275.28,54.064 L272.22736,68.3312 Z" id="path-33"></path>
        <polygon id="path-35" points="0.38 1.2496 12.8 1.2496 12.8 68.242192 0.38 68.242192"></polygon>
        <polygon id="path-37" points="0 1.3632 90.67008 1.3632 90.67008 68.355792 0 68.355792"></polygon>
        <polygon id="path-39" points="0 0.1008 123.85 0.1008 123.85 67.093392 0 67.093392"></polygon>
        <polygon id="path-41" points="0 0.0832 113.58 0.0832 113.58 67.075792 0 67.075792"></polygon>
    </defs>
    <g id="Page-1" stroke="none" stroke-width="1" fill="none" fill-rule="evenodd">
        <g id="600px">
            <g id="Group-89">
                <g id="Group">
                    <mask id="mask-2" fill="white">
                        <use xlink:href="#path-1"></use>
                    </mask>
                    <g id="Clip-87"></g>
                    <polygon id="Fill-86" fill="#D8D8D8" mask="url(#mask-2)" points="-54.4 -8 654.4 -8 654.4 564.8 -54.4 564.8"></polygon>
                    <polygon id="Fill-88" fill="#000000" mask="url(#mask-2)" points="-267.2 -43.2 870.4 -43.2 870.4 595.2 -267.2 595.2"></polygon>
                    <g id="Group-167" mask="url(#mask-2)">
                        <g id="Group-92">
                            <mask id="mask-4" fill="white">
                                <use xlink:href="#path-3"></use>
                            </mask>
                            <g id="Clip-91"></g>
                            <polygon id="Fill-90" fill="#000000" mask="url(#mask-4)" points="-275.2 -51.2 878.4 -51.2 878.4 603.2 -275.2 603.2"></polygon>
                        </g>
                        <g id="Group-95" transform="translate(84.800000, 86.400000)">
                            <mask id="mask-6" fill="white">
                                <use xlink:href="#path-5"></use>
                            </mask>
                            <g id="Clip-94"></g>
                            <polygon id="Fill-93" fill="#FC4422" mask="url(#mask-6)" points="-7.66 -7.5552 486.28992 -7.5552 486.28992 78.5904 -7.66 78.5904"></polygon>
                        </g>
                        <g id="Group-132" transform="translate(0.000000, 3.200000)">
                            <path d="M170.58296,461.620832 L185.77048,395.631 L185.507856,395.295675 L151.656176,422.244576 L185.507856,395.295675 L185.77048,395.631 L170.58296,461.620832 L77.4275922,461.620832 L170.58296,461.620832 Z M170.58296,461.620832 L170.548688,461.769696 L170.58296,461.620832 L170.848448,461.620832 L170.58296,461.620832 Z M185.77048,395.631 L206.613856,422.244576 L185.77048,395.631 L185.881456,395.148788 L185.77048,395.631 Z M185.507856,395.295675 L185.692368,395.148788 L185.507856,395.295675 L185.392816,395.148788 L185.507856,395.295675 Z" id="Stroke-96" stroke="#FFFFFF" stroke-width="2" stroke-linecap="square"></path>
                            <g id="Group-100" transform="translate(497.600000, 393.600000)">
                                <mask id="mask-8" fill="white">
                                    <use xlink:href="#path-7"></use>
                                </mask>
                                <g id="Clip-99"></g>
                                <path d="M94.05304,68.020832 L0.89767216,68.020832 L94.05304,68.020832 L109.24056,2.03099952 L108.977936,1.6956752 L75.126256,28.644576 L108.977936,1.6956752 L109.24056,2.03099952 L94.05304,68.020832 Z M94.05304,68.020832 L94.018768,68.169696 L94.05304,68.020832 L94.318528,68.020832 L94.05304,68.020832 Z M109.24056,2.03099952 L130.083936,28.644576 L109.24056,2.03099952 L109.351536,1.54878752 L109.24056,2.03099952 Z M108.977936,1.6956752 L109.162448,1.54878752 L108.977936,1.6956752 L108.862896,1.54878752 L108.977936,1.6956752 Z" id="Stroke-98" stroke="#FFFFFF" stroke-width="2" stroke-linecap="square" mask="url(#mask-8)"></path>
                            </g>
                            <path d="M210.87296,309.507232 L226.06048,243.5174 L225.797856,243.182075 L191.946176,270.130976 L225.797856,243.182075 L226.06048,243.5174 L226.171456,243.035188 L226.06048,243.5174 L246.903856,270.130976 L226.06048,243.5174 L210.87296,309.507232 L117.717592,309.507232 L210.87296,309.507232 Z M210.87296,309.507232 L211.138448,309.507232 L210.87296,309.507232 L210.838688,309.656096 L210.87296,309.507232 Z M225.797856,243.182075 L225.982368,243.035188 L225.797856,243.182075 L225.682816,243.035188 L225.797856,243.182075 Z" id="Stroke-101" stroke="#FFFFFF" stroke-width="2" stroke-linecap="square"></path>
                            <path d="M432.86296,385.169632 L448.05048,319.1798 L447.787856,318.844475 L413.936176,345.793376 L447.787856,318.844475 L448.05048,319.1798 L448.161456,318.697588 L448.05048,319.1798 L468.893856,345.793376 L448.05048,319.1798 L432.86296,385.169632 L433.128448,385.169632 L432.86296,385.169632 L432.828688,385.318496 L432.86296,385.169632 L339.707592,385.169632 L432.86296,385.169632 Z M447.787856,318.844475 L447.972368,318.697588 L447.787856,318.844475 L447.672816,318.697588 L447.787856,318.844475 Z" id="Stroke-103" stroke="#FFFFFF" stroke-width="2" stroke-linecap="square"></path>
                            <g id="Group-107" transform="translate(0.000000, 318.400000)">
                                <mask id="mask-10" fill="white">
                                    <use xlink:href="#path-9"></use>
                                </mask>
                                <g id="Clip-106"></g>
                                <path d="M47.34296,66.769632 L62.53048,0.77979952 L62.267856,0.4444752 L28.416176,27.393376 L62.267856,0.4444752 L62.53048,0.77979952 L47.34296,66.769632 L47.608448,66.769632 L47.34296,66.769632 L47.308688,66.918496 L47.34296,66.769632 L-45.8124078,66.769632 L47.34296,66.769632 Z M62.53048,0.77979952 L62.641456,0.29758752 L62.53048,0.77979952 L83.373856,27.393376 L62.53048,0.77979952 Z M62.267856,0.4444752 L62.452368,0.29758752 L62.267856,0.4444752 L62.152816,0.29758752 L62.267856,0.4444752 Z" id="Stroke-105" stroke="#FFFFFF" stroke-width="2" stroke-linecap="square" mask="url(#mask-10)"></path>
                            </g>
                            <path d="M536.35304,309.507232 L443.197672,309.507232 L536.35304,309.507232 L551.54056,243.5174 L551.277936,243.182075 L517.426256,270.130976 L551.277936,243.182075 L551.54056,243.5174 L536.35304,309.507232 Z M536.35304,309.507232 L536.618528,309.507232 L536.35304,309.507232 L536.318768,309.656096 L536.35304,309.507232 Z M551.54056,243.5174 L572.383936,270.130976 L551.54056,243.5174 L551.651536,243.035188 L551.54056,243.5174 Z M551.277936,243.182075 L551.462448,243.035188 L551.277936,243.182075 L551.162896,243.035188 L551.277936,243.182075 Z" id="Stroke-108" stroke="#FFFFFF" stroke-width="2" stroke-linecap="square"></path>
                            <path d="M117.65296,230.692832 L132.84048,164.703 L132.577856,164.367675 L98.726176,191.316576 L132.577856,164.367675 L132.84048,164.703 L117.65296,230.692832 L24.4975922,230.692832 L117.65296,230.692832 Z M117.65296,230.692832 L117.918448,230.692832 L117.65296,230.692832 L117.618688,230.841696 L117.65296,230.692832 Z M132.84048,164.703 L153.683856,191.316576 L132.84048,164.703 L132.951456,164.220788 L132.84048,164.703 Z M132.577856,164.367675 L132.762368,164.220788 L132.577856,164.367675 L132.462816,164.220788 L132.577856,164.367675 Z" id="Stroke-110" stroke="#FFFFFF" stroke-width="2" stroke-linecap="square"></path>
                            <path d="M379.93304,230.692832 L395.12056,164.703 L415.963936,191.316576 L395.12056,164.703 L395.231536,164.220788 L395.12056,164.703 L394.857936,164.367675 L361.006256,191.316576 L394.857936,164.367675 L395.12056,164.703 L379.93304,230.692832 L286.777672,230.692832 L379.93304,230.692832 Z M379.93304,230.692832 L380.198528,230.692832 L379.93304,230.692832 L379.898768,230.841696 L379.93304,230.692832 Z M394.857936,164.367675 L395.042448,164.220788 L394.857936,164.367675 L394.742896,164.220788 L394.857936,164.367675 Z" id="Stroke-112" stroke="#FFFFFF" stroke-width="2" stroke-linecap="square"></path>
                            <g id="Group-116" transform="translate(563.200000, 83.200000)">
                                <mask id="mask-12" fill="white">
                                    <use xlink:href="#path-11"></use>
                                </mask>
                                <g id="Clip-115"></g>
                                <path d="M93.23304,67.102432 L108.42056,1.11259952 L108.157936,0.7772752 L74.306256,27.726176 L108.157936,0.7772752 L108.42056,1.11259952 L93.23304,67.102432 L0.07767216,67.102432 L93.23304,67.102432 Z M93.23304,67.102432 L93.198768,67.251296 L93.23304,67.102432 L93.498528,67.102432 L93.23304,67.102432 Z M108.42056,1.11259952 L129.263936,27.726176 L108.42056,1.11259952 L108.531536,0.63038752 L108.42056,1.11259952 Z M108.157936,0.7772752 L108.342448,0.63038752 L108.157936,0.7772752 L108.042896,0.63038752 L108.157936,0.7772752 Z" id="Stroke-114" stroke="#FFFFFF" stroke-width="2" stroke-linecap="square" mask="url(#mask-12)"></path>
                            </g>
                            <g id="Group-119" transform="translate(0.000000, 83.200000)">
                                <mask id="mask-14" fill="white">
                                    <use xlink:href="#path-13"></use>
                                </mask>
                                <g id="Clip-118"></g>
                                <path d="M40.23296,67.102432 L55.42048,1.11259952 L76.263856,27.726176 L55.42048,1.11259952 L55.531456,0.63038752 L55.42048,1.11259952 L55.157856,0.7772752 L21.306176,27.726176 L55.157856,0.7772752 L55.42048,1.11259952 L40.23296,67.102432 L-52.9224078,67.102432 L40.23296,67.102432 Z M40.23296,67.102432 L40.198688,67.251296 L40.23296,67.102432 L40.498448,67.102432 L40.23296,67.102432 Z M55.157856,0.7772752 L55.342368,0.63038752 L55.157856,0.7772752 L55.042816,0.63038752 L55.157856,0.7772752 Z" id="Stroke-117" stroke="#FFFFFF" stroke-width="2" stroke-linecap="square" mask="url(#mask-14)"></path>
                            </g>
                            <g id="Group-122" transform="translate(145.600000, 0.000000)">
                                <mask id="mask-16" fill="white">
                                    <use xlink:href="#path-15"></use>
                                </mask>
                                <g id="Clip-121"></g>
                                <path d="M40.430624,1.52266192 L55.72352,1.52266192 L60.537952,44.936848 L80.078864,1.52266192 L96.22136,1.52266192 L63.936368,68.729328 L48.926672,68.729328 L44.112256,24.177664 L21.078512,68.729328 L5.124824,68.729328 L1.16,1.52266192 L16.169688,1.52266192 L18.152096,44.842048 L40.430624,1.52266192 Z M132.187968,68.729328 L89.802112,68.729328 L103.962208,1.52266192 L146.348048,1.52266192 L143.327232,15.6464896 L115.856672,15.6464896 L113.119056,28.443248 L138.0408,28.443248 L135.303184,41.619168 L110.38144,41.619168 L107.643824,54.51072 L135.208784,54.51072 L132.187968,68.729328 Z M187.88432,68.729328 L144.648848,68.729328 L158.808928,1.52266192 L173.72416,1.52266192 L162.49056,54.41592 L190.90512,54.41592 L187.88432,68.729328 Z M231.96928,0.195590784 L232.34688,0.1008 C251.41584,0.1008 259.34544,12.613184 260.856,21.902688 L246.22384,26.45264 C245.27984,21.52352 241.59824,14.509 231.30848,14.509 C221.58528,14.509 211.01248,22.945376 211.01248,38.680656 C211.01248,48.254528 217.05408,55.553408 227.06048,55.553408 C236.68944,55.553408 240.93744,48.72848 242.91984,44.273312 L256.23024,49.676384 C253.02064,58.302352 243.95824,70.245984 225.73888,70.245984 C207.70848,70.245984 195.71952,57.164864 195.71952,39.533776 C195.71952,14.7933728 213.56128,0.195590784 231.96928,0.195590784 Z M263.4048,39.62856 C263.4048,14.8881632 280.8688,0.1008 299.46576,0.1008 C317.59072,0.1008 329.39072,12.4236032 329.39072,30.52864 C329.39072,55.26904 311.83216,70.1512 293.23536,70.1512 C275.3936,70.1512 263.4048,57.7336 263.4048,39.62856 Z M314.09776,31.097392 C314.09776,21.239152 308.62256,14.509 298.71056,14.509 C288.98736,14.509 278.6976,23.040176 278.6976,38.77544 C278.6976,48.823264 284.3616,55.553408 293.99056,55.553408 C303.71376,55.553408 314.09776,46.832656 314.09776,31.097392 Z M407.932,68.729328 L393.29984,68.729328 L402.74,24.272448 L376.30784,68.729328 L364.41328,68.729328 L355.82288,24.8412 L346.47728,68.729328 L332.41152,68.729328 L346.57168,1.52266192 L365.07408,1.52266192 L374.23104,46.832656 L400.4744,1.52266192 L422.1864,1.52266192 L407.932,68.729328 Z M464.94992,68.729328 L422.564,68.729328 L436.72416,1.52266192 L479.10992,1.52266192 L476.08912,15.6464896 L448.61856,15.6464896 L445.88096,28.443248 L470.80272,28.443248 L468.06512,41.619168 L443.14336,41.619168 L440.40576,54.51072 L467.97072,54.51072 L464.94992,68.729328 Z" id="Stroke-120" stroke="#FFFFFF" stroke-width="2" mask="url(#mask-16)"></path>
                            </g>
                            <g id="Group-125" transform="translate(134.400000, 478.400000)">
                                <mask id="mask-18" fill="white">
                                    <use xlink:href="#path-17"></use>
                                </mask>
                                <g id="Clip-124"></g>
                                <path d="M40.570624,2.31626192 L55.86352,2.31626192 L60.677952,45.730448 L80.218864,2.31626192 L96.36136,2.31626192 L64.076368,69.522928 L49.066672,69.522928 L44.252256,24.971264 L21.218512,69.522928 L5.264824,69.522928 L1.3,2.31626192 L16.309688,2.31626192 L18.292096,45.635648 L40.570624,2.31626192 Z M132.327968,69.522928 L89.942112,69.522928 L104.102208,2.31626192 L146.488048,2.31626192 L143.467232,16.4400896 L115.996672,16.4400896 L113.259056,29.236848 L138.1808,29.236848 L135.443184,42.412768 L110.52144,42.412768 L107.783824,55.30432 L135.348784,55.30432 L132.327968,69.522928 Z M188.02432,69.522928 L144.788848,69.522928 L158.948928,2.31626192 L173.86416,2.31626192 L162.63056,55.20952 L191.04512,55.20952 L188.02432,69.522928 Z M232.10928,0.989190784 L232.48688,0.8944 C251.55584,0.8944 259.48544,13.406784 260.996,22.696288 L246.36384,27.24624 C245.41984,22.31712 241.73824,15.3026 231.44848,15.3026 C221.72528,15.3026 211.15248,23.738976 211.15248,39.474256 C211.15248,49.048128 217.19408,56.347008 227.20048,56.347008 C236.82944,56.347008 241.07744,49.52208 243.05984,45.066912 L256.37024,50.469984 C253.16064,59.095952 244.09824,71.039584 225.87888,71.039584 C207.84848,71.039584 195.85952,57.958464 195.85952,40.327376 C195.85952,15.5869728 213.70128,0.989190784 232.10928,0.989190784 Z M263.5448,40.42216 C263.5448,15.6817632 281.0088,0.8944 299.60576,0.8944 C317.73072,0.8944 329.53072,13.2172032 329.53072,31.32224 C329.53072,56.06264 311.97216,70.9448 293.37536,70.9448 C275.5336,70.9448 263.5448,58.5272 263.5448,40.42216 Z M314.23776,31.890992 C314.23776,22.032752 308.76256,15.3026 298.85056,15.3026 C289.12736,15.3026 278.8376,23.833776 278.8376,39.56904 C278.8376,49.616864 284.5016,56.347008 294.13056,56.347008 C303.85376,56.347008 314.23776,47.626256 314.23776,31.890992 Z M408.072,69.522928 L393.43984,69.522928 L402.88,25.066048 L376.44784,69.522928 L364.55328,69.522928 L355.96288,25.6348 L346.61728,69.522928 L332.55152,69.522928 L346.71168,2.31626192 L365.21408,2.31626192 L374.37104,47.626256 L400.6144,2.31626192 L422.3264,2.31626192 L408.072,69.522928 Z M465.08992,69.522928 L422.704,69.522928 L436.86416,2.31626192 L479.24992,2.31626192 L476.22912,16.4400896 L448.75856,16.4400896 L446.02096,29.236848 L470.94272,29.236848 L468.20512,42.412768 L443.28336,42.412768 L440.54576,55.30432 L468.11072,55.30432 L465.08992,69.522928 Z" id="Stroke-123" stroke="#FFFFFF" stroke-width="2" mask="url(#mask-18)"></path>
                            </g>
                            <g id="Group-128" transform="translate(489.600000, 318.400000)">
                                <mask id="mask-20" fill="white">
                                    <use xlink:href="#path-19"></use>
                                </mask>
                                <g id="Clip-127"></g>
                                <path d="M39.290624,1.53386192 L54.58352,1.53386192 L59.397952,44.948048 L78.938864,1.53386192 L95.08136,1.53386192 L62.796368,68.740528 L47.786672,68.740528 L42.972256,24.188864 L19.938512,68.740528 L3.984824,68.740528 L0.02,1.53386192 L15.029688,1.53386192 L17.012096,44.853248 L39.290624,1.53386192 Z M131.047968,68.740528 L88.662112,68.740528 L102.822208,1.53386192 L145.208048,1.53386192 L142.187232,15.6576896 L114.716672,15.6576896 L111.979056,28.454448 L136.9008,28.454448 L134.163184,41.630368 L109.24144,41.630368 L106.503824,54.52192 L134.068784,54.52192 L131.047968,68.740528 Z M186.74432,68.740528 L143.508848,68.740528 L157.668928,1.53386192 L172.58416,1.53386192 L161.35056,54.42712 L189.76512,54.42712 L186.74432,68.740528 Z M230.82928,0.206790784 L231.20688,0.112 C250.27584,0.112 258.20544,12.624384 259.716,21.913888 L245.08384,26.46384 C244.13984,21.53472 240.45824,14.5202 230.16848,14.5202 C220.44528,14.5202 209.87248,22.956576 209.87248,38.691856 C209.87248,48.265728 215.91408,55.564608 225.92048,55.564608 C235.54944,55.564608 239.79744,48.73968 241.77984,44.284512 L255.09024,49.687584 C251.88064,58.313552 242.81824,70.257184 224.59888,70.257184 C206.56848,70.257184 194.57952,57.176064 194.57952,39.544976 C194.57952,14.8045728 212.42128,0.206790784 230.82928,0.206790784 Z M262.2648,39.63976 C262.2648,14.8993632 279.7288,0.112 298.32576,0.112 C316.45072,0.112 328.25072,12.4348032 328.25072,30.53984 C328.25072,55.28024 310.69216,70.1624 292.09536,70.1624 C274.2536,70.1624 262.2648,57.7448 262.2648,39.63976 Z M312.95776,31.108592 C312.95776,21.250352 307.48256,14.5202 297.57056,14.5202 C287.84736,14.5202 277.5576,23.051376 277.5576,38.78664 C277.5576,48.834464 283.2216,55.564608 292.85056,55.564608 C302.57376,55.564608 312.95776,46.843856 312.95776,31.108592 Z M406.792,68.740528 L392.15984,68.740528 L401.6,24.283648 L375.16784,68.740528 L363.27328,68.740528 L354.68288,24.8524 L345.33728,68.740528 L331.27152,68.740528 L345.43168,1.53386192 L363.93408,1.53386192 L373.09104,46.843856 L399.3344,1.53386192 L421.0464,1.53386192 L406.792,68.740528 Z M463.80992,68.740528 L421.424,68.740528 L435.58416,1.53386192 L477.96992,1.53386192 L474.94912,15.6576896 L447.47856,15.6576896 L444.74096,28.454448 L469.66272,28.454448 L466.92512,41.630368 L442.00336,41.630368 L439.26576,54.52192 L466.83072,54.52192 L463.80992,68.740528 Z" id="Stroke-126" stroke="#FFFFFF" stroke-width="2" mask="url(#mask-20)"></path>
                            </g>
                            <g id="Group-131" transform="translate(0.000000, 161.600000)">
                                <mask id="mask-22" fill="white">
                                    <use xlink:href="#path-21"></use>
                                </mask>
                                <g id="Clip-130"></g>
                                <path d="M-420.689376,1.49226192 L-405.39648,1.49226192 L-400.582048,44.906448 L-381.041136,1.49226192 L-364.89864,1.49226192 L-397.183632,68.698928 L-412.193328,68.698928 L-417.007744,24.147264 L-440.041488,68.698928 L-455.995176,68.698928 L-459.96,1.49226192 L-444.950312,1.49226192 L-442.967904,44.811648 L-420.689376,1.49226192 Z M-328.932032,68.698928 L-371.317888,68.698928 L-357.157792,1.49226192 L-314.771952,1.49226192 L-317.792768,15.6160896 L-345.263328,15.6160896 L-348.000944,28.412848 L-323.0792,28.412848 L-325.816816,41.588768 L-350.73856,41.588768 L-353.476176,54.48032 L-325.911216,54.48032 L-328.932032,68.698928 Z M-273.23568,68.698928 L-316.471152,68.698928 L-302.311072,1.49226192 L-287.39584,1.49226192 L-298.62944,54.38552 L-270.21488,54.38552 L-273.23568,68.698928 Z M-229.15072,0.165190784 L-228.77312,0.0704 C-209.70416,0.0704 -201.77456,12.582784 -200.264,21.872288 L-214.89616,26.42224 C-215.84016,21.49312 -219.52176,14.4786 -229.81152,14.4786 C-239.53472,14.4786 -250.10752,22.914976 -250.10752,38.650256 C-250.10752,48.224128 -244.06592,55.523008 -234.05952,55.523008 C-224.43056,55.523008 -220.18256,48.69808 -218.20016,44.242912 L-204.88976,49.645984 C-208.09936,58.271952 -217.16176,70.215584 -235.38112,70.215584 C-253.41152,70.215584 -265.40048,57.134464 -265.40048,39.503376 C-265.40048,14.7629728 -247.55872,0.165190784 -229.15072,0.165190784 Z M-197.7152,39.59816 C-197.7152,14.8577632 -180.2512,0.0704 -161.65424,0.0704 C-143.52928,0.0704 -131.72928,12.3932032 -131.72928,30.49824 C-131.72928,55.23864 -149.28784,70.1208 -167.88464,70.1208 C-185.7264,70.1208 -197.7152,57.7032 -197.7152,39.59816 Z M-147.02224,31.066992 C-147.02224,21.208752 -152.49744,14.4786 -162.40944,14.4786 C-172.13264,14.4786 -182.4224,23.009776 -182.4224,38.74504 C-182.4224,48.792864 -176.7584,55.523008 -167.12944,55.523008 C-157.40624,55.523008 -147.02224,46.802256 -147.02224,31.066992 Z M-53.188,68.698928 L-67.82016,68.698928 L-58.38,24.242048 L-84.81216,68.698928 L-96.70672,68.698928 L-105.29712,24.8108 L-114.64272,68.698928 L-128.70848,68.698928 L-114.54832,1.49226192 L-96.04592,1.49226192 L-86.88896,46.802256 L-60.6456,1.49226192 L-38.9336,1.49226192 L-53.188,68.698928 Z M3.82992,68.698928 L-38.556,68.698928 L-24.39584,1.49226192 L17.98992,1.49226192 L14.96912,15.6160896 L-12.50144,15.6160896 L-15.23904,28.412848 L9.68272,28.412848 L6.94512,41.588768 L-17.97664,41.588768 L-20.71424,54.48032 L6.85072,54.48032 L3.82992,68.698928 Z" id="Stroke-129" stroke="#FFFFFF" stroke-width="2" mask="url(#mask-22)"></path>
                            </g>
                        </g>
                        <g id="Group-135" transform="translate(168.000000, 164.800000)">
                            <mask id="mask-24" fill="white">
                                <use xlink:href="#path-23"></use>
                            </mask>
                            <g id="Clip-134"></g>
                            <polygon id="Fill-133" fill="#FC4422" mask="url(#mask-24)" points="-7.90992 -7.9296 126.59008 -7.9296 126.59008 78.216 -7.90992 78.216"></polygon>
                        </g>
                        <g id="Group-141" transform="translate(0.000000, 164.800000)">
                            <g id="Group-138" transform="translate(0.000000, 80.000000)">
                                <mask id="mask-26" fill="white">
                                    <use xlink:href="#path-25"></use>
                                </mask>
                                <g id="Clip-137"></g>
                                <path d="M44.436128,16.2189632 L25.755392,16.2189632 L14.528096,69.183792 L-0.3787584,69.183792 L10.754208,16.2189632 L-8.87,16.2189632 L-5.756544,1.88618592 L47.549584,1.88618592 L44.436128,16.2189632 Z M43.68136,40.043648 C43.68136,15.2697728 61.135568,0.4624 79.721952,0.4624 C97.836608,0.4624 109.63,12.8018784 109.63,30.931424 C109.63,55.705296 92.08144,70.607584 73.49504,70.607584 C55.66344,70.607584 43.68136,58.173184 43.68136,40.043648 Z M94.34576,31.500928 C94.34576,21.629344 88.873632,14.8900976 78.967184,14.8900976 C69.249424,14.8900976 58.965584,23.432816 58.965584,39.189376 C58.965584,49.2508 64.626416,55.990048 74.249824,55.990048 C83.967584,55.990048 94.34576,47.257504 94.34576,31.500928 Z" id="Stroke-136" stroke="#FFFFFF" stroke-width="2" mask="url(#mask-26)"></path>
                            </g>
                            <path d="M482.886128,15.8269632 L464.205392,15.8269632 L452.978096,68.791792 L438.071242,68.791792 L449.204208,15.8269632 L429.58,15.8269632 L432.693456,1.49418592 L485.999584,1.49418592 L482.886128,15.8269632 Z M482.13136,39.651648 C482.13136,14.8777728 499.585568,0.0704 518.171952,0.0704 C536.286608,0.0704 548.08,12.4098784 548.08,30.539424 C548.08,55.313296 530.53144,70.215584 511.94504,70.215584 C494.11344,70.215584 482.13136,57.781184 482.13136,39.651648 Z M532.79576,31.108928 C532.79576,21.237344 527.323632,14.4980976 517.417184,14.4980976 C507.699424,14.4980976 497.415584,23.040816 497.415584,38.797376 C497.415584,48.8588 503.076416,55.598048 512.699824,55.598048 C522.417584,55.598048 532.79576,46.865504 532.79576,31.108928 Z" id="Stroke-139" stroke="#FFFFFF" stroke-width="2"></path>
                        </g>
                        <g id="Group-144" transform="translate(262.400000, 244.800000)">
                            <mask id="mask-28" fill="white">
                                <use xlink:href="#path-27"></use>
                            </mask>
                            <g id="Clip-143"></g>
                            <polygon id="Fill-142" fill="#FC4422" mask="url(#mask-28)" points="-7.50992 -6.7504 186.24 -6.7504 186.24 76.2432 -7.50992 76.2432"></polygon>
                        </g>
                        <g id="Group-147" transform="translate(564.800000, 166.400000)">
                            <mask id="mask-30" fill="white">
                                <use xlink:href="#path-29"></use>
                            </mask>
                            <g id="Clip-146"></g>
                            <path d="M54.222,15.103016 L35.4516,15.103016 L24.1704,67.827792 L9.192,67.827792 L20.3784,15.103016 L0.66,15.103016 L3.7884,0.8352 L57.3504,0.8352 L54.222,15.103016 Z M107.0256,67.827792 L91.9524,67.827792 L97.6404,40.99296 L72.8976,40.99296 L67.1148,67.827792 L52.2312,67.827792 L66.4512,0.8352 L81.4296,0.8352 L75.8364,26.914128 L100.674,26.914128 L106.2672,0.8352 L121.3404,0.8352 L107.0256,67.827792 Z M164.19008,67.827792 L121.6248,67.827792 L135.8448,0.8352 L178.41008,0.8352 L175.37648,14.9140384 L147.7896,14.9140384 L145.0404,27.670032 L170.06768,27.670032 L167.3184,40.803984 L142.2912,40.803984 L139.542,53.654464 L167.22368,53.654464 L164.19008,67.827792 Z" id="Stroke-145" stroke="#FFFFFF" stroke-width="2" mask="url(#mask-30)"></path>
                        </g>
                        <g id="Group-150" transform="translate(97.600000, 321.600000)">
                            <mask id="mask-32" fill="white">
                                <use xlink:href="#path-31"></use>
                            </mask>
                            <g id="Clip-149"></g>
                            <polygon id="Fill-148" fill="#FC4422" mask="url(#mask-32)" points="-7.03 -7.888 261.77008 -7.888 261.77008 75.1056 -7.03 75.1056"></polygon>
                        </g>
                        <g id="Group-153" transform="translate(209.600000, 398.400000)">
                            <mask id="mask-34" fill="white">
                                <use xlink:href="#path-33"></use>
                            </mask>
                            <g id="Clip-152"></g>
                            <polygon id="Fill-151" fill="#FC4422" mask="url(#mask-34)" points="-7.64 -6.6608 283.28 -6.6608 283.28 76.3312 -7.64 76.3312"></polygon>
                        </g>
                        <g id="Group-166" transform="translate(0.000000, 3.200000)">
                            <g id="Group-156" transform="translate(587.200000, 241.600000)">
                                <mask id="mask-36" fill="white">
                                    <use xlink:href="#path-35"></use>
                                </mask>
                                <g id="Clip-155"></g>
                                <path d="M57.033936,68.242192 L42.279328,68.242192 L24.498128,24.30488 L15.134616,68.242192 L0.38,68.242192 L14.5671312,1.2496 L31.591696,1.2496 L47.670432,42.068784 L56.371872,1.2496 L71.315648,1.2496 L57.033936,68.242192 Z M114.066208,68.242192 L71.599392,68.242192 L85.786528,1.2496 L128.253344,1.2496 L125.226752,15.3284384 L97.703712,15.3284384 L94.96088,28.084432 L119.930224,28.084432 L117.187376,41.218384 L92.218032,41.218384 L89.475184,54.068864 L117.0928,54.068864 L114.066208,68.242192 Z M155.587216,47.643616 L138.8464,68.242192 L119.835648,68.242192 L149.34488,34.320704 L134.022768,1.2496 L151.331072,1.2496 L160.127104,21.942656 L176.96256,1.2496 L195.87872,1.2496 L166.464,35.171104 L181.88064,68.242192 L164.3832,68.242192 L155.587216,47.643616 Z M226.75392,1.2496 L211.35344,16.3335936 L196.5528,16.3465216 L199.69392,1.26899291 L226.75392,1.2496 Z M226.75392,1.27085416 L253.18,1.2496 L250.09312,16.3363568 L236.36608,16.3465216 L226.75392,1.27085416 Z M215.28,16.3465216 L230.52912,16.3465216 L219.26368,68.23264 L204.10304,68.242192 L215.28,16.3465216 Z" id="Stroke-154" stroke="#FFFFFF" stroke-width="2" mask="url(#mask-36)"></path>
                            </g>
                            <g id="Group-159" transform="translate(0.000000, 393.600000)">
                                <mask id="mask-38" fill="white">
                                    <use xlink:href="#path-37"></use>
                                </mask>
                                <g id="Clip-158"></g>
                                <path d="M-105.475984,68.355792 L-120.230592,68.355792 L-138.011792,24.41848 L-147.375304,68.355792 L-162.12992,68.355792 L-147.942789,1.3632 L-130.918224,1.3632 L-114.839488,42.182384 L-106.138048,1.3632 L-91.194272,1.3632 L-105.475984,68.355792 Z M-48.443712,68.355792 L-90.910528,68.355792 L-76.723392,1.3632 L-34.256576,1.3632 L-37.283168,15.4420384 L-64.806208,15.4420384 L-67.54904,28.198032 L-42.579696,28.198032 L-45.322544,41.331984 L-70.291888,41.331984 L-73.034736,54.182464 L-45.41712,54.182464 L-48.443712,68.355792 Z M-6.922704,47.757216 L-23.66352,68.355792 L-42.674272,68.355792 L-13.16504,34.434304 L-28.487152,1.3632 L-11.178848,1.3632 L-2.382816,22.056256 L14.45264,1.3632 L33.3688,1.3632 L3.95408,35.284704 L19.37072,68.355792 L1.87328,68.355792 L-6.922704,47.757216 Z M64.244,1.3632 L48.84352,16.4471936 L34.04288,16.4601216 L37.184,1.38259291 L64.244,1.3632 Z M64.244,1.38445416 L90.67008,1.3632 L87.5832,16.4499568 L73.85616,16.4601216 L64.244,1.38445416 Z M52.77008,16.4601216 L68.0192,16.4601216 L56.75376,68.34624 L41.59312,68.355792 L52.77008,16.4601216 Z" id="Stroke-157" stroke="#FFFFFF" stroke-width="2" mask="url(#mask-38)"></path>
                            </g>
                            <g id="Group-162">
                                <mask id="mask-40" fill="white">
                                    <use xlink:href="#path-39"></use>
                                </mask>
                                <g id="Clip-161"></g>
                                <path d="M-107.636624,67.093392 L-151.07,67.093392 L-136.845094,0.1008 L-121.861536,0.1008 L-133.146624,52.825584 L-104.601984,52.825584 L-107.636624,67.093392 Z M-55.47864,67.093392 L-98.058528,67.093392 L-83.833616,0.1008 L-41.253728,0.1008 L-44.288384,14.1796384 L-71.884688,14.1796384 L-74.634848,26.935632 L-49.599008,26.935632 L-52.349152,40.069584 L-77.384992,40.069584 L-80.135136,52.920064 L-52.443984,52.920064 L-55.47864,67.093392 Z M-20.390544,0.1008 L-14.41608,47.534208 L11.2836,0.1008 L28.35352,0.1008 L-10.338272,67.093392 L-25.796,67.093392 L-36.037936,0.1008 L-20.390544,0.1008 Z M64.86408,67.093392 L22.28424,67.093392 L36.50904,0.1008 L79.08904,0.1008 L76.05432,14.1796384 L48.458,14.1796384 L45.70792,26.935632 L70.74376,26.935632 L67.99352,40.069584 L42.95768,40.069584 L40.2076,52.920064 L67.89864,52.920064 L64.86408,67.093392 Z M120.81528,67.093392 L77.382,67.093392 L91.60696,0.1008 L106.59048,0.1008 L95.30536,52.825584 L123.85,52.825584 L120.81528,67.093392 Z" id="Stroke-160" stroke="#FFFFFF" stroke-width="2" mask="url(#mask-40)"></path>
                            </g>
                            <g id="Group-165" transform="translate(0.000000, 480.000000)">
                                <mask id="mask-42" fill="white">
                                    <use xlink:href="#path-41"></use>
                                </mask>
                                <g id="Clip-164"></g>
                                <path d="M-117.906624,67.075792 L-161.34,67.075792 L-147.115094,0.0832 L-132.131536,0.0832 L-143.416624,52.807984 L-114.871984,52.807984 L-117.906624,67.075792 Z M-65.74864,67.075792 L-108.328528,67.075792 L-94.103616,0.0832 L-51.523728,0.0832 L-54.558384,14.1620384 L-82.154688,14.1620384 L-84.904848,26.918032 L-59.869008,26.918032 L-62.619152,40.051984 L-87.654992,40.051984 L-90.405136,52.902464 L-62.713984,52.902464 L-65.74864,67.075792 Z M-30.660544,0.0832 L-24.68608,47.516608 L1.0136,0.0832 L18.08352,0.0832 L-20.608272,67.075792 L-36.066,67.075792 L-46.307936,0.0832 L-30.660544,0.0832 Z M54.59408,67.075792 L12.01424,67.075792 L26.23904,0.0832 L68.81904,0.0832 L65.78432,14.1620384 L38.188,14.1620384 L35.43792,26.918032 L60.47376,26.918032 L57.72352,40.051984 L32.68768,40.051984 L29.9376,52.902464 L57.62864,52.902464 L54.59408,67.075792 Z M110.54528,67.075792 L67.112,67.075792 L81.33696,0.0832 L96.32048,0.0832 L85.03536,52.807984 L113.58,52.807984 L110.54528,67.075792 Z" id="Stroke-163" stroke="#FFFFFF" stroke-width="2" mask="url(#mask-42)"></path>
                            </g>
                        </g>
                    </g>
                </g>
            </g>
        </g>
    </g>
</svg>