<?xml version="1.0" encoding="UTF-8"?>
<svg width="62px" height="62px" viewBox="0 0 62 62" version="1.1" xmlns="http://www.w3.org/2000/svg" xmlns:xlink="http://www.w3.org/1999/xlink">
    <title>Twitter icon</title>
    <g id="Assets" stroke="none" stroke-width="1" fill="none" fill-rule="evenodd">
        <g id="Web-Build-Assets" transform="translate(-32.000000, -758.000000)" fill="#ffffff" fill-rule="nonzero">
            <g id="Twitter-icon" transform="translate(32.000000, 758.000000)">
                <path d="M55.8,0 L6.2,0 C2.79,0 0,2.79 0,6.2 L0,55.8 C0,59.21 2.79,62 6.2,62 L55.8,62 C59.21,62 62,59.21 62,55.8 L62,6.2 C62,2.79 59.21,0 55.8,0 Z M48.67,22.63 C48.36,36.89 39.37,46.81 25.73,47.43 C20.15,47.74 16.12,45.88 12.4,43.71 C16.43,44.3301216 21.7,42.7801216 24.49,40.3 C20.46,39.99 17.98,37.82 16.74,34.41 C17.98,34.72 19.22,34.41 20.15,34.41 C16.43,33.17 13.95,31 13.64,26.04 C14.57,26.66 15.81,26.97 17.05,26.97 C14.26,25.42 12.4,19.53 14.57,15.81 C18.6,20.15 23.56,23.87 31.62,24.49 C29.45,15.81 41.2301216,11.16 45.8801216,17.05 C48.0501216,16.74 49.6001216,15.81 51.1501216,15.19 C50.5301216,17.36 49.2901216,18.6 47.7401216,19.84 C49.2901216,19.53 50.8401216,19.22 52.0801216,18.6 C51.77,20.15 50.22,21.39 48.67,22.63 Z" id="Shape"></path>
            </g>
        </g>
    </g>
</svg>